<?xml version="1.0" standalone="no"?>
<!DOCTYPE svg PUBLIC "-//W3C//DTD SVG 1.1//EN" "http://www.w3.org/Graphics/SVG/1.1/DTD/svg11.dtd" >
<svg xmlns="http://www.w3.org/2000/svg" xmlns:xlink="http://www.w3.org/1999/xlink" version="1.1">
<metadata>
Created by FontForge 20170731 at Thu Jul  6 04:47:44 2017
 By Aleksey,,,
Copyright
</metadata>
<defs>
<font id="123RF" horiz-adv-x="800" >
  <font-face 
    font-family="123RF"
    font-weight="400"
    font-stretch="normal"
    units-per-em="1000"
    panose-1="2 2 6 3 2 1 1 2 1 1"
    ascent="800"
    descent="-200"
    x-height="519"
    cap-height="706"
    bbox="-89 -241 977 858"
    underline-thickness="25"
    underline-position="-236"
    unicode-range="U+0001-FFE6"
  />
<missing-glyph horiz-adv-x="1000" 
d="M100 -100v800h800v-800h-800zM150 -50h700v700h-700v-700z" />
    <glyph glyph-name=".notdef" horiz-adv-x="1000" 
d="M100 -100v800h800v-800h-800zM150 -50h700v700h-700v-700z" />
    <glyph glyph-name="glyph1" horiz-adv-x="0" 
 />
    <glyph glyph-name="glyph2" horiz-adv-x="1000" 
 />
    <glyph glyph-name="glyph3" horiz-adv-x="0" 
d="M0 -2z" />
    <glyph glyph-name="glyph3" horiz-adv-x="0" 
d="M0 -2z" />
    <glyph glyph-name="uni0001" 
d="M0 -58z" />
    <glyph glyph-name="uni0002" 
d="M0 -58z" />
    <glyph glyph-name="uni0003" 
d="M0 -58z" />
    <glyph glyph-name="uni0004" 
d="M0 -58z" />
    <glyph glyph-name="uni0005" 
d="M0 -58z" />
    <glyph glyph-name="uni0006" 
d="M0 -58z" />
    <glyph glyph-name="uni0007" 
d="M0 -58z" />
    <glyph glyph-name="uni0008" 
d="M0 -58z" />
    <glyph glyph-name="uni0009" unicode="&#x9;" 
d="M0 -58z" />
    <glyph glyph-name="uni000A" unicode="&#xa;" 
d="M0 -58z" />
    <glyph glyph-name="uni000B" 
d="M0 -58z" />
    <glyph glyph-name="uni000C" 
d="M0 -58z" />
    <glyph glyph-name="uni000D" unicode="&#xd;" horiz-adv-x="1000" 
d="M0 -2z" />
    <glyph glyph-name="uni000E" 
d="M0 -58z" />
    <glyph glyph-name="uni000F" 
d="M0 -58z" />
    <glyph glyph-name="uni0010" 
d="M0 -58z" />
    <glyph glyph-name="uni0011" 
d="M0 -58z" />
    <glyph glyph-name="uni0012" 
d="M0 -58z" />
    <glyph glyph-name="uni0013" 
d="M0 -58z" />
    <glyph glyph-name="uni0014" 
d="M0 -58z" />
    <glyph glyph-name="uni0015" 
d="M0 -58z" />
    <glyph glyph-name="uni0016" 
d="M0 -58z" />
    <glyph glyph-name="uni0017" 
d="M0 -58z" />
    <glyph glyph-name="uni0018" 
d="M0 -58z" />
    <glyph glyph-name="uni0019" 
d="M0 -58z" />
    <glyph glyph-name="uni001A" 
d="M0 -58z" />
    <glyph glyph-name="uni001B" 
d="M0 -58z" />
    <glyph glyph-name="uni001C" 
d="M0 -58z" />
    <glyph glyph-name="uni001D" 
d="M0 -58z" />
    <glyph glyph-name="uni001E" 
d="M0 -58z" />
    <glyph glyph-name="uni001F" 
d="M0 -58z" />
    <glyph glyph-name="space" unicode=" " horiz-adv-x="312" 
d="M0 -2z" />
    <glyph glyph-name="exclam" unicode="!" horiz-adv-x="356" 
d="M213 136h-133l62 558h161zM61 82h162l-23 -150h-162z" />
    <glyph glyph-name="quotedbl" unicode="&#x22;" horiz-adv-x="483" 
d="M66 738h145l-19 -295h-108zM252 738h147l-20 -295h-106z" />
    <glyph glyph-name="numbersign" unicode="#" horiz-adv-x="528" 
d="M70 150h-96v110h110l16 105h-99v112h116l36 222h121l-37 -222h84l36 222h122l-39 -222h98v-112h-112l-16 -105h98v-110h-114l-29 -222h-123l31 222h-81l-31 -222h-123zM306 365h-83l-17 -105h82z" />
    <glyph glyph-name="dollar" unicode="$" horiz-adv-x="528" 
d="M473 543q-42 14 -75 23.5t-65 14.5v-213q36 -15 72 -34.5t64 -44.5q26 -27 43 -60t17 -76q0 -49 -17 -85t-45 -64q-30 -27 -69.5 -45t-85.5 -28v-88h-123v77h-4q-47 0 -99 11t-103 26l17 130q19 -6 43 -14t48 -15q26 -7 50.5 -12.5t47.5 -6.5v244q-36 15 -73 35t-65 45
q-29 25 -45.5 57t-16.5 72q0 43 15 77.5t44 60.5q30 27 71.5 44.5t90.5 24.5v69h123v-66q38 -2 80 -9.5t84 -19.5zM137 502q0 -25 21 -44.5t52 -33.5v148q-31 -9 -52 -25.5t-21 -44.5zM375 144q0 28 -18 47.5t-45 35.5v-166q26 13 44.5 34t18.5 49z" />
    <glyph glyph-name="percent" unicode="%" horiz-adv-x="830" 
d="M568 705h127l-462 -784h-126zM26 516q0 79 45 125.5t129 46.5q86 0 131.5 -46.5t45.5 -125.5q0 -34 -12.5 -65.5t-35.5 -54.5q-21 -23 -54.5 -36.5t-74.5 -13.5q-40 0 -73 13.5t-54 36.5q-25 23 -36 54.5t-11 65.5zM141 516q0 -14 3 -27.5t11 -24.5q6 -11 18 -17t27 -6
q17 0 29 6t19 17t11 24.5t4 27.5q0 30 -14.5 53.5t-48.5 23.5q-30 0 -44.5 -23.5t-14.5 -53.5zM425 107q0 78 45 125t130 47t130.5 -47t45.5 -125q0 -34 -11.5 -65.5t-35.5 -54.5q-23 -23 -56 -36t-73 -13q-41 0 -74 13t-54 36q-25 23 -36 54.5t-11 65.5zM540 107
q0 -14 3 -28t11 -24q8 -11 18 -17t28 -6q16 0 27.5 6t18.5 17q7 10 10 24t3 28q0 30 -13 53t-46 23q-32 0 -46 -23t-14 -53z" />
    <glyph glyph-name="ampersand" unicode="&#x26;" horiz-adv-x="686" 
d="M623 357q-6 -94 -31 -157t-55 -110l139 -158h-172l-52 60q-40 -37 -91 -54t-118 -17q-58 0 -106 14.5t-80 43.5q-34 28 -50.5 68.5t-16.5 90.5q0 38 10.5 71t33.5 62q21 26 50.5 48t62.5 39q-28 36 -49.5 73t-21.5 88q0 47 16.5 83t43.5 58q29 24 67.5 35.5t82.5 11.5
q42 0 78.5 -11t63.5 -34q26 -22 42 -56t16 -78q0 -34 -12.5 -63.5t-33.5 -55.5q-22 -24 -49.5 -44t-56.5 -34l116 -141q15 31 22.5 72.5t11.5 94.5h139zM127 144q0 -52 35.5 -85.5t97.5 -33.5q38 0 69.5 16.5t46.5 38.5l-158 192q-18 -13 -34 -25t-28 -26q-13 -16 -21 -34
t-8 -43zM211 519q0 -28 16 -54t39 -49q14 9 29.5 19t28.5 23q12 13 21 29.5t9 36.5q0 42 -21.5 59.5t-50.5 17.5t-50 -20.5t-21 -61.5z" />
    <glyph glyph-name="quotesingle" unicode="'" horiz-adv-x="266" 
d="M55 738h145l-19 -295h-106z" />
    <glyph glyph-name="parenleft" unicode="(" horiz-adv-x="316" 
d="M173 -186q-38 56 -70 111.5t-58 113.5q-23 57 -35 118.5t-12 128.5q0 64 12 124.5t35 119.5q25 58 57 114.5t71 113.5h137q-35 -60 -66 -118.5t-53 -118.5q-25 -59 -39.5 -117.5t-14.5 -117.5q0 -61 14.5 -120t39.5 -118q22 -59 53.5 -117t65.5 -117h-137z" />
    <glyph glyph-name="parenright" unicode=")" horiz-adv-x="316" 
d="M-2 -186q31 59 61.5 117t56.5 117q21 59 35.5 118t14.5 120q0 59 -14.5 117.5t-35.5 117.5q-26 60 -56.5 118.5t-60.5 118.5h132q39 -57 71.5 -113.5t56.5 -114.5q23 -59 37 -119.5t14 -124.5q0 -67 -14 -128.5t-38 -118.5q-24 -58 -56.5 -113.5t-70.5 -111.5h-133z" />
    <glyph glyph-name="asterisk" unicode="*" horiz-adv-x="528" 
d="M251 405l-78 -132l-111 77l110 123h-2l-158 31l42 124l146 -60l-15 155h142l-16 -154l143 60l41 -125l-157 -33l107 -122l-115 -76z" />
    <glyph glyph-name="plus" unicode="+" horiz-adv-x="570" 
d="M-8 380h217v219h131v-219h222v-124h-222v-220h-131v220h-217v124z" />
    <glyph glyph-name="comma" unicode="," horiz-adv-x="237" 
d="M73 89h157l-110 -263h-120z" />
    <glyph glyph-name="hyphen" unicode="-" horiz-adv-x="522" 
d="M-6 361h519v-124h-519v124z" />
    <glyph glyph-name="period" unicode="." horiz-adv-x="230" 
d="M192 -120h-164v152h164v-152z" />
    <glyph glyph-name="slash" unicode="/" horiz-adv-x="294" 
d="M212 693h123l-264 -771h-120z" />
    <glyph glyph-name="zero" unicode="0" horiz-adv-x="672" 
d="M609 224q0 -80 -16 -132.5t-51 -86.5q-32 -33 -85.5 -48t-127.5 -15q-73 0 -126 15.5t-87 48.5q-37 33 -53.5 86t-16.5 132v229q0 77 18 130.5t55 85.5q36 34 88 50t122 16q71 0 123.5 -15.5t87.5 -49.5q35 -32 52 -85.5t17 -131.5v-229zM329 76q45 0 75 10.5t46 33.5
q18 23 25 58.5t7 85.5v148q0 51 -7 87t-25 59q-16 23 -46 33t-75 10q-49 0 -80 -11t-48 -35q-15 -24 -21 -59.5t-6 -83.5v-148q0 -48 6 -83.5t21 -57.5q17 -25 48 -36t80 -11z" />
    <glyph glyph-name="one" unicode="1" horiz-adv-x="417" 
d="M310 -39q0 -8 -11 -8h-107q-10 0 -10 8v586q0 19 -2.5 29.5t-7.5 16.5q-6 5 -17 6.5t-30 1.5h-32q-10 0 -10 9v106q0 9 10 9h102q37 0 59.5 -2t34.5 -12q13 -10 17 -32t4 -64v-654z" />
    <glyph glyph-name="two" unicode="2" horiz-adv-x="628" 
d="M569 -47h-508q-9 0 -15.5 6.5t-6.5 15.5v190q0 35 12.5 63t28.5 51q17 21 37 37t38 26t44.5 23t53.5 27q29 14 58 29t53 30q23 15 39 31t18 31q5 27 0 43.5t-19 26.5q-15 10 -40.5 14t-63.5 4h-234v103q0 13 5 17t15 4h228q61 0 109 -8.5t80 -30.5q33 -23 50 -60.5
t18 -93.5q0 -36 -17 -68.5t-41 -59.5q-27 -28 -56.5 -49.5t-56.5 -33.5q-47 -23 -87 -40.5t-70 -35.5q-30 -19 -47.5 -41t-17.5 -54v-59q0 -4 1 -7q2 -6 11 -6h381v-125z" />
    <glyph glyph-name="three" unicode="3" horiz-adv-x="600" 
d="M37 -47q-9 0 -9 10v100q0 12 9 12h239q16 0 37 5t39 17q17 12 29 30.5t12 47.5v44q0 21 -10 37.5t-24 28.5q-18 10 -39 15.5t-41 5.5h-166v126h199q21 0 37 7t25 17q10 10 13.5 23.5t3.5 24.5v30q0 30 -25.5 50t-63.5 20h-254q-9 0 -9 10v102q0 9 9 9h262
q107 0 166.5 -45.5t59.5 -154.5q0 -59 -21 -100.5t-50 -61.5q28 -13 45 -36.5t26 -49.5q8 -26 10 -51t2 -40q0 -40 -12 -81.5t-38 -73.5q-24 -34 -63.5 -56t-94.5 -22h-303z" />
    <glyph glyph-name="four" unicode="4" horiz-adv-x="656" 
d="M451 725q37 0 50.5 -13.5t13.5 -44.5v-434h97q8 0 8 -9v-103q0 -10 -8 -10h-97v-148q0 -10 -11 -10h-108q-9 0 -9 10v148h-341q-8 0 -8 10v125l314 452q14 19 24 23t23 4h52zM387 233v300l-208 -300h208z" />
    <glyph glyph-name="five" unicode="5" horiz-adv-x="584" 
d="M45 -47q-7 0 -7 10v100q0 12 7 12h252q33 0 54 1t34 7q11 6 14.5 21t3.5 42v70q0 26 -2 41t-10 23q-7 8 -23.5 10t-43.5 2h-119q-35 0 -65.5 2.5t-54.5 15.5q-21 15 -34 44t-13 83v213q0 12 1 26t9 25q9 10 22.5 17t40.5 7h383q10 0 10 -9v-102q0 -10 -10 -10h-277
q-19 0 -29.5 -2t-14.5 -9q-6 -7 -7 -18.5t-1 -29.5v-61q0 -24 3 -38t11 -20q10 -9 24.5 -11t38.5 -2h126q45 0 76.5 -9t49.5 -28q21 -21 29 -53t8 -77v-136q0 -47 -8.5 -76.5t-28.5 -47.5q-17 -17 -43.5 -25t-62.5 -8h-343v0z" />
    <glyph glyph-name="six" unicode="6" horiz-adv-x="604" 
d="M214 602q-23 0 -32.5 -6.5t-9.5 -23.5v-174q13 6 32 6h198q82 0 119 -32.5t37 -114.5v-149q0 -47 -9.5 -77t-27.5 -48q-21 -16 -52.5 -23t-76.5 -7h-182q-45 0 -76 6.5t-52 21.5q-19 17 -29 45t-10 72v483q0 39 7.5 67.5t25.5 45.5q15 15 44 23t72 8h211q40 0 66 -8
t43 -26q14 -19 21 -49t7 -74v-28q0 -10 -10 -10h-104q-10 0 -10 10v15q0 25 -6.5 36t-22.5 11h-173zM430 250q0 16 -9.5 23.5t-33.5 7.5h-194q-7 0 -14 -4.5t-7 -15.5v-125q0 -28 12 -43.5t41 -15.5h152q28 0 40.5 15.5t12.5 43.5v114z" />
    <glyph glyph-name="seven" unicode="7" horiz-adv-x="576" 
d="M190 -28q51 132 93 243q17 48 34.5 94.5t32.5 86.5q15 39 25 66.5t12 38.5q1 5 1.5 15t0.5 20v22q0 26 -7.5 35.5t-34.5 9.5h-156q-17 0 -27 -8.5t-10 -32.5v-60q0 -10 -11 -10h-105q-9 0 -9 10v86q0 77 26.5 107t90.5 30h259q69 0 95 -32t24 -109v-31q-1 -13 -1.5 -27
t-1.5 -24t-10.5 -37.5t-23.5 -66.5q-12 -40 -29 -87t-34 -93q-40 -111 -94 -246q-1 -8 -5.5 -13.5t-12.5 -5.5h-113q-5 0 -9.5 4t0.5 15z" />
    <glyph glyph-name="eight" unicode="8" horiz-adv-x="612" 
d="M194 -47q-34 0 -64 12.5t-51 34.5q-22 22 -34.5 55t-12.5 75v67q0 32 8.5 57t23.5 44q13 19 27 32.5t25 20.5q-10 7 -23.5 16t-23.5 24q-12 15 -20.5 38t-8.5 60v54q0 86 51.5 134t148.5 48h117q95 0 146.5 -48t51.5 -134v-54q0 -33 -8 -56.5t-19 -38.5
q-10 -16 -23.5 -26t-22.5 -17q10 -7 25.5 -19t26.5 -31q13 -18 21.5 -43.5t8.5 -60.5v-67q0 -42 -12.5 -75t-32.5 -55q-24 -22 -53 -34.5t-64 -12.5h-208zM258 292q-14 0 -30.5 -3.5t-31.5 -14.5t-25 -29.5t-10 -46.5v-42q0 -25 5.5 -42t18.5 -25q12 -9 32 -11.5t50 -2.5h62
q28 0 47.5 1.5t32.5 10.5q13 8 20 24.5t7 44.5v42q0 42 -28.5 68t-71.5 26h-78zM269 604q-54 0 -77 -17.5t-23 -60.5v-34q0 -21 4 -35t17 -24q10 -9 29 -14.5t48 -5.5h62q14 0 30.5 3t32.5 11q14 9 24.5 24t10.5 41v34q0 12 -4.5 25t-16.5 27q-9 10 -28 18t-50 8h-59z" />
    <glyph glyph-name="nine" unicode="9" horiz-adv-x="612" 
d="M383 75q23 0 33 7t10 23v167q-15 -8 -33 -8h-198q-82 0 -119 33t-37 114v159q0 47 9.5 77.5t28.5 47.5q19 16 51 23t77 7h182q45 0 76 -6t53 -21q18 -17 27.5 -45.5t9.5 -71.5v-483q0 -40 -7 -68t-23 -46q-18 -15 -47 -23t-71 -8h-309q-9 0 -9 10v100q0 12 9 12h287z
M167 419q0 -17 9.5 -24t33.5 -7h193q8 0 15.5 4.5t7.5 14.5v136q0 27 -12.5 43t-41.5 16h-153q-27 0 -39.5 -16t-12.5 -43v-124z" />
    <glyph glyph-name="colon" unicode=":" horiz-adv-x="266" 
d="M210 435h-166v153h166v-153zM44 210h166v-152h-166v152z" />
    <glyph glyph-name="semicolon" unicode=";" horiz-adv-x="261" 
d="M239 443h-164v153h164v-153zM75 196h156l-99 -262h-122z" />
    <glyph glyph-name="less" unicode="&#x3c;" horiz-adv-x="570" 
d="M542 541l-358 -238l358 -238v-152l-535 341v96l535 345v-154z" />
    <glyph glyph-name="equal" unicode="=" horiz-adv-x="570" 
d="M-8 465h570v-125h-570v125zM-8 235h570v-123h-570v123z" />
    <glyph glyph-name="greater" unicode="&#x3e;" horiz-adv-x="570" 
d="M7 695l535 -345v-96l-535 -341v152l359 238l-359 238v154z" />
    <glyph glyph-name="question" unicode="?" horiz-adv-x="475" 
d="M145 163q0 59 27.5 108.5t70.5 90.5q24 26 43.5 56.5t19.5 66.5q0 21 -10.5 39t-24.5 29q-18 11 -38 17t-40 6q-46 0 -90.5 -18t-82.5 -47l-13 144q42 19 91 31t104 12q47 0 91 -14t79 -38q34 -26 55 -64.5t21 -91.5q0 -34 -11 -64t-31 -58q-18 -26 -39 -51.5t-40 -52.5
q-17 -24 -30 -49.5t-13 -53.5v-33h-139v35zM134 53h161v-150h-161v150z" />
    <glyph glyph-name="at" unicode="@" horiz-adv-x="760" 
d="M331 171q28 0 49.5 15.5t37.5 39.5q16 25 24 54t8 56q0 35 -18.5 58t-45.5 23q-29 0 -52.5 -15t-42.5 -38q-16 -23 -25.5 -50.5t-9.5 -53.5q0 -38 19.5 -63.5t55.5 -25.5zM501 506h103q-38 51 -96.5 75.5t-123.5 24.5t-119 -24.5t-92 -66.5q-39 -41 -60 -96.5t-21 -117.5
q0 -72 22.5 -128t63.5 -94q41 -39 96 -59t120 -20q30 0 60 8t60 21q28 12 54.5 30t47.5 38h110q-60 -91 -148.5 -138t-187.5 -47q-83 0 -158 25.5t-130 76.5q-57 48 -87.5 121.5t-30.5 167.5q0 87 29.5 160t84.5 125q57 52 129 80.5t158 28.5q70 0 137.5 -23.5t118.5 -66.5
q50 -43 81 -102t31 -133q0 -54 -13.5 -96.5t-37.5 -77.5q-21 -34 -50 -59t-57 -42q-31 -16 -59 -24t-50 -8q-24 0 -42 11t-29 36q-22 -20 -50 -32.5t-56 -12.5q-36 0 -67 14t-54 38q-25 24 -39 57t-14 70q0 50 17.5 99.5t48.5 89.5q32 39 77 63t100 24q34 0 63 -12.5
t53 -42.5zM653 354q0 44 -11 80t-34 67l-71 -276q-3 -6 -6 -18.5t-3 -24.5q0 -14 6 -14q21 0 42 14t38 40q18 25 28.5 58.5t10.5 73.5z" />
    <glyph glyph-name="A" unicode="A" horiz-adv-x="775" 
d="M589 -47q-1 1 -6 14.5t-14 37.5q-7 24 -19.5 56t-25.5 69h-300q-14 -37 -25 -69t-21 -56q-8 -24 -13 -37.5t-6 -14.5h-147q2 5 14 38.5t32 86.5q19 53 43 117.5t50 133.5q23 66 47.5 130.5t42.5 115.5q19 49 30.5 80.5t11.5 32.5q10 28 25.5 32.5t25.5 4.5h86q4 0 9 -0.5
t12 -4.5q5 -3 12.5 -10.5t12.5 -21.5q0 -1 11 -32.5t30 -80.5q18 -51 42 -115.5t50 -130.5q23 -69 48 -133.5t43 -117.5q19 -53 31.5 -86.5t14.5 -38.5h-147zM478 261q-16 43 -31 84t-29 80q-14 36 -24.5 68t-19.5 54q-15 -46 -43.5 -123.5t-59.5 -162.5h207z" />
    <glyph glyph-name="B" unicode="B" horiz-adv-x="697" 
d="M635 155q0 -51 -15.5 -85t-38.5 -60q-7 -8 -19 -18t-33 -18q-19 -9 -49.5 -15.5t-70.5 -6.5h-371v772h347q41 0 70 -6.5t49 -14.5q20 -9 33 -19.5t20 -17.5q22 -25 37 -62t15 -87v-35q0 -39 -11 -69.5t-26 -54.5q24 -23 43.5 -59.5t19.5 -87.5v-56zM173 589v-175h222
q31 0 53.5 20t22.5 66q0 44 -26 66.5t-62 22.5h-210zM406 88q45 0 66.5 22t23.5 74q0 27 -8.5 45.5t-24.5 29.5q-17 12 -37 16t-41 4h-212v-191h233z" />
    <glyph glyph-name="C" unicode="C" horiz-adv-x="655" 
d="M603 84v-131h-345q-49 0 -92 18t-73 49t-47.5 74t-17.5 94v298q0 51 17.5 94.5t47.5 76.5q30 32 73 50t92 18h311v-130h-224q-55 0 -89 -9.5t-56 -31.5q-21 -21 -29 -55t-8 -83v-158q0 -48 8 -81.5t29 -53.5q22 -21 56 -30t89 -9h258z" />
    <glyph glyph-name="D" unicode="D" horiz-adv-x="690" 
d="M630 188q0 -51 -17.5 -94t-48.5 -74q-32 -31 -74.5 -49t-90.5 -18h-362v772h362q48 0 90.5 -17t74.5 -49q31 -31 48.5 -74t17.5 -94v-303zM493 422q0 46 -7.5 80t-29.5 54q-20 21 -55 30t-88 9h-141v-511h141q53 0 88 9t55 30q22 20 29.5 53.5t7.5 81.5v164z" />
    <glyph glyph-name="E" unicode="E" horiz-adv-x="656" 
d="M604 82v-131h-346q-49 0 -91.5 18t-72.5 50q-30 30 -47.5 73.5t-17.5 92.5v304q0 51 17.5 94t47.5 75q30 31 72.5 48t91.5 17h330v-130h-242q-55 0 -89 -9t-56 -30q-20 -20 -28.5 -54t-8.5 -81v-18h388v-130h-388v-11q0 -48 8.5 -82.5t28.5 -54.5q22 -22 56 -31.5
t89 -9.5h258z" />
    <glyph glyph-name="F" unicode="F" horiz-adv-x="640" 
d="M357 595q-55 0 -90 -9t-55 -30q-21 -20 -29.5 -54t-8.5 -80v-24h365v-132h-365v-313h-136v538q0 51 18 94t49 74q29 32 71.5 49t93.5 17h310v-130h-223v0z" />
    <glyph glyph-name="G" unicode="G" horiz-adv-x="693" 
d="M630 -47h-361q-51 0 -93.5 18t-72.5 50q-31 31 -48 74.5t-17 95.5v313q0 52 17 95.5t48 75.5q30 31 72.5 49t93.5 18h314v-132h-226q-55 0 -90 -9t-56 -30q-21 -22 -29.5 -55t-8.5 -82v-173q0 -48 8.5 -82.5t29.5 -53.5q21 -22 56 -31t90 -9h136v154h-146v133h283v-419z
" />
    <glyph glyph-name="H" unicode="H" horiz-adv-x="693" 
d="M635 725v-772h-137v313h-326v-313h-135v772h135v-327h326v327h137z" />
    <glyph glyph-name="I" unicode="I" horiz-adv-x="206" 
d="M166 -47h-135v772h135v-772z" />
    <glyph glyph-name="J" unicode="J" horiz-adv-x="401" 
d="M355 179q0 -49 -18 -90.5t-50 -70.5q-31 -31 -72.5 -48t-90.5 -17h-94v131h16q52 0 86.5 9t54.5 30q18 20 25 53t7 80v326q0 10 -10 10h-91v133h200q17 0 27 -10.5t10 -28.5v-507z" />
    <glyph glyph-name="K" unicode="K" horiz-adv-x="652" 
d="M620 -47h-188q-1 2 -17.5 20.5t-42.5 46.5q-24 27 -56 62t-64 69q-30 33 -59.5 64.5t-49.5 54.5v-317h-136v772h136v-298q12 12 34 39t50 60q25 32 54.5 66.5t52.5 63.5q26 29 41.5 48t17.5 21h173l-316 -374z" />
    <glyph glyph-name="L" unicode="L" horiz-adv-x="606" 
d="M251 -47q-49 0 -91 18t-73 49q-30 31 -47.5 74t-17.5 94v537h136v-467q0 -48 8 -81.5t29 -53.5q20 -21 55 -30t89 -9h225v-131h-313z" />
    <glyph glyph-name="M" unicode="M" horiz-adv-x="780" 
d="M701 725q1 -25 3.5 -83.5t5.5 -135.5q2 -76 5 -161.5t6 -162.5q2 -79 3.5 -140t2.5 -89h-142q0 17 -1 48t-1 73q0 40 -0.5 89t-0.5 100q-1 50 -1.5 101.5t-1.5 98.5q-17 -56 -36.5 -116.5t-36.5 -114.5q-18 -55 -30.5 -96.5t-19.5 -59.5h-162q-6 18 -18.5 59.5
t-30.5 96.5q-16 54 -35 114.5t-37 116.5q-1 -47 -2 -98.5t-1 -101.5q-1 -51 -1.5 -100t-0.5 -89q-1 -42 -1.5 -73t-0.5 -48h-141q1 28 2.5 89t4.5 140q2 77 4.5 162.5t4.5 161.5q2 77 4 135.5t3 83.5h172q7 -17 16.5 -47t22.5 -69t27 -83t31 -90q14 -48 30 -93t28 -85
q15 40 30 85l31 93q13 46 28.5 90t26.5 83l23 69t16 47h171z" />
    <glyph glyph-name="N" unicode="N" horiz-adv-x="708" 
d="M645 724v-772l-137 1q-5 0 -13 1.5t-12 9.5q-1 0 -16.5 26t-38.5 67q-25 41 -56 96t-63 113q-35 61 -70 120.5t-65 113.5v-548h-136v772h143q6 0 12.5 -1t14.5 -8q1 -1 16 -28t41 -70q23 -44 54.5 -99t66.5 -113q32 -59 65 -115.5t59 -104.5v539h135z" />
    <glyph glyph-name="O" unicode="O" horiz-adv-x="733" 
d="M353 742q66 0 124 -24.5t102 -66.5q42 -42 68 -96.5t26 -115.5v-198q0 -61 -26 -116t-68 -96q-44 -42 -102 -66t-124 -24q-67 0 -125 24t-102 66q-44 41 -68 96t-24 116v198q0 61 24 115.5t68 96.5t102 66.5t125 24.5zM536 403q0 39 -14.5 75t-37.5 64q-27 26 -59.5 42.5
t-70.5 16.5q-37 0 -71 -16.5t-57 -42.5q-26 -28 -40.5 -64t-14.5 -75v-127q0 -39 14.5 -75t40.5 -63q23 -27 57 -43.5t71 -16.5q38 0 70.5 16.5t59.5 43.5q23 27 37.5 63t14.5 75v127z" />
    <glyph glyph-name="P" unicode="P" horiz-adv-x="690" 
d="M630 433q0 -101 -55.5 -156.5t-180.5 -55.5h-222v-269h-135v772h366q49 0 90.5 -12t71.5 -35q31 -26 48 -64t17 -92v-88zM393 355q19 0 36.5 5.5t32.5 17.5q14 10 21 28.5t7 42.5v45q0 51 -24 73t-64 22h-230v-234h221z" />
    <glyph glyph-name="Q" unicode="Q" horiz-adv-x="758" 
d="M620 -74l-76 73q-42 -31 -92 -47.5t-106 -16.5q-67 0 -126 23t-103 64t-69.5 97t-25.5 119v209q0 61 25.5 117t69.5 97q44 42 103 65.5t126 23.5q66 0 125 -23.5t103 -65.5q44 -41 70 -97t26 -117v-209q0 -42 -12.5 -79.5t-31.5 -71.5l84 -82zM346 80q23 0 46.5 6
t43.5 17l-111 108l84 88l106 -104q8 19 11 38t3 42v135q0 41 -14.5 76.5t-37.5 60.5q-27 28 -60 43t-71 15q-37 0 -71.5 -15t-60.5 -43q-24 -25 -38.5 -60.5t-14.5 -76.5v-135q0 -41 14.5 -76.5t38.5 -61.5q26 -26 60.5 -41.5t71.5 -15.5z" />
    <glyph glyph-name="R" unicode="R" horiz-adv-x="694" 
d="M627 -17q5 -12 10 -15.5t5 -8.5t-6 -5h-118q-19 0 -26.5 3.5t-11.5 22.5l-72 199q-7 20 -14 33t-19 21q-10 6 -25.5 8.5t-35.5 2.5h-151v-291h-135v772h363q41 0 70 -6t51 -15q18 -9 30.5 -19.5t19.5 -17.5q23 -25 38.5 -59.5t15.5 -85.5v-24q0 -47 -5 -81t-17 -56
q-14 -20 -28.5 -34t-26.5 -22q-13 -8 -20.5 -13t-7.5 -10q0 -2 1 -4q11 -17 17.5 -30.5t11.5 -24.5q1 -4 9 -23.5t17 -45.5t20 -56t18 -55q10 -24 16 -42zM384 380q54 0 74 27.5t20 80.5q0 55 -24 78.5t-66 23.5h-225v-210h221z" />
    <glyph glyph-name="S" unicode="S" horiz-adv-x="691" 
d="M484 359q34 -13 58.5 -28t43.5 -37q17 -22 26 -53t9 -76q0 -14 -1 -33.5t-7 -40.5q-7 -22 -17 -45.5t-28 -42.5q-32 -33 -98.5 -41.5t-159.5 -8.5h-267v132h305q25 0 51 2.5t45 9.5q21 7 32 23.5t11 42.5q0 33 -25 51.5t-88 37.5q-19 5 -49.5 13t-57.5 16q-31 8 -53.5 14
t-27.5 8q-66 26 -104.5 77t-38.5 121q0 48 24 93t65 78q28 23 62.5 34t75.5 15q40 4 84 4h91h125v-131h-232q-27 0 -51.5 -6t-44.5 -19q-18 -12 -30 -29.5t-12 -39.5q0 -27 16 -43.5t48 -29.5q12 -4 44.5 -14t69.5 -21q36 -11 67.5 -20.5t38.5 -12.5z" />
    <glyph glyph-name="T" unicode="T" horiz-adv-x="672" 
d="M623 595h-233v-642h-137v642h-229v130h599v-130z" />
    <glyph glyph-name="U" unicode="U" horiz-adv-x="695" 
d="M639 724v-497q0 -60 -22.5 -114t-62.5 -93q-40 -40 -96 -62.5t-123 -22.5q-65 0 -121 22.5t-96 62.5q-41 39 -63 93t-22 114v497h137v-462q0 -38 11.5 -72.5t32.5 -59.5q22 -27 52.5 -41t68.5 -14t68.5 14t51.5 41q23 25 34 59.5t11 72.5v462h139z" />
    <glyph glyph-name="V" unicode="V" horiz-adv-x="746" 
d="M717 724q-5 -13 -17 -47.5t-27 -83.5q-19 -50 -39.5 -110t-41.5 -124q-23 -63 -44.5 -125.5t-39.5 -116.5q-20 -56 -34.5 -98t-24.5 -66h-178q-9 24 -24 66t-34 98q-20 54 -41.5 116.5t-43.5 125.5q-21 64 -41.5 124t-38.5 110q-16 49 -28.5 83.5t-17.5 47.5h147
q8 -21 23.5 -67t35.5 -105t42 -126t42 -130q22 -63 39.5 -115.5t29.5 -84.5q9 32 27 84.5t40 115.5q19 63 41 130t44 126q18 59 34.5 105t23.5 67h146v0z" />
    <glyph glyph-name="W" unicode="W" horiz-adv-x="893" 
d="M854 725q-2 -15 -9 -50t-15 -86q-11 -49 -22 -109.5t-21 -123.5q-12 -63 -23.5 -125t-22.5 -115q-10 -56 -17 -97.5t-13 -65.5h-174q-7 26 -18.5 78t-26.5 117q-13 64 -30 134t-31 130q-15 -60 -30.5 -130t-30.5 -134q-13 -65 -25.5 -117t-18.5 -78h-172q-8 30 -20.5 95
t-25.5 146q-17 80 -32.5 167t-30.5 163q-13 76 -24 130.5t-15 70.5h144q4 -17 9.5 -50t13.5 -76q8 -45 16.5 -97.5t18.5 -106.5q9 -55 19 -109.5t18 -104.5q17 70 34 148.5t35 149.5q15 68 27 120.5t18 68.5h145q3 -10 10.5 -38t15.5 -66q9 -38 20.5 -85t22.5 -97
q10 -51 21.5 -101.5t23.5 -97.5q9 49 18 103l18 108t18.5 106t16.5 97q7 43 13 76.5t10 51.5h142v0z" />
    <glyph glyph-name="X" unicode="X" horiz-adv-x="726" 
d="M688 725q-11 -19 -38 -58t-60 -89q-35 -53 -76 -114t-83 -123q43 -64 84.5 -126.5t76.5 -115.5q35 -52 60.5 -90.5t35.5 -55.5h-159q-9 17 -27.5 44t-42.5 63q-23 36 -51 77t-58 86q-29 -45 -57 -86t-52 -77l-42 -63t-29 -44h-159q11 17 37 55.5t61 90.5q34 53 76 115.5
t85 126.5q-43 62 -84 123t-75 114q-35 50 -61 89t-39 58h159q12 -17 30 -44t41 -62q25 -35 52.5 -75t56.5 -84q29 44 57 84t50 75q25 35 43.5 62t28.5 44h159v0z" />
    <glyph glyph-name="Y" unicode="Y" horiz-adv-x="698" 
d="M671 725q-8 -14 -22.5 -40.5t-35.5 -63.5q-20 -36 -43 -78l-46 -84q-54 -98 -119 -214v-292h-136v292q-65 116 -119 214q-24 42 -47.5 84t-42.5 78q-21 37 -36 63.5t-22 40.5h156q6 -15 18.5 -36.5t25.5 -48.5q14 -27 29.5 -56t31.5 -58q33 -68 73 -143q40 75 75 143
l30 58t30 56q13 27 24.5 48.5t20.5 36.5h155z" />
    <glyph glyph-name="Z" unicode="Z" horiz-adv-x="644" 
d="M598 82v-129h-560q-10 0 -12.5 8t-2.5 29q0 42 3.5 74t12.5 47l360 484h-364v130h342h185q13 0 17 -5t4 -19v-30v-35q-1 -18 -2.5 -33t-5.5 -20l-370 -501h393z" />
    <glyph glyph-name="bracketleft" unicode="[" horiz-adv-x="315" 
d="M31 769h241v-106h-108v-736h108v-105h-241v947z" />
    <glyph glyph-name="backslash" unicode="\" horiz-adv-x="950" 
d="M854 324l-110 -391h-169l-89 391h-59l-84 -391h-170l-110 391h-20q-21 0 -49.5 -1t-49.5 -5v107q20 -3 44 -4.5t47 -1.5l-65 242h148l64 -242h138l50 242h178l52 -242h136l65 242h149l-67 -242q21 0 47 1.5t46 4.5v-107q-22 4 -52 5t-51 1h-19zM661 134l51 190h-92z
M256 135l41 189h-90zM447 419h20l-10 44z" />
    <glyph glyph-name="bracketright" unicode="]" horiz-adv-x="313" 
d="M271 -178h-241v105h106v736h-106v106h241v-947z" />
    <glyph glyph-name="asciicircum" unicode="^" horiz-adv-x="570" 
d="M217 743h114l226 -455h-140l-142 297l-143 -297h-136z" />
    <glyph glyph-name="underscore" unicode="_" horiz-adv-x="475" 
d="M0 -11h459v-112h-459v112z" />
    <glyph glyph-name="grave" unicode="`" horiz-adv-x="236" 
d="M235 564h-101l-140 165h153z" />
    <glyph glyph-name="a" unicode="a" horiz-adv-x="525" 
d="M482 -13q2 -6 7 -14t5 -14q0 -7 -6 -7h-249q-117 0 -172.5 49.5t-55.5 154.5v32.5v42.5q0 21 0.5 44t0.5 40q3 107 56.5 155.5t170.5 48.5h236v-101q0 -36 0.5 -81.5t1.5 -91.5q0 -48 0.5 -93t1.5 -79q1 -36 1.5 -59.5t1.5 -26.5zM351 85v302h-44q-57 0 -88.5 -4
t-48.5 -20q-15 -17 -20 -46.5t-5 -80.5q0 -52 5 -81.5t20 -45.5q17 -15 48.5 -19.5t88.5 -4.5h44z" />
    <glyph glyph-name="b" unicode="b" horiz-adv-x="549" 
d="M499 316v-36v-43v-43v-37q0 -98 -48.5 -151t-147.5 -53h-273v772h135v-205h106q116 0 171 -48.5t57 -155.5zM202 84q56 0 88.5 5t48.5 21t20.5 46t4.5 82q0 51 -4.5 81t-20.5 46t-48.5 20.5t-88.5 4.5h-37v-306h37z" />
    <glyph glyph-name="c" unicode="c" horiz-adv-x="525" 
d="M479 86v-133h-224q-117 0 -172 49.5t-55 154.5v32.5v42.5v44v40q3 107 56.5 155.5t170.5 48.5h206v-132h-139q-54 0 -87 -4t-48 -20q-17 -17 -21.5 -46.5t-4.5 -80.5q0 -52 4.5 -81.5t21.5 -45.5q15 -15 48 -19.5t87 -4.5h157z" />
    <glyph glyph-name="d" unicode="d" horiz-adv-x="541" 
d="M494 725v-648v-124h-10h-232q-116 0 -171 49.5t-55 154.5v159q0 107 55 156t171 49h108v204h134zM360 86v302h-39q-55 0 -88 -3.5t-48 -19.5q-17 -17 -21 -46.5t-4 -80.5q0 -52 4 -81.5t21 -45.5q15 -16 48 -20.5t88 -4.5h39z" />
    <glyph glyph-name="e" unicode="e" horiz-adv-x="549" 
d="M273 529q61 0 105 -14.5t70 -43.5q28 -28 40 -72.5t12 -104.5v-119h-334q3 -31 11.5 -48t26.5 -26t47 -12t74 -3h161v-133h-228q-120 0 -173 52t-55 162v139q0 116 52.5 169.5t174.5 53.5h16zM365 294q-2 28 -7.5 47t-16.5 31q-12 12 -30.5 17.5t-44.5 5.5
q-30 0 -48.5 -5.5t-28.5 -17.5q-13 -12 -18 -31t-6 -47h200z" />
    <glyph glyph-name="f" unicode="f" horiz-adv-x="391" 
d="M303 593q-22 0 -36 -3t-21 -12q-7 -11 -9.5 -29.5t-2.5 -51.5h118v-121h-111v-423h-135v423h-90v121h84q0 58 2.5 101t18.5 71q17 29 59 42.5t119 13.5h62v-132h-58v0z" />
    <glyph glyph-name="g" unicode="g" horiz-adv-x="553" 
d="M500 7q0 -80 -26.5 -121.5t-75.5 -59.5q-50 -17 -124 -17.5t-168 1.5v132h107q44 0 73.5 2t45.5 9q18 8 26 22t8 37h-107q-116 0 -171.5 49.5t-55.5 154.5v101q0 107 55.5 155.5t171.5 48.5h241v-514zM365 143v245h-39q-49 0 -80.5 -2t-48.5 -15q-19 -13 -25.5 -39.5
t-6.5 -72.5q0 -43 10.5 -65.5t30.5 -34.5q21 -11 50.5 -13.5t69.5 -2.5h39z" />
    <glyph glyph-name="h" unicode="h" horiz-adv-x="546" 
d="M271 520q120 0 173.5 -54t53.5 -168v-345h-135v283q0 52 -4.5 82t-20.5 47q-16 16 -48 20.5t-89 4.5h-37v-437h-135v772h135v-205h107v0z" />
    <glyph glyph-name="i" unicode="i" horiz-adv-x="239" 
d="M193 655q0 -35 -22.5 -57t-54.5 -22q-36 0 -58 22t-22 57q0 33 22 56.5t58 23.5q32 0 54.5 -23.5t22.5 -56.5zM46 519v-567h136v567h-136z" />
    <glyph glyph-name="j" unicode="j" horiz-adv-x="256" 
d="M58 521v-432q0 -38 -3 -65.5t-14 -45.5q-9 -19 -27 -27.5t-52 -8.5h-36v-132h43q70 0 114.5 15t70.5 47q21 31 30 80.5t9 119.5v449h-135zM207 657q0 -35 -23 -57t-57 -22t-57 22t-23 57q0 33 23 56.5t57 23.5t57 -23.5t23 -56.5z" />
    <glyph glyph-name="k" unicode="k" horiz-adv-x="554" 
d="M338 -47q-9 11 -28.5 32.5t-42.5 49.5q-26 26 -52.5 56.5t-52.5 57.5l-19 -23v-173h-136v762q0 10 11 10h115q10 0 10 -10v-384q23 27 46.5 55.5t45.5 55.5q21 24 38 44.5t25 32.5h175q-1 -1 -4 -4.5t-12 -12.5q-8 -10 -22 -28t-38 -47q-26 -29 -62 -72t-86 -103
l275 -299h-186z" />
    <glyph glyph-name="l" unicode="l" horiz-adv-x="216" 
d="M171 -47h-135v772h135v-772z" />
    <glyph glyph-name="m" unicode="m" horiz-adv-x="701" 
d="M646 -47h-133v282q0 45 -3.5 74t-14.5 46t-31.5 24.5t-58.5 8.5v-435h-134v437h-107v-437h-135v567h390q120 0 173 -54t53 -168z" />
    <glyph glyph-name="n" unicode="n" horiz-adv-x="560" 
d="M277 520q120 0 174 -54t54 -168v-345h-136v282q0 52 -3.5 82t-19.5 47q-17 17 -49 21.5t-88 4.5h-38v-437h-135v567h241v0z" />
    <glyph glyph-name="o" unicode="o" horiz-adv-x="592" 
d="M284 525q44 0 89.5 -14.5t82.5 -49.5q37 -34 61 -92.5t24 -143.5q0 -92 -24.5 -150.5t-61.5 -93.5q-36 -33 -81.5 -44.5t-89.5 -11.5q-41 0 -85 13t-82 46q-38 36 -62.5 94t-24.5 147q0 87 24 145t62 93q38 34 82 48t86 14zM284 60q34 0 57 15.5t37 40.5q15 22 21 51
t6 58q0 33 -6 63t-21 53q-14 22 -37 34.5t-57 12.5q-33 0 -55.5 -12t-36.5 -33q-16 -21 -21.5 -52t-5.5 -66q0 -32 6.5 -61.5t21.5 -52.5t37 -37t54 -14z" />
    <glyph glyph-name="p" unicode="p" horiz-adv-x="560" 
d="M504 316v-33.5v-38.5v-39v-30q0 -105 -56 -154t-172 -49v-1h-106v-163h-135v713h232q116 0 175 -49.5t62 -155.5zM208 103q56 0 88 5t49 21q16 14 19.5 44.5t3.5 81.5q0 41 -3.5 66.5t-19.5 40.5q-17 15 -49 20.5t-88 5.5h-38v-285h38z" />
    <glyph glyph-name="q" unicode="q" horiz-adv-x="560" 
d="M36 317q2 106 56.5 155t171.5 49h240v-713h-136v163h-104v1q-117 0 -172.5 49t-55.5 154v30v39v39.5v33.5zM368 103v285h-38q-54 0 -86.5 -5.5t-48.5 -20.5q-17 -16 -20.5 -42t-3.5 -65q0 -51 3.5 -81.5t20.5 -44.5q16 -16 48.5 -21t86.5 -5h38z" />
    <glyph glyph-name="r" unicode="r" horiz-adv-x="412" 
d="M378 519v-132h-15q-51 0 -90.5 -6.5t-65.5 -23.5q-28 -17 -40.5 -44.5t-12.5 -69.5v-290h-137v567h137v-36q29 19 68.5 27t85.5 8h70z" />
    <glyph glyph-name="s" unicode="s" horiz-adv-x="532" 
d="M373 270q32 -13 53 -29.5t36 -37.5q13 -20 18 -42.5t5 -43.5q0 -39 -13 -73t-31 -50q-15 -14 -30.5 -22.5t-36.5 -12.5q-20 -4 -49 -5t-70 -1h-229v133h183q14 0 38.5 -0.5t47.5 2.5q25 2 42.5 7.5t17.5 18.5q0 16 -16 27.5t-43 20.5q-25 10 -60 19t-70 20q-63 19 -97 59
t-34 103q0 37 12.5 67.5t46.5 53.5q21 12 38.5 19.5t40.5 11.5q22 3 53.5 4t80.5 1h138v-132h-160h-27.5t-33.5 -2q-17 -3 -29 -10.5t-12 -22.5q0 -21 24.5 -34.5t57.5 -23.5q30 -9 62.5 -15t45.5 -10z" />
    <glyph glyph-name="t" unicode="t" horiz-adv-x="372" 
d="M337 87v-134h-144q-60 0 -93.5 13.5t-52.5 40.5q-16 28 -21 71t-5 103v544h136v-205h134v-132h-134v-140q0 -55 1 -87.5t9 -48.5t28.5 -20.5t59.5 -4.5h82z" />
    <glyph glyph-name="u" unicode="u" horiz-adv-x="555" 
d="M501 -48h-241q-122 0 -174.5 53.5t-52.5 169.5v344h133v-280q0 -53 4 -83t22 -47q15 -16 47.5 -21t87.5 -5h39v435h135v-566z" />
    <glyph glyph-name="v" unicode="v" horiz-adv-x="551" 
d="M524 520q-4 -17 -18 -60t-29 -99q-18 -56 -37 -119t-36 -120q-17 -59 -30.5 -103.5t-21.5 -65.5h-175q-6 21 -20 65t-31 103q-16 57 -35 120t-36 119t-30.5 99.5t-19.5 60.5h146q5 -16 12.5 -45t17.5 -65q9 -36 19.5 -77.5t22.5 -82.5q10 -42 20 -80t23 -68q15 44 32 107
t31 124q17 61 29.5 112.5t20.5 74.5h145v0z" />
    <glyph glyph-name="w" unicode="w" horiz-adv-x="713" 
d="M677 520q-4 -17 -11.5 -60.5t-16.5 -99.5q-8 -56 -17.5 -119t-17.5 -120q-10 -59 -16 -103t-10 -65h-172q-5 15 -12 43l-16 64t-18.5 75t-20.5 73q-12 -34 -23 -73t-20 -75q-13 -36 -21 -64t-13 -43h-172q-4 21 -11.5 65.5t-14.5 103.5q-9 57 -19 120t-17 119
q-9 56 -16 99t-11 60h125l69 -395q11 36 24 82t24 88q16 49 29 99h142q12 -50 23 -98q12 -41 24 -86t20 -78l59 388h127z" />
    <glyph glyph-name="x" unicode="x" horiz-adv-x="581" 
d="M363 233q32 -44 62.5 -90t57.5 -85q24 -39 41.5 -68t24.5 -38h-158q-7 9 -18 28.5t-26 42.5q-16 24 -32.5 49.5t-32.5 51.5q-18 -26 -35 -51.5t-32 -49.5q-15 -23 -26.5 -42.5t-17.5 -28.5h-160q6 9 24 38t44 68q27 39 58 85t63 90q-30 41 -59.5 86t-56.5 85
q-26 40 -45 70.5t-28 44.5h160q7 -12 18.5 -32.5t26.5 -42.5q16 -26 32.5 -52.5t33.5 -48.5q15 22 31 48.5t32 52.5q14 22 26 42.5t19 32.5h159q-9 -14 -28.5 -44.5t-43.5 -70.5q-27 -40 -56 -85t-58 -86z" />
    <glyph glyph-name="y" unicode="y" horiz-adv-x="536" 
d="M492 521v-487q0 -120 -53.5 -173t-168.5 -53h-188v134h124h72t46 7q17 7 25.5 19.5t8.5 32.5h-108q-120 1 -173 54t-53 169v297h136v-233q0 -53 3.5 -83t20.5 -47q15 -16 47.5 -20t87.5 -4h39v387h134z" />
    <glyph glyph-name="z" unicode="z" horiz-adv-x="547" 
d="M500 84v-131h-425q-18 0 -27.5 5t-13.5 12q-5 8 -6 15.5t-1 14.5q0 8 -0.5 23.5t0.5 31.5q0 16 2 29t7 18l254 288h-258v130h425q15 0 20 -4.5t5 -14.5v-26.5t-1 -35.5q-1 -20 -4 -36.5t-9 -22.5l-278 -296h310z" />
    <glyph glyph-name="braceleft" unicode="{" horiz-adv-x="313" 
d="M309 668h-61q-9 0 -15 -5t-9 -14q-5 -9 -6.5 -20.5t-1.5 -23.5v-178q0 -24 -6 -44t-16 -36q-10 -15 -23 -26.5t-26 -19.5q28 -13 49 -44.5t22 -84.5l1 -170q0 -23 7 -43t25 -20h61v-105h-85q-24 0 -47.5 9.5t-45.5 28.5q-19 19 -33.5 46t-14.5 63l-1 173q0 21 -7.5 38.5
t-20.5 30.5q-15 12 -31 19t-29 8v102q12 1 28 7t31 18q13 10 21 26.5t8 39.5v184q0 35 14 62.5t33 47.5q20 19 44.5 28t48.5 9h86v-106z" />
    <glyph glyph-name="bar" unicode="|" horiz-adv-x="218" 
d="M164 -60v-30t1 -32q0 -16 0.5 -32.5t2.5 -28.5h-129q0 12 1 28.5t2 32.5t1 32v30v715q0 26 -1 60.5t-3 63.5h129q-2 -14 -2.5 -30t-0.5 -33q-1 -17 -1 -33v-28v-715z" />
    <glyph glyph-name="braceright" unicode="}" horiz-adv-x="313" 
d="M-3 774h82q24 0 48 -9t44 -28q20 -20 32.5 -47.5t12.5 -62.5v-184q0 -23 9 -39.5t22 -26.5q13 -12 29 -18t34 -7v-102q-19 -1 -35 -8t-29 -19q-13 -13 -21.5 -30.5t-8.5 -38.5v-173q0 -36 -13 -63t-34 -46q-20 -19 -45.5 -28.5t-45.5 -9.5h-83v105h56q20 0 25.5 20
t5.5 43l1 170q1 53 22.5 84.5t50.5 44.5q-13 8 -26 19.5t-22 26.5q-12 16 -18.5 36t-6.5 44v178q0 12 -1.5 23.5t-3.5 20.5q-3 9 -9.5 14t-16.5 5h-55v106z" />
    <glyph glyph-name="asciitilde" unicode="~" horiz-adv-x="570" 
d="M541 310q-20 -45 -59 -75t-95 -30q-34 0 -64.5 10t-59.5 24q-25 10 -48.5 24t-52.5 14q-14 0 -28.5 -8.5t-26.5 -21.5q-15 -14 -25 -31t-17 -33l-58 107q9 17 23 36t35 34q18 15 43 24t55 9q28 0 61.5 -10.5t62.5 -23.5q27 -11 49.5 -23.5t50.5 -12.5q14 0 29 8t28 21
t24.5 29.5t15.5 33.5z" />
    <glyph glyph-name="uni007F" 
d="M0 -58z" />
    <glyph glyph-name="uni0080" 
d="M0 -58z" />
    <glyph glyph-name="uni0081" 
d="M0 -58z" />
    <glyph glyph-name="uni0082" 
d="M0 -58z" />
    <glyph glyph-name="uni0083" 
d="M0 -58z" />
    <glyph glyph-name="uni0084" 
d="M0 -58z" />
    <glyph glyph-name="uni0085" unicode="&#x85;" 
d="M0 -58z" />
    <glyph glyph-name="uni0086" 
d="M0 -58z" />
    <glyph glyph-name="uni0087" 
d="M0 -58z" />
    <glyph glyph-name="uni0088" 
d="M0 -58z" />
    <glyph glyph-name="uni0089" 
d="M0 -58z" />
    <glyph glyph-name="uni008A" 
d="M0 -58z" />
    <glyph glyph-name="uni008B" 
d="M0 -58z" />
    <glyph glyph-name="uni008C" 
d="M0 -58z" />
    <glyph glyph-name="uni008D" 
d="M0 -58z" />
    <glyph glyph-name="uni008E" 
d="M0 -58z" />
    <glyph glyph-name="uni008F" 
d="M0 -58z" />
    <glyph glyph-name="uni0090" 
d="M0 -58z" />
    <glyph glyph-name="uni0091" 
d="M0 -58z" />
    <glyph glyph-name="uni0092" 
d="M0 -58z" />
    <glyph glyph-name="uni0093" 
d="M0 -58z" />
    <glyph glyph-name="uni0094" 
d="M0 -58z" />
    <glyph glyph-name="uni0095" 
d="M0 -58z" />
    <glyph glyph-name="uni0096" 
d="M0 -58z" />
    <glyph glyph-name="uni0097" 
d="M0 -58z" />
    <glyph glyph-name="uni0098" 
d="M0 -58z" />
    <glyph glyph-name="uni0099" 
d="M0 -58z" />
    <glyph glyph-name="uni009A" 
d="M0 -58z" />
    <glyph glyph-name="uni009B" 
d="M0 -58z" />
    <glyph glyph-name="uni009C" 
d="M0 -58z" />
    <glyph glyph-name="uni009D" 
d="M0 -58z" />
    <glyph glyph-name="uni009E" 
d="M0 -58z" />
    <glyph glyph-name="uni009F" 
d="M0 -58z" />
    <glyph glyph-name="uni00A0" unicode="&#xa0;" horiz-adv-x="282" 
d="M0 -58z" />
    <glyph glyph-name="exclamdown" unicode="&#xa1;" horiz-adv-x="950" 
d="M421 519h77l14 -268v-373h-107v373zM520 601h-121v124h121v-124z" />
    <glyph glyph-name="cent" unicode="&#xa2;" 
d="M0 -58z" />
    <glyph glyph-name="sterling" unicode="&#xa3;" horiz-adv-x="950" 
d="M272 330v321h95v-240q23 21 47 43t46 41l61 -65l-154 -138v-285h400v-87h-495v287q-15 -13 -32.5 -28.5t-31.5 -26.5l-57 72z" />
    <glyph glyph-name="currency" unicode="&#xa4;" horiz-adv-x="950" 
d="M459 517q-47 0 -86.5 -18t-66.5 -51q-31 -32 -48 -73.5t-17 -87.5q0 -44 16 -84.5t45 -72.5q28 -33 67.5 -53t89.5 -20q46 0 85 18.5t70 50.5q29 30 46.5 72t17.5 89q0 42 -16.5 83t-45.5 75q-29 32 -69.5 52t-87.5 20zM170 -78l-60 62l103 110q-26 41 -43 90.5
t-17 102.5q0 113 60 195q-25 24 -52 53t-51 55l60 66l105 -111q79 63 184 63t183 -61l53 54l52 55l60 -66l-103 -107q33 -41 47.5 -89.5t14.5 -106.5q0 -56 -15 -104t-47 -92l52.5 -52.5t50.5 -54.5l-60 -62l-102 105q-41 -32 -85.5 -47t-100.5 -15q-106 0 -187 64z" />
    <glyph glyph-name="yen" unicode="&#xa5;" 
d="M0 -58z" />
    <glyph glyph-name="section" unicode="&#xa7;" horiz-adv-x="950" 
d="M452 687q74 1 112 -57q10 -15 16 -29.5t6 -24.5q0 -29 -19 -40q-21 -14 -43 -14t-39 29q-7 15 -10.5 31t-3.5 29q0 -1 -25 -1q-12 1 -17 -11t-7 -35q-1 -33 21.5 -67.5t63.5 -69.5q54 -43 78.5 -93t18.5 -105q-3 -32 -17.5 -49t-31.5 -25q11 -20 22 -50.5t11 -57.5
q0 -23 -4.5 -45.5t-16.5 -46.5q-37 -68 -112 -66q-33 0 -61.5 13.5t-47.5 35.5q-43 48 -21 92q23 48 75 26q28 -14 34 -33.5t-3 -44.5l8 -4t8 -2q19 0 28 15t9 33q0 27 -15.5 55.5t-35.5 49.5q-12 11 -24.5 24t-23.5 28q-14 14 -25.5 27.5t-20.5 25.5q-13 19 -20.5 41.5
t-7.5 43.5q0 32 13 61.5t47 46.5q-16 22 -27 51.5t-13 57.5q-2 75 32.5 114t88.5 41zM492 287q-14 24 -34 41.5t-37 19.5q-15 3 -17 -5t0 -19q2 -13 8 -24.5t12 -17.5q21 -30 43 -46t33 -17q14 0 14 16q0 11 -8 27t-14 25z" />
    <glyph glyph-name="dieresis" unicode="&#xa8;" horiz-adv-x="950" 
d="M755 835v-136h-134v136h134zM295 835v-136h-133v136h133z" />
    <glyph glyph-name="copyright" unicode="&#xa9;" 
d="M0 -58z" />
    <glyph glyph-name="ordfeminine" unicode="&#xaa;" horiz-adv-x="950" 
d="M743 -79h-570v88h570v-88zM663 191q0 -11 3 -25.5t6 -29.5q3 -14 6 -27t5 -20h-98l-13 47q-8 -8 -19 -14t-22 -13q-28 -15 -58 -25t-62 -12q-33 -2 -66.5 4.5t-62.5 23.5q-30 18 -48.5 46t-20.5 67q-2 36 7 64t25 50q34 41 92 59q28 8 55.5 12.5t54.5 8.5q29 4 56.5 10
t57.5 16q1 2 3 7.5t2 11.5q0 24 -10 39.5t-27 28.5q-15 11 -35.5 16t-43.5 5q-60 0 -89.5 -28t-31.5 -90h-94q0 96 56 154q59 58 159 58q44 0 82 -12.5t68 -35.5q29 -25 46 -59.5t17 -81.5v-255zM566 335q-25 -8 -53.5 -13.5t-56.5 -8.5q-18 -3 -44 -5.5t-49 -11.5
q-25 -8 -39.5 -24.5t-14.5 -44.5q1 -32 30 -49t74 -13q23 3 51.5 13.5t53.5 26.5q22 17 35 35t13 35v60z" />
    <glyph glyph-name="guillemotleft" unicode="&#xab;" 
d="M0 -58z" />
    <glyph glyph-name="logicalnot" unicode="&#xac;" 
d="M0 -58z" />
    <glyph glyph-name="degree" unicode="&#xb0;" horiz-adv-x="950" 
d="M324 693q0 28 11 54t29 45q17 19 42 30t53 11q27 0 52 -11t44 -30q17 -19 28 -45t11 -54q0 -30 -11 -55.5t-28 -43.5q-37 -41 -96 -41t-95 41q-18 18 -29 43.5t-11 55.5zM417 694q0 -20 12.5 -32.5t29.5 -12.5q18 0 29 12.5t11 32.5q0 19 -11 31.5t-29 12.5
q-17 0 -29.5 -12.5t-12.5 -31.5z" />
    <glyph glyph-name="uni00B2" unicode="&#xb2;" horiz-adv-x="950" 
d="M515 604q-12 -6 -21.5 -13.5t-20.5 -14.5h107v-87h-243q1 49 19 84t65 69q28 21 44 31q10 8 16 17t6 17q0 23 -22 23q-15 0 -20 -17t-6 -38h-91q1 36 8.5 60.5t18.5 39.5q31 39 91 39q28 0 49.5 -8.5t35.5 -22.5q13 -16 20 -35t7 -41q0 -20 -6 -36t-14 -28
q-10 -13 -21.5 -22t-21.5 -17z" />
    <glyph glyph-name="uni00B3" unicode="&#xb3;" horiz-adv-x="950" 
d="M345 691q1 60 34 91.5t80 31.5q23 0 43.5 -8t34.5 -21q16 -15 25 -32.5t9 -37.5t-4.5 -35t-14.5 -25q12 -14 19.5 -30.5t7.5 -35.5q0 -46 -31.5 -76t-87.5 -30q-54 0 -88 36q-35 37 -35 93h81q0 -19 11 -31.5t25 -12.5q33 0 33 24q0 9 -4.5 18t-17.5 9h-39l1 69h29
q16 0 20.5 7t4.5 14q0 21 -34 21q-15 0 -23.5 -12.5t-10.5 -26.5h-68z" />
    <glyph glyph-name="acute" unicode="&#xb4;" horiz-adv-x="950" 
d="M527 685q-14 -23 -36.5 -50.5t-47.5 -54.5q-25 -31 -50.5 -57.5t-47.5 -47.5q6 26 16 61t23 73q10 37 21.5 72t22.5 61q7 15 17 35t26 36q13 15 32 21t41 -7q22 -12 26 -29.5t-2 -37.5q-5 -20 -17.5 -40t-23.5 -35z" />
    <glyph glyph-name="paragraph" unicode="&#xb6;" horiz-adv-x="950" 
d="M678 715v-857h-114v768h-34v-768h-114v455q-38 4 -70 21t-56 45q-23 26 -36.5 61t-13.5 75q0 39 15 75t39 64q27 27 61.5 44t76.5 17h246z" />
    <glyph glyph-name="periodcentered" unicode="&#xb7;" horiz-adv-x="200" 
d="M162 412v-135h-133v135h133z" />
    <glyph glyph-name="uni00B9" unicode="&#xb9;" horiz-adv-x="950" 
d="M444 495v190h-57v82q18 0 33.5 1.5t20.5 6.5t7 12.5t4 26.5h79v-319h-87z" />
    <glyph glyph-name="ordmasculine" unicode="&#xba;" horiz-adv-x="950" 
d="M682 416q0 -50 -15 -101t-44 -90q-28 -41 -72.5 -66t-103.5 -25q-57 0 -100 22.5t-72 63.5q-30 38 -44.5 89t-14.5 106q0 48 14 97.5t44 90.5q29 41 72.5 67.5t101.5 26.5q59 0 102.5 -23.5t71.5 -62.5q29 -39 44.5 -89.5t15.5 -105.5zM743 -22h-570v90h570v-90zM591 415
q0 31 -8 64t-24 62q-18 27 -45 45t-64 18q-34 0 -60 -17.5t-43 -43.5q-18 -29 -26.5 -62.5t-8.5 -65.5q0 -30 7 -64t24 -60q17 -29 42.5 -47.5t62.5 -18.5q36 0 63 17t45 45q17 26 26 60.5t9 67.5z" />
    <glyph glyph-name="guillemotright" unicode="&#xbb;" 
d="M0 -58z" />
    <glyph glyph-name="onequarter" unicode="&#xbc;" horiz-adv-x="950" 
d="M126 329h666v-75h-666v75zM271 -97v79l204 254h79v-241h63v-92h-63v-74h-98v74h-185zM456 72q-16 -22 -30.5 -38t-32.5 -39h63v77zM424 347v238h-84v90q28 2 49.5 4.5t29.5 7.5q7 5 11.5 18t4.5 36h85v-394h-96z" />
    <glyph glyph-name="onehalf" unicode="&#xbd;" horiz-adv-x="950" 
d="M615 94q0 -47 -22.5 -76t-52.5 -50q-16 -11 -32 -19.5t-29 -18.5q-16 -9 -28.5 -20t-21.5 -24h186v-84h-323q1 35 10 63.5t22 50.5q8 13 18 24t24 21q12 13 30 24.5t44 24.5q11 8 25.5 16t24.5 18q12 10 20 22.5t8 28.5q0 22 -15 35t-41 13q-36 0 -49 -23t-14 -61h-95
q2 37 11 68t29 55q19 23 48.5 36.5t70.5 13.5q38 0 67 -11.5t48 -29.5q37 -40 37 -97zM424 347v238h-84v90q28 2 49.5 4.5t29.5 7.5q7 5 11.5 18t4.5 36h85v-394h-96zM126 329h666v-75h-666v75z" />
    <glyph glyph-name="threequarters" unicode="&#xbe;" horiz-adv-x="950" 
d="M392 513q0 -16 3 -31.5t10 -26.5q8 -11 21 -18t31 -7q29 0 46.5 15t17.5 39q0 11 -8 19t-20 13q-10 5 -25 7t-26 2h-40l1 83h37q10 0 23 2t21 7q10 4 16.5 13.5t6.5 22.5q0 15 -12.5 27.5t-39.5 12.5q-52 0 -52 -74h-95q0 39 11 68.5t32 49.5q20 19 48 28.5t58 9.5
q27 0 54.5 -8t50.5 -23q19 -16 31.5 -39.5t12.5 -53.5q0 -47 -33 -79q47 -34 47 -88q0 -61 -44.5 -99.5t-116.5 -38.5q-34 0 -63.5 10t-54.5 32q-46 40 -46 125h97zM271 -97v79l204 254h79v-241h63v-92h-63v-74h-98v74h-185zM456 72q-16 -22 -30.5 -38t-32.5 -39h63v77z
M126 329h666v-75h-666v75z" />
    <glyph glyph-name="questiondown" unicode="&#xbf;" horiz-adv-x="950" 
d="M680 135q2 -56 -10.5 -105t-38.5 -87q-29 -34 -72 -54.5t-106 -20.5q-40 0 -79 14.5t-67 40.5q-32 25 -51 62t-19 82q0 69 35 124q15 25 36 45.5t45 35.5q23 13 40.5 36.5t17.5 57.5v142h96v-140q0 -62 -25.5 -104t-68.5 -67q-36 -19 -60 -50t-24 -85q0 -26 13 -45.5
t32 -33.5q19 -11 42 -17.5t43 -6.5q37 0 62 13.5t41 37.5q13 24 19 55.5t5 69.5h94zM521 582h-121v124h121v-124z" />
    <glyph glyph-name="AE" unicode="&#xc6;" horiz-adv-x="950" 
d="M538 116h-316l-80 -196h-102l300 731h529v-89h-410l87 -219h305v-90h-269l101 -246h194v-87h-258zM258 204h243l-59 147q-15 35 -29.5 71t-31.5 80z" />
    <glyph glyph-name="Eth" unicode="&#xd0;" horiz-adv-x="950" 
d="M338 306h255v-88h-255v-153h137q57 0 102 21.5t77 58.5q31 38 48.5 88.5t17.5 109.5q0 55 -16 105.5t-46 89.5q-30 38 -76.5 60t-106.5 22h-137v-314zM241 218h-145v88h145v403h243q77 0 138.5 -28.5t104.5 -78.5q44 -49 68 -116t24 -143q0 -73 -22 -140t-66 -117
t-105.5 -79.5t-141.5 -29.5h-243v241z" />
    <glyph glyph-name="Oslash" unicode="&#xd8;" horiz-adv-x="950" 
d="M346 86q23 -17 49.5 -24t56.5 -7q60 0 100.5 24.5t66.5 65.5t39 93t13 107q0 98 -38 172zM573 594q-48 40 -121 40q-55 0 -95.5 -26t-67.5 -66q-26 -42 -39 -93.5t-13 -103.5q0 -113 45 -190zM224 67q-45 52 -66.5 122t-21.5 156q0 75 19.5 144t60.5 122q39 53 98.5 85.5
t137.5 32.5q50 0 95.5 -14.5t82.5 -40.5l85 130l77 -50l-101 -146q35 -50 56.5 -119t21.5 -144q0 -70 -18.5 -138t-57.5 -123t-98.5 -89t-142.5 -34q-85 0 -161 45l-89 -135l-76 52z" />
    <glyph glyph-name="Thorn" unicode="&#xde;" horiz-adv-x="950" 
d="M460 -20q-54 0 -96 15.5t-74 41.5v-106h-104v825h104v-183q36 28 80 47t90 19q64 0 115.5 -28.5t84.5 -75.5q35 -48 54 -107t19 -119q0 -58 -18 -116.5t-51 -106.5q-33 -47 -84.5 -76.5t-119.5 -29.5zM454 533q-42 0 -71.5 -21t-49.5 -53q-18 -32 -27.5 -72t-9.5 -78
q0 -37 8.5 -76.5t26.5 -73.5q19 -32 48.5 -53.5t74.5 -21.5q43 0 73.5 20t49.5 53q20 33 28 73t8 79q0 36 -8 76t-27 72q-19 33 -49.5 54.5t-74.5 21.5z" />
    <glyph glyph-name="ae" unicode="&#xe6;" horiz-adv-x="950" 
d="M724 325q-6 60 -32 96t-74 36q-25 0 -43 -10.5t-33 -30.5q-13 -19 -21 -43t-11 -48h214zM400 230q-13 -5 -27 -6.5t-30 -4.5q-21 -6 -43.5 -8t-48.5 -10q-32 -9 -46.5 -33.5t-13.5 -45.5q2 -34 25 -51t58 -13q16 0 37.5 11t41.5 28q20 16 34 35t13 36v62zM618 -55
q-59 1 -104 36l4 -12l2 -4h-103q-7 16 -9.5 23.5t-4.5 11.5q-28 -20 -63.5 -36t-69.5 -18q-77 -4 -129 37q-25 20 -41 50t-17 71q-2 56 17 93t53 60q31 24 73.5 37t86.5 22q13 2 28.5 5t27.5 9q14 5 21.5 13.5t7.5 24.5q0 40 -25 66.5t-67 26.5q-41 0 -67.5 -30t-26.5 -91
h-105q-7 103 52 163q26 29 63.5 45t83.5 16q51 0 92.5 -21.5t69.5 -63.5q28 36 66 60t84 24q104 0 160 -84t56 -258h-328q2 -29 10 -58.5t22 -55.5q14 -25 33.5 -40t44.5 -15q41 0 64 29.5t37 77.5h112q-12 -38 -29.5 -77t-42.5 -70q-25 -30 -59 -49.5t-80 -17.5z" />
    <glyph glyph-name="eth" unicode="&#xf0;" horiz-adv-x="950" 
d="M294 193q6 -32 20.5 -60t37.5 -47q19 -23 46.5 -34.5t57.5 -11.5q31 0 57.5 11.5t49.5 34.5q18 19 32.5 47t22.5 60h-324zM425 300l-62 76l116 105q-6 1 -11.5 1.5t-11.5 0.5q-60 0 -97 -32.5t-55 -86.5h-112q12 49 35 90.5t58 70.5q34 30 76 46t95 15q29 0 57.5 -5.5
t55.5 -19.5q27 25 53.5 47t53.5 48l60 -74l-89 -82q38 -46 60.5 -108t22.5 -130q0 -61 -18 -119.5t-53 -103.5q-34 -46 -84.5 -73.5t-118.5 -27.5q-60 0 -111 24t-87 66q-38 42 -57.5 97t-19.5 119q0 7 0.5 15t2.5 32h438q-4 43 -18.5 77.5t-37.5 58.5z" />
    <glyph glyph-name="oslash" unicode="&#xf8;" horiz-adv-x="950" 
d="M251 51q-66 90 -66 220q0 61 17 119.5t53 104.5q34 46 85.5 73.5t118.5 27.5q37 0 70 -8t63 -29q14 23 30.5 47t30.5 47l73 -58l-65 -95q35 -46 53.5 -104t18.5 -125q0 -62 -18 -120t-52 -104t-86 -73.5t-118 -27.5q-41 0 -74 8.5t-63 28.5l-56 -80l-76 56zM380 75
q19 -14 38 -20.5t41 -6.5q41 0 72.5 20.5t53.5 52.5q19 32 30.5 71.5t11.5 78.5t-5.5 69.5t-21.5 58.5zM532 473q-15 9 -34.5 14.5t-38.5 5.5q-41 0 -71.5 -21t-54.5 -53q-20 -32 -31.5 -71t-11.5 -77q0 -36 7 -65t21 -57z" />
    <glyph glyph-name="thorn" unicode="&#xfe;" horiz-adv-x="950" 
d="M211 688h104v-236q36 30 77.5 43.5t95.5 13.5q46 0 86 -17t69 -48q31 -32 47.5 -73t16.5 -89v-399h-105v390q0 64 -35.5 99.5t-88.5 35.5q-31 0 -60 -11t-51 -31q-23 -20 -37.5 -45t-14.5 -50v-388h-104v805z" />
    <glyph glyph-name="Hbar" unicode="&#x126;" horiz-adv-x="950" 
d="M157 560v128h103v-128h398v128h107v-128h107v-98h-107v-579h-107v372h-398v-372h-103v579h-112v98h112zM260 462v-110h398v110h-398z" />
    <glyph glyph-name="hbar" unicode="&#x127;" horiz-adv-x="950" 
d="M276 551v138h107v-138h333v-97h-333v-87q30 26 72 41.5t101 15.5q47 0 88 -20t72 -54q28 -33 44 -75.5t15 -91.5v-299h-106v292q-2 28 -11 54.5t-24 46.5q-17 19 -40 31t-52 12q-27 0 -56 -14t-50 -34q-23 -23 -37.5 -50.5t-15.5 -52.5v-285h-107v570h-135v97h135z" />
    <glyph glyph-name="dotlessi" unicode="&#x131;" horiz-adv-x="950" 
d="M507 -53h-97v554h97v-554zM507 582h-97v98h97v-98z" />
    <glyph glyph-name="IJ" unicode="&#x132;" horiz-adv-x="950" 
d="M149 690h104v-806h-104v806zM424 179v-94q0 -29 9.5 -49.5t28.5 -36.5q17 -17 39 -23.5t41 -6.5q23 0 43.5 6.5t39.5 23.5q16 13 26 35t10 51v605h107v-600q0 -47 -16.5 -88.5t-45.5 -71.5q-28 -29 -70 -47t-94 -18q-47 0 -88.5 15.5t-72.5 44.5q-32 29 -49.5 71
t-13.5 96v87h106z" />
    <glyph glyph-name="ij" unicode="&#x133;" horiz-adv-x="950" 
d="M363 -52h-107v578h107v-578zM363 614h-107v108h107v-108zM659 622h-105v110h105v-110zM659 -102q0 -25 -5 -48.5t-15 -42.5q-13 -18 -33 -30t-50 -12h-67v97h37q16 0 22 9.5t6 28.5v635h105v-637z" />
    <glyph glyph-name="kgreenlandic" unicode="&#x138;" horiz-adv-x="950" 
d="M292 -111h-102v617h102v-258l250 258h131l-237 -261l292 -356h-130l-235 286l-71 -66v-220z" />
    <glyph glyph-name="Ldot" unicode="&#x13f;" horiz-adv-x="950" 
d="M640 294q13 0 25.5 -5.5t21.5 -15.5q22 -21 22 -50t-22 -48q-20 -22 -47 -22q-13 0 -26 5.5t-22 16.5q-11 9 -17 21.5t-6 26.5q0 13 6 26t17 24q10 10 22.5 15.5t25.5 5.5zM290 688v-708h440v-97h-543v805h103z" />
    <glyph glyph-name="ldot" unicode="&#x140;" horiz-adv-x="950" 
d="M547 474q70 0 70 -70q0 -69 -69 -69q-68 0 -68 69q2 70 67 70zM300 688h106v-805h-106v805z" />
    <glyph glyph-name="napostrophe" unicode="&#x149;" horiz-adv-x="950" 
d="M211 498h104v-40q71 58 173 58q46 0 86.5 -17.5t69.5 -49.5q30 -31 46.5 -72t16.5 -88v-401h-105v391q0 62 -35.5 98.5t-88.5 36.5q-31 0 -59.5 -11.5t-50.5 -30.5q-22 -20 -36.5 -45t-16.5 -51v-388h-104v610z" />
    <glyph glyph-name="Eng" unicode="&#x14a;" horiz-adv-x="950" 
d="M404 -100q44 3 81.5 22.5t63.5 46.5q27 30 41.5 70t14.5 90q0 40 -8 80t-28 72q-19 31 -49 51t-73 20q-39 0 -64.5 -20t-43.5 -50q-16 -31 -23 -69t-8 -76v-249h-109v756h109v-236q26 22 61.5 35.5t75.5 13.5q67 0 117.5 -28t85.5 -74q35 -48 53 -106.5t18 -119.5
q0 -148 -78.5 -232.5t-236.5 -96.5v100z" />
    <glyph glyph-name="eng" unicode="&#x14b;" horiz-adv-x="950" 
d="M602 283q0 63 -35.5 99t-88.5 36q-29 0 -56.5 -10t-51.5 -28q-24 -20 -39.5 -45t-15.5 -53v-389h-104v608h104v-41q36 30 78 45t95 15q46 0 86 -17.5t69 -48.5q31 -30 47.5 -71.5t16.5 -90.5v-364q0 -26 -5 -53t-18 -49q-13 -20 -35 -34t-54 -15h-85v95h41q25 0 38 15.5
t13 44.5v351z" />
    <glyph glyph-name="OE" unicode="&#x152;" horiz-adv-x="950" 
d="M852 598h-310q43 -44 67.5 -102t29.5 -135h197v-89h-197q-5 -82 -27.5 -148t-69.5 -116h318v-87h-512q-76 0 -131.5 31.5t-91.5 87.5t-52.5 124.5t-16.5 138.5q0 66 15.5 134.5t50.5 124.5q36 55 92 90t134 35h504v-89zM348 593q-56 0 -92.5 -27.5t-59.5 -69.5
q-23 -44 -33 -95t-10 -98q0 -44 9.5 -94.5t32.5 -92.5q22 -44 59.5 -73t93.5 -29q54 0 91.5 27.5t59.5 70.5q24 43 33.5 93.5t9.5 97.5q0 42 -9 92.5t-32 94.5q-21 44 -59 73.5t-94 29.5z" />
    <glyph glyph-name="oe" unicode="&#x153;" horiz-adv-x="950" 
d="M309 439q-30 0 -49.5 -18.5t-30.5 -45.5q-13 -29 -17.5 -60.5t-4.5 -60.5q0 -28 4.5 -60.5t17.5 -58.5q11 -30 30.5 -47t49.5 -17q27 0 46 18.5t32 46.5q11 27 15 59t4 59q0 28 -4 60t-15 60q-13 27 -32 46t-46 19zM702 317q-5 56 -28 89t-67 33q-19 0 -36 -11t-30 -27
q-25 -37 -31 -84h192zM309 536q52 0 88 -23t60 -69q27 41 64.5 66.5t85.5 25.5q92 0 144.5 -77t52.5 -235h-298q1 -27 8.5 -54t18.5 -49q13 -23 31 -36.5t41 -13.5q37 0 59 27t33 71h102q-9 -35 -25 -71t-39 -63q-23 -28 -54.5 -45t-73.5 -16q-45 1 -84 25t-64 69
q-26 -46 -63 -70t-87 -24q-54 0 -90.5 27t-59.5 69q-24 40 -34.5 89t-10.5 95q0 47 10 96t35 91q23 42 59.5 68.5t90.5 26.5z" />
    <glyph glyph-name="Tbar" unicode="&#x166;" horiz-adv-x="950" 
d="M405 284h-255v99h255v216h-255v98h618v-98h-255v-216h255v-99h-255v-400h-108v400z" />
    <glyph glyph-name="tbar" unicode="&#x167;" horiz-adv-x="950" 
d="M400 307v86h-55v100h55v166h105v-166h67v-100h-67v-86h176v-97h-176v-194q0 -19 3.5 -26.5t24.5 -7.5h39v-98h-74q-26 0 -44.5 11.5t-29.5 31.5q-14 18 -19 41.5t-5 49.5v192h-163v97h163z" />
    <glyph glyph-name="uni02BC" unicode="&#x2bc;" horiz-adv-x="267" 
d="M0 -58z" />
    <glyph glyph-name="uni02D0" unicode="&#x2d0;" horiz-adv-x="950" 
d="M461 347l-123 217h240zM456 225l122 -217h-240z" />
    <glyph glyph-name="dotaccent" unicode="&#x2d9;" horiz-adv-x="950" 
d="M457 522q-106 0 -106 109q0 111 106 111q107 0 107 -111q0 -109 -107 -109z" />
    <glyph glyph-name="ring" unicode="&#x2da;" horiz-adv-x="950" 
d="M459 646q-16 0 -27.5 -11.5t-11.5 -30.5t11.5 -30.5t27.5 -11.5q17 0 27.5 11.5t10.5 30.5t-10.5 30.5t-27.5 11.5zM459 740q26 0 50 -11.5t42 -29.5q17 -19 27.5 -44t10.5 -51q0 -25 -10.5 -50t-27.5 -45q-18 -18 -42 -30t-50 -12q-28 0 -51.5 12t-41.5 30
q-18 20 -27.5 45t-9.5 50q0 26 9.5 51t27.5 44q18 18 41.5 29.5t51.5 11.5z" />
    <glyph glyph-name="tilde" unicode="&#x2dc;" 
d="M0 -58z" />
    <glyph glyph-name="Alpha" unicode="&#x391;" horiz-adv-x="950" 
d="M592 618q8 13 19.5 21.5t24.5 8.5q12 0 24.5 -10.5t14.5 -30.5q15 -153 29 -304.5t32 -302.5q1 -7 2 -12.5t5 -8.5t10 -4.5t19 -1.5q28 0 40.5 -13t5.5 -34q-7 -23 -20 -32t-35 -9h-190q-47 0 -47 45q0 21 18.5 32t36.5 11q14 0 20.5 5t10.5 15q3 7 3 14.5v11.5l-9 95
h-220q-20 -31 -39 -61.5t-37 -61.5q-3 -7 -4.5 -12.5t11.5 -5.5q31 0 42.5 -13t5.5 -34q-7 -23 -21 -32t-34 -9h-168q-23 0 -34.5 8.5t-11.5 34.5q0 18 15.5 31.5t38.5 13.5q15 0 26.5 3.5t19.5 9.5q9 7 17.5 18t17.5 25zM597 206q-3 27 -5.5 53t-5.5 51q-4 16 -4.5 27
t-1.5 25q-4 22 -7 56l-131 -212h155z" />
    <glyph glyph-name="Beta" unicode="&#x392;" horiz-adv-x="950" 
d="M151 -115q-64 0 -48 53q6 18 19 26t35 8q13 0 24 -0.5t19 1.5q10 3 15 9t11 19q21 80 40.5 159t40.5 160l27 108l23 78q4 14 5 21t-3 10q-5 4 -14.5 4.5t-27.5 0.5q-46 0 -46 44q0 23 18 32.5t35 9.5h278q56 0 101.5 -12t74.5 -36q28 -26 37.5 -63t-4.5 -90
q-15 -50 -48.5 -91t-81.5 -65q36 -20 60 -50t24 -76q0 -72 -34.5 -121t-88.5 -82q-55 -28 -121.5 -42.5t-129.5 -14.5h-240zM421 310q62 0 97.5 2.5t57.5 12.5q23 8 44.5 21.5t37.5 32.5q19 19 28 41t9 48q0 30 -13 44t-37 21q-25 7 -57 8t-69 1h-24.5t-10.5 -3
q-4 -3 -7 -10t-6 -23q-6 -21 -17 -66.5t-33 -129.5zM346 7q-3 -13 -2.5 -19.5t11.5 -8.5q11 -4 35.5 -3.5t71.5 0.5q37 0 70 13.5t59 39.5q25 22 39 55t14 68q0 28 -19.5 42t-44.5 20q-28 7 -57 7.5t-50 0.5h-73z" />
    <glyph glyph-name="Gamma" unicode="&#x393;" horiz-adv-x="950" 
d="M337 525q3 13 -3.5 15t-22.5 2q-40 0 -54 12t-7 35q5 20 19 29.5t35 9.5h486q21 0 32 -4.5t15 -14.5q2 -9 -1 -24.5t-7 -37.5q-5 -21 -9 -46t-9 -49q-5 -25 -9.5 -46l-7.5 -35q-7 -23 -21.5 -32.5t-30.5 -9.5t-27 9t-11 35q0 19 3.5 39.5t3.5 42.5q0 57 -12 64
q-29 23 -208 23q-9 0 -15 -0.5t-10 -3.5q-5 -3 -7.5 -8.5t-5.5 -16.5q-21 -74 -39 -148.5t-37 -151.5q-13 -55 -27 -109t-28 -109q-6 -19 0 -21q3 -2 12.5 -2h28.5q30 0 41 -13.5t6 -34.5q-7 -39 -56 -39h-225q-33 0 -43 14t-5 40q6 18 21 25.5t46 7.5q15 0 25 0.5t17 6.5
q6 3 10.5 13.5t10.5 29.5z" />
    <glyph glyph-name="uni0394" unicode="&#x394;" horiz-adv-x="950" 
d="M568 419q-68 -112 -136 -220t-137 -219q-5 -7 -4 -8t11 -1h273q26 0 33 3t5 8zM667 607q18 -158 30.5 -267t21.5 -181q8 -72 12.5 -113.5t6.5 -61.5q3 -21 3.5 -27.5t0.5 -9.5q0 -24 -12.5 -42.5t-51.5 -19.5h-438q-34 0 -50 9t-16 39q0 22 28 67l384 619q9 16 21 23
t23 7q31 0 37 -42z" />
    <glyph glyph-name="Epsilon" unicode="&#x395;" horiz-adv-x="950" 
d="M659 152q8 17 18 22.5t23 5.5q20 0 35 -12.5t8 -34.5q-16 -54 -33.5 -109.5t-31.5 -106.5q-5 -16 -19.5 -24t-30.5 -8h-499q-59 0 -47 54q5 18 20 25.5t46 7.5q23 0 36 3t18 25q37 132 69.5 263t63.5 262q4 13 -4.5 15t-35.5 2q-47 0 -47 43q0 24 18 33.5t37 9.5h488
q33 0 42 -8.5t1 -41.5q-9 -48 -19.5 -103t-20.5 -100q-9 -30 -25.5 -44.5t-30.5 -14.5q-18 0 -24 12.5t-6 28.5q0 26 3.5 51t3.5 53q0 21 -3 37t-13 22q-30 22 -202 22q-22 0 -31 -3.5t-15 -25.5q-8 -32 -16 -65.5t-17 -69.5q-6 -19 -9 -34.5t-7 -34.5q37 1 59 3t32 9
q13 4 25 29.5t26 58.5q10 26 23.5 40.5t28.5 14.5q16 0 28 -18t3 -52l-68 -262q-8 -29 -23 -40.5t-28 -11.5q-14 0 -20 5.5t-9 13.5q-4 8 -4.5 17.5t-0.5 19.5q0 4 2 15t3 24v20t-4 11q-16 10 -97 13q-12 -58 -27.5 -112.5t-29.5 -112.5q-3 -13 -0.5 -17.5t17.5 -4.5
q97 0 153 5.5t77 19.5q21 11 45.5 49.5t45.5 105.5z" />
    <glyph glyph-name="Zeta" unicode="&#x396;" horiz-adv-x="950" 
d="M588 543q-71 0 -114 -6t-62 -17q-13 -11 -35.5 -52.5t-48.5 -107.5q-6 -14 -17.5 -20t-22.5 -6q-18 0 -33 12.5t-9 35.5q18 53 33 103t32 104q6 23 17.5 31.5t34.5 8.5h416q43 0 43 -30q0 -20 -22 -46q-134 -147 -262.5 -290t-261.5 -290h88q73 0 116.5 5t60.5 16
q14 8 36 51.5t49 108.5q5 14 18.5 16.5t30.5 -1.5q12 -6 22 -16t6 -21q-15 -53 -32 -109t-32 -106q-6 -16 -20.5 -23.5t-29.5 -7.5h-451q-43 0 -43 32q0 19 23 43q129 144 259.5 290t261.5 292h-51z" />
    <glyph glyph-name="Eta" unicode="&#x397;" horiz-adv-x="950" 
d="M613 313q6 17 9 34t9 34q17 63 30 123q8 22 2.5 30t-24.5 8h-13q-26 0 -39 12t-9 34q9 40 56 40h225q29 0 41.5 -14t3.5 -39q-13 -33 -52 -33q-18 0 -31 -0.5t-21 -5.5q-9 -6 -14.5 -17t-8.5 -29q-28 -111 -47.5 -188.5t-33.5 -129.5q-13 -53 -20.5 -83.5t-12.5 -47.5
t-7 -25t-3 -14q-2 -10 -3.5 -16t1.5 -9q2 -4 12 -4.5t28 -0.5q29 1 41 -13t7 -35q-3 -21 -18 -30t-37 -9h-225q-31 0 -42 14.5t-5 37.5q10 35 56 35q16 0 28 1.5t22 7.5q14 8 22 41l16 63q9 36 16.5 67.5t18.5 69.5h-281q-16 -52 -27.5 -103t-29.5 -109q-4 -16 -6.5 -23.5
t0.5 -10.5q2 -4 13 -4h30q31 0 43 -13.5t6 -34.5q-9 -39 -55 -39h-226q-28 0 -41 14t-6 39q6 18 18.5 26t36.5 8q18 0 30.5 0.5t20.5 6.5q7 3 11.5 13.5t9.5 29.5l92 350l35 137q2 12 3.5 18t-1.5 9q-4 4 -13.5 5t-27.5 1q-57 0 -49 46q4 23 18.5 31.5t37.5 8.5h226
q30 0 42.5 -13.5t2.5 -38.5q-14 -34 -55 -34q-18 0 -30.5 -1t-18.5 -6q-7 -6 -11 -17.5t-12 -29.5q-7 -24 -12 -44.5t-12 -41.5q-5 -21 -11 -42.5t-12 -46.5h283z" />
    <glyph glyph-name="Theta" unicode="&#x398;" horiz-adv-x="950" 
d="M551 649q67 0 116.5 -24t80.5 -64q31 -41 46 -94t15 -108q0 -59 -12 -107q-20 -69 -60 -136t-96 -121q-58 -54 -127 -86.5t-145 -32.5q-63 0 -113 23.5t-83 63.5t-49 91t-16 109q0 29 4 55t9 52q20 69 61 137.5t98 122.5q56 54 125.5 86.5t145.5 32.5zM542 554
q-45 0 -85 -18t-73 -49q-36 -32 -64.5 -72t-46.5 -85q-22 -46 -31.5 -91.5t-9.5 -87.5q0 -35 6 -68t27 -59q16 -24 43 -40t68 -16q60 0 108 26.5t87 67.5q36 45 62.5 98t41.5 107q6 26 10 53t4 55q0 33 -7 66t-25 58q-16 25 -44 40t-71 15zM374 215q-6 0 -6 -3
q-4 -10 -9 -20.5t-11 -20.5q-8 -11 -17 -16.5t-22 -5.5q-24 0 -32 10t-8 27q0 15 5 35l29 104q7 21 18.5 40t33.5 19q19 0 30.5 -18t9.5 -34q0 -3 0.5 -9t10.5 -6h147q6 0 10 7.5t8 15.5q6 15 16.5 30.5t32.5 15.5q38 0 38 -40q0 -17 -6 -40l-3 -12q-6 -22 -12.5 -45.5
t-15.5 -46.5q-7 -21 -17 -37.5t-32 -16.5q-28 0 -36 22q-4 10 -4.5 21.5t-0.5 23.5h-157z" />
    <glyph glyph-name="Iota" unicode="&#x399;" horiz-adv-x="950" 
d="M586 513q-39 -142 -64 -240t-39 -159q-17 -62 -24 -91t-8 -33q-4 -14 3 -16q5 -2 14 -2h24q64 0 49 -45q-9 -24 -21.5 -33t-35.5 -9h-226q-62 0 -47 53q4 18 18.5 26t38.5 8q22 0 35 0.5t19 6.5q7 3 9.5 14t8.5 30q21 77 40 152t38 153q13 44 22.5 86.5t21.5 88.5
q3 10 4.5 17.5t-0.5 12.5q-4 4 -13 6.5t-27 2.5q-63 0 -49 50q12 36 57 36h225q32 0 44.5 -13.5t2.5 -38.5q-9 -24 -27 -28.5t-36 -4.5q-20 0 -35.5 -4t-21.5 -26z" />
    <glyph glyph-name="Kappa" unicode="&#x39a;" horiz-adv-x="950" 
d="M290 117q-2 -15 -7.5 -35t-11.5 -38q-4 -22 -8.5 -39.5t-4.5 -27.5q0 -3 10 -3.5t35 -0.5q27 0 40.5 -13.5t6.5 -34.5q-9 -39 -55 -39h-224q-34 0 -45 14t-4 40q6 18 19 25.5t36 7.5q18 0 30.5 1t21.5 7q7 2 12.5 13t11.5 29l121 481q3 10 5 17.5t0 12.5q-3 4 -13 6.5
t-30 2.5q-46 0 -46 43q1 23 18.5 33t34.5 10h227q30 0 42.5 -14t4.5 -39q-6 -20 -19.5 -26.5t-34.5 -6.5t-33.5 -0.5t-20.5 -5.5q-6 -6 -11 -17.5t-11 -29.5l-42 -165q-2 -9 -3.5 -14.5t-2.5 -9.5q-1 -5 -2.5 -10.5t-4.5 -15.5q72 63 143.5 124.5t143.5 125.5q16 16 14.5 17
t-15.5 1q-45 0 -57.5 12t-4.5 38q11 36 52 36h240q32 0 42.5 -12.5t4.5 -34.5q-7 -22 -21.5 -30.5t-31.5 -8.5q-31 0 -52.5 -6t-43.5 -26l-245 -215q39 -74 75 -149t76 -148q8 -17 24.5 -21.5t40.5 -4.5q27 0 36.5 -14t5.5 -34q-3 -21 -17.5 -30t-34.5 -9h-248q-47 0 -47 46
q0 24 17.5 32.5t38.5 8.5q30 0 43 3t5 19l-112 221z" />
    <glyph glyph-name="Lambda" unicode="&#x39b;" horiz-adv-x="950" 
d="M574 418l-268 -438q-6 -6 -4 -7t16 -1q30 0 41.5 -13t5.5 -34q-7 -23 -20.5 -32t-34.5 -9h-168q-25 0 -38.5 13t-7.5 39q1 12 16 24t38 12q16 0 27 3.5t19 10.5q10 7 17 18t18 24l362 589q8 13 19 21.5t25 8.5q12 0 24 -10.5t14 -30.5l63 -623q1 -6 8 -8.5t26 -2.5
q28 0 41 -13t6 -34q-8 -23 -22 -32t-32 -9h-191q-26 0 -39 13t-9 37q7 18 22.5 28t31.5 10q22 0 31 3t7 20z" />
    <glyph glyph-name="Mu" unicode="&#x39c;" horiz-adv-x="950" 
d="M282 385q-11 -44 -22 -87t-21 -84q-12 -52 -25.5 -103t-26.5 -105q-2 -9 -4 -16.5t0 -8.5q2 -5 8.5 -6.5t21.5 -1.5q28 0 41 -13.5t6 -36.5q-4 -19 -16 -28.5t-38 -9.5h-187q-59 0 -46 53q10 35 53 35q15 0 26 0.5t17 4.5q7 4 9.5 13.5t8.5 28.5q34 122 64 242.5
t62 243.5q0 6 1 12t-1 11q-1 5 -7.5 8t-19.5 3q-23 0 -38 13t-11 35q5 20 21 30.5t35 10.5h153q27 0 33.5 -9.5t7.5 -35.5l42 -466q67 115 136.5 231t137.5 247q9 13 20 23t27 10h152q26 0 39.5 -14t7.5 -36q-3 -17 -15 -28t-39 -11q-34 0 -47.5 -2.5t-17.5 -24.5l-130 -504
q-5 -22 5.5 -29t30.5 -7q59 0 47 -50q-4 -19 -16 -28.5t-38 -9.5h-225q-32 0 -43.5 13.5t-4.5 40.5q10 34 55 34q18 0 31 1t22 7q7 2 11.5 13t10.5 30q21 83 41 165t44 166l-96 -166l-165 -280q-21 -38 -46 -38q-16 0 -26.5 10.5t-13.5 28.5z" />
    <glyph glyph-name="Nu" unicode="&#x39d;" horiz-adv-x="950" 
d="M406 596l187 -466q23 95 40 159.5t27 109.5q13 43 19 67t8 37q3 11 4 13.5t1 3.5q4 14 0 17t-29 3q-49 0 -49 45q0 22 18 33t40 11h185q31 0 43 -14t3 -40q-12 -35 -52 -35q-18 0 -28.5 -0.5t-15.5 -4.5q-11 -8 -17 -42q-38 -146 -74 -290.5t-77 -300.5q-4 -13 -17.5 -22
t-26.5 -9q-14 0 -25.5 8t-16.5 22l-215 533l-108 -429q-5 -16 -3 -24t28 -8q60 0 48 -50q-5 -19 -18.5 -28.5t-37.5 -9.5h-187q-28 0 -41 14t-6 39q12 35 55 35q15 0 26 1t18 7q6 2 9 11.5t8 27.5l124 486q3 10 5 16.5t1 11.5q-2 3 -9 4.5t-22 1.5q-24 0 -38.5 13t-8.5 35
q4 20 19.5 30.5t34.5 10.5h127q11 0 25 -10.5t19 -22.5z" />
    <glyph glyph-name="Xi" unicode="&#x39e;" horiz-adv-x="950" 
d="M135 -114q-24 0 -36 14.5t-7 36.5q5 33 16 64l27 136q3 16 14.5 28t24.5 15q14 2 23 -2t15 -13q11 -15 11 -35q0 -19 -4 -37t-4 -38q0 -43 23 -55q10 -7 28.5 -8.5t44.5 -1.5h176q44 0 72 8t46 27q20 20 32 48t29 69q9 26 21 36t28 10q8 0 15 -4.5t13 -11.5
q7 -10 8.5 -22t-3.5 -27l-64 -199q-7 -22 -18.5 -30t-32.5 -8h-498zM779 629q30 0 41 -11t3 -39q-12 -51 -21 -100t-23 -101q-4 -19 -15.5 -29.5t-25.5 -13.5q-12 -2 -21.5 3.5t-14.5 14.5q-5 10 -7 22t-1 24q1 13 2 27.5t1 26.5q0 48 -18 61q-12 7 -30 9t-45 2h-120
q-44 0 -71 -9t-45 -26q-19 -20 -32 -48.5t-28 -70.5q-9 -16 -21 -22.5t-25 -6.5q-11 0 -19.5 2.5t-13.5 8.5q-6 6 -9 14.5t2 18.5l66 206q5 16 18 26.5t32 10.5h441zM364 205q-2 0 -6 -4t-5 -7q-7 -18 -20.5 -36.5t-37.5 -18.5q-44 0 -40 36q7 35 17 70t19 69q7 26 20.5 43
t33.5 17q24 0 32 -18.5t6 -38.5q-2 -5 0.5 -7.5t15.5 -2.5h175q8 0 11 8t5 14q7 17 19.5 31.5t34.5 14.5q14 0 24 -6.5t13 -16.5t1 -24.5t-5 -29.5l-30 -97q-8 -26 -18 -44.5t-34 -18.5q-27 0 -33 17q-5 8 -6.5 18t-2.5 19q0 13 -17 13h-172z" />
    <glyph glyph-name="Omicron" unicode="&#x39f;" horiz-adv-x="950" 
d="M548 649q68 0 117.5 -24t80.5 -65q30 -41 45.5 -94t15.5 -108q0 -28 -3 -54t-9 -52q-20 -69 -59.5 -136t-96.5 -121q-58 -54 -126.5 -86.5t-145.5 -32.5q-69 0 -118 23.5t-79 61.5q-32 41 -46 93.5t-14 110.5q0 55 10 102q15 72 56 140.5t100 122.5q56 54 126.5 86.5
t145.5 32.5zM541 554q-58 0 -106 -26.5t-85 -71.5q-37 -44 -63.5 -97.5t-43.5 -106.5q-15 -51 -15 -103q0 -35 7 -67t28 -58q16 -24 43 -40t68 -16q59 0 107.5 26.5t86.5 67.5q37 45 63.5 98t41.5 107q12 53 12 106q0 34 -7 67t-25 58q-15 26 -43.5 41t-68.5 15z" />
    <glyph glyph-name="Pi" unicode="&#x3a0;" horiz-adv-x="950" 
d="M526 542q-28 0 -47.5 -0.5t-33.5 -5.5q-15 -4 -24 -16.5t-15 -30.5q-2 -5 -2.5 -11.5t-1.5 -11.5q-29 -107 -54.5 -215t-56.5 -216q-1 -10 -5 -20t-5 -20q-1 -11 4 -17t25 -6q31 0 42.5 -15t2.5 -36q-5 -18 -19.5 -27t-35.5 -9h-213q-59 0 -46 57q4 17 18.5 23.5
t35.5 6.5q23 0 35 2t21 8q8 9 13 24.5t12 43.5q30 113 59 225.5t55 227.5q3 10 4 17t-3 13q-6 9 -38 9q-60 0 -46 50q11 36 57 36h565q29 0 41.5 -12.5t5.5 -33.5q-7 -23 -20 -31.5t-36 -8.5q-20 0 -32.5 -1t-19.5 -7q-15 -10 -22 -45q-28 -110 -59.5 -227t-58.5 -226
q-7 -19 -10 -35.5t-3 -20.5q0 -6 10.5 -7t34.5 -1q32 0 44 -15t2 -37q-14 -35 -54 -35h-212q-64 0 -49 53q5 18 20 26t35 8q21 0 31.5 5t16.5 16q7 9 12 24t10 34q9 40 21 82t26 94l67 274q8 30 -18 36q-12 4 -33.5 4.5t-52.5 0.5z" />
    <glyph glyph-name="Rho" unicode="&#x3a1;" horiz-adv-x="950" 
d="M503 542q-15 0 -22 -3t-13 -26q-9 -30 -16.5 -58t-13.5 -57q-8 -29 -15.5 -57t-16.5 -59h79q42 0 81.5 10.5t72.5 33.5q31 21 49 54.5t18 81.5q0 38 -25.5 59t-75.5 21h-102zM606 628q41 0 80.5 -9t70.5 -29q32 -19 50.5 -51t18.5 -76q0 -55 -25.5 -104t-67.5 -85
q-43 -38 -97 -59.5t-112 -21.5h-138q-3 -16 -8 -29.5t-8 -27.5q-7 -35 -15.5 -70t-18.5 -66q-5 -18 -0.5 -23t38.5 -5q30 0 41.5 -13.5t8.5 -34.5q-10 -39 -56 -39h-227q-30 0 -41.5 14t-5.5 37q6 20 20 28t36 8q19 0 31 1t19 7q9 4 13 14t11 29q13 46 24.5 93t27.5 107
l76 301q5 14 -6.5 16t-25.5 2q-70 0 -56 50q11 36 54 36h288z" />
    <glyph glyph-name="Sigma" unicode="&#x3a3;" horiz-adv-x="950" 
d="M156 -115q-30 0 -45.5 9.5t-15.5 28.5q0 11 10.5 24.5t23.5 30.5l260 282l-59 144q-6 16 -18 39.5t-22 50.5q-12 25 -20 50t-8 44q0 25 14 32.5t45 7.5h452q18 0 28 -1t15 -7q4 -5 4 -15t-4 -27q-10 -49 -19.5 -98.5t-20.5 -100.5q-4 -23 -19 -35t-31 -12
q-15 0 -27.5 10.5t-11.5 33.5q0 15 1 30.5t1 30.5q0 69 -31 89q-15 11 -40 14t-61 3h-97q-26 0 -31 -18.5t1 -42.5q7 -26 18.5 -53t20.5 -46l34 -84q8 -16 6 -33t-25 -40l-240 -254q119 0 189.5 6t101.5 20q29 10 54.5 51.5t53.5 99.5q4 8 14.5 15t20.5 7q8 0 17 -4.5
l19 -9.5q5 -5 8.5 -13t2.5 -15q-14 -52 -30.5 -104t-34.5 -103q-5 -20 -21 -28.5t-30 -8.5h-453z" />
    <glyph glyph-name="Tau" unicode="&#x3a4;" horiz-adv-x="950" 
d="M744 629q24 0 34 -6t11 -22q1 -15 -4 -38t-11 -57q-7 -38 -14.5 -73.5t-13.5 -60.5q-7 -26 -22.5 -40.5t-31.5 -14.5q-12 0 -18.5 7.5t-12.5 18.5q-3 10 -3 22t1 21q7 18 10 44t3 50q0 22 -7.5 35t-19.5 20q-13 7 -31 8t-42 1q-16 0 -24 -2t-13 -16q-32 -121 -65 -253
t-65 -263q-6 -26 0 -31.5t38 -5.5q30 0 40.5 -13.5t4.5 -34.5q-6 -39 -53 -39h-227q-32 0 -41.5 14t-5.5 40q6 18 19 25.5t34 7.5q20 0 32 0.5t21 6.5q13 6 22 44q35 128 65.5 254.5t66.5 264.5q-2 1 -16 1q-37 0 -64.5 -5.5t-44.5 -17.5q-15 -14 -36.5 -54.5t-46.5 -106.5
q-6 -15 -16.5 -21t-24.5 -6q-17 0 -32.5 12.5t-9.5 34.5l63 210q7 23 21 31t35 8h495z" />
    <glyph glyph-name="Upsilon" unicode="&#x3a5;" horiz-adv-x="950" 
d="M610 514q-63 -44 -101 -104t-64 -129q-26 -70 -41.5 -144t-35.5 -143q-1 -6 -1.5 -10t1.5 -7q2 -2 9 -3t19 -1q29 0 40.5 -13.5t8.5 -34.5q-8 -39 -56 -39h-194q-63 0 -48 53q6 18 19 26t35 8q17 0 27 1t16 7q5 2 8.5 12.5t9.5 29.5q16 63 32 125t31 134q7 30 16 69.5
t9 76.5q0 23 -5 42.5t-16 35.5q-12 16 -31.5 24.5t-50.5 8.5q-45 0 -45 37q0 14 15.5 28.5t37.5 15.5q83 2 130.5 -28.5t65.5 -105.5q45 60 110 101q29 19 61.5 31t64.5 12q24 0 41.5 -8.5t28.5 -22.5q11 -16 14.5 -36t-1.5 -42q-3 -17 -12.5 -30.5t-22.5 -25.5
q-13 -10 -29 -15.5t-30 -5.5q-13 0 -24 5t-19 15q-11 9 -17 22t-6 28z" />
    <glyph glyph-name="Phi" unicode="&#x3a6;" horiz-adv-x="950" 
d="M467 54q38 8 70.5 28t59.5 49q51 58 76 133q10 32 10 61q0 48 -28 83.5t-84 51.5zM243 247q-8 -33 -8 -61q0 -49 27.5 -84t84.5 -52q12 47 23 93.5t24 96.5q11 50 25.5 104t28.5 114q-39 -10 -71.5 -30t-57.5 -46q-28 -29 -46 -62.5t-30 -72.5zM267 -44q15 0 21.5 2
t9.5 3q6 6 6 8q-44 9 -78.5 30t-60.5 52q-51 65 -51 149q0 61 26.5 116.5t73.5 101.5q48 47 108.5 79t122.5 47q-1 8 -10 10t-22 5q-12 3 -22.5 7t-14.5 20q-5 25 12 33.5t45 8.5h225q32 0 44.5 -13.5t1.5 -38.5q-7 -16 -21.5 -19t-32.5 -3h-29t-15 -10q45 -8 81.5 -30
t61.5 -53q54 -66 54 -151q0 -29 -8 -62q-16 -52 -47 -98.5t-76 -84.5q-44 -38 -96 -63t-107 -35q-2 -3 1 -6q3 -5 21 -5q32 0 41.5 -11.5t7.5 -26.5q-5 -19 -17.5 -26t-37.5 -7h-227q-60 0 -47 45q5 18 18.5 22t37.5 4z" />
    <glyph glyph-name="Chi" unicode="&#x3a7;" horiz-adv-x="950" 
d="M404 270l-89 242q-8 20 -19 25t-33 5q-70 0 -56 50q11 36 55 36h230q32 0 43.5 -12.5t4.5 -33.5q-7 -23 -20 -31.5t-36 -8.5q-29 0 -38 -1.5t-7 -8.5l57 -159l122 146q16 16 8 20q-4 3 -9 3q-47 0 -47 44q0 24 17.5 33t37.5 9h203q27 0 40.5 -12.5t6.5 -33.5
q-7 -23 -20.5 -31.5t-32.5 -8.5q-18 0 -30 -0.5t-21 -4.5q-10 -4 -18.5 -12.5l-21.5 -21.5l-198 -232l90 -249q15 -35 34 -42.5t38 -7.5q26 0 37.5 -14.5t7.5 -33.5q-5 -39 -53 -39h-242q-46 0 -46 46q0 23 27 30q11 4 23.5 5t23.5 1q18 -1 28.5 5.5t-0.5 30.5l-59 161
l-151 -171q-11 -13 -10.5 -17t29.5 -4q26 0 39.5 -15t3.5 -36q-5 -18 -19 -27t-34 -9h-215q-27 0 -36.5 14.5t-9.5 30.5q0 24 17.5 32.5t34.5 9.5q24 1 36.5 3.5t23.5 6.5q10 8 21 20.5t27 31.5z" />
    <glyph glyph-name="Psi" unicode="&#x3a8;" horiz-adv-x="950" 
d="M428 184q39 10 64 31t40 49q17 28 26 60.5t17 70.5q10 40 21.5 81t35.5 75q18 33 51 54.5t82 21.5q67 0 78 -47q8 -39 -8.5 -65t-54.5 -26q-18 0 -27 8.5t-14 18.5q-5 11 -8 17.5t-8 1.5q-11 -9 -18.5 -39t-8.5 -72q-10 -149 -84.5 -235.5t-209.5 -94.5l-24 -104
q-4 -18 6 -20.5t35 -2.5q63 0 48 -44q-10 -23 -22 -30.5t-35 -7.5h-225q-31 0 -43 14.5t-7 37.5q13 35 58 35q20 0 31.5 1t17.5 7q13 4 26 43l16 73q-35 2 -65.5 15.5t-53.5 34.5q-23 23 -36 53.5t-13 70.5q0 35 11 79.5t37 93.5v-1q15 35 23 59.5t10 41.5q0 4 -10 3
q-6 -2 -11.5 -8.5t-12.5 -23.5q-8 -22 -24 -28.5t-30 -1.5q-17 4 -27.5 19t-10.5 40q0 22 8 38t25 26q15 10 34.5 15t37.5 5q48 0 78.5 -21t36.5 -74q3 -30 -6.5 -78.5t-28.5 -96.5q-11 -27 -19 -58.5t-8 -47.5q0 -31 22.5 -49t52.5 -24l93 361q0 3 -10 3h-35q-49 0 -49 43
q1 23 19 33t38 10h220q29 0 41.5 -14t3.5 -39q-7 -20 -19.5 -26.5t-33.5 -6.5q-19 0 -30 -0.5t-18 -5.5q-5 -6 -8.5 -17.5t-11.5 -29.5v1z" />
    <glyph glyph-name="uni03A9" unicode="&#x3a9;" horiz-adv-x="950" 
d="M831 395q0 -64 -24.5 -125t-65.5 -113t-94 -87.5t-115 -51.5l-8 -28q23 0 40.5 1t34.5 7q15 5 27 15.5t21 33.5l-1 -2q5 15 12 27q9 9 17.5 17t19.5 8q31 -1 38.5 -15.5t1.5 -40.5v1q-5 -18 -8 -32.5t-7 -28.5q-3 -14 -8 -28t-12 -31q-5 -18 -15 -27.5t-35 -9.5h-247
l52 209q57 3 103 31t81 71q33 43 52 96t19 108q0 68 -39.5 112t-116.5 44q-49 0 -94 -19.5t-81 -51.5q-38 -33 -64.5 -76t-36.5 -89q-6 -19 -7 -36.5t-1 -35.5q0 -29 4.5 -56.5t18.5 -48.5q16 -22 42.5 -35t67.5 -15l-52 -208h-218q-24 0 -36.5 15t-8.5 38l17 81q2 9 3 17.5
t2 17.5q3 8 4 17t2 20q4 14 16.5 23t26.5 9q16 0 31 -14q-23 34 -33.5 73t-10.5 80q0 19 2.5 36.5t8.5 34.5q18 62 60 117.5t98 101.5q53 43 117.5 68t130.5 25q57 0 105.5 -18.5t85.5 -49.5q36 -34 56.5 -80.5t20.5 -101.5zM289 20q-37 11 -56 32.5t-39 49.5q4 -6 4 -15
q0 -29 1.5 -48t11.5 -31q14 -22 70 -18q2 6 4 15t4 15z" />
    <glyph glyph-name="alpha" unicode="&#x3b1;" horiz-adv-x="950" 
d="M466 461q35 0 72 -20q42 -26 58 -62q7 15 15.5 30t21.5 26q12 11 25.5 14.5t31.5 -3.5q16 -8 24.5 -19.5t5.5 -29.5q-2 -19 -19 -50.5t-42 -71.5q-17 -31 -36 -64t-34 -68q-7 -12 -9.5 -33.5t-2.5 -34.5t7.5 -18.5t15.5 -7.5q33 -6 52 -21.5t5 -39.5q-12 -21 -35 -33
t-53 -6q-25 3 -49.5 16t-36.5 37q-13 -11 -28.5 -22.5t-32.5 -21.5t-35 -15t-35 -5q-36 0 -65.5 16.5t-49.5 41.5q-23 26 -32.5 59.5t-7.5 67.5q3 42 23.5 100t56.5 112q16 26 36.5 49t46.5 41q23 16 50 26t56 10zM492 365q-29 10 -73 -32q-22 -23 -41 -50.5t-33 -56.5
q-16 -30 -24 -60.5t-8 -61.5q0 -9 3 -20.5t7 -22.5q6 -10 15 -16t22 -6q27 0 54 30q51 54 72 109t28 118q2 27 -3.5 45t-18.5 24z" />
    <glyph glyph-name="beta" unicode="&#x3b2;" horiz-adv-x="950" 
d="M479 -62q-46 -2 -85 10.5t-70 51.5q-10 -49 -18.5 -82.5t-17.5 -54.5q-9 -23 -22 -31t-31 -4q-22 4 -32.5 21.5t-5.5 45.5q12 69 31 155t43 175q21 88 45 170t47 142q13 34 28 62t38 50q19 19 46 31t62 12q39 0 73 -16t60 -42q24 -27 38.5 -63t14.5 -78q0 -23 -6.5 -48.5
t-19.5 -50.5q-13 -26 -31.5 -47t-39.5 -33q9 -13 15.5 -31t11.5 -36q5 -21 6.5 -41.5t-0.5 -36.5q-2 -36 -15.5 -75.5t-37.5 -73.5q-23 -36 -54 -58t-73 -24zM551 204q0 11 -2.5 24.5t-6.5 25.5q-4 11 -8.5 23t-7.5 19q-19 0 -37.5 4t-36.5 12q-15 10 -24.5 22.5t-6.5 31.5
q4 22 15.5 30t31.5 8q16 0 36 -5t36 -11q14 -2 25.5 9t21.5 29q9 16 13.5 34t5.5 30q4 42 -5 70.5t-42 38.5q-35 8 -64 -19t-49 -81q-30 -93 -54.5 -193t-31.5 -197q11 -27 40 -47q27 -23 59 -21q24 1 41 19t28 43q11 26 16.5 52.5t6.5 48.5z" />
    <glyph glyph-name="gamma" unicode="&#x3b3;" horiz-adv-x="950" 
d="M341 382q-11 3 -19 0.5t-14 -8.5q-9 -6 -15 -14t-11 -15q-11 -18 -26 -30.5t-38 -4.5q-8 4 -14 13.5t-6 22.5q0 12 5.5 29.5t18.5 39.5q19 40 56.5 58t79.5 14q60 -6 93.5 -55.5t33.5 -126.5v-59q30 48 55.5 94t54.5 92q8 14 20 25t25 20q30 13 58 -11q16 -12 19 -25.5
t1 -29.5q-2 -15 -11.5 -29.5t-19.5 -27.5q-56 -63 -104.5 -132.5t-89.5 -143.5q-14 -29 -28 -63.5t-26 -72.5q-10 -26 -23 -49.5t-26 -39.5q-15 -15 -30.5 -19.5t-35.5 5.5q-24 11 -33 33t-3 48q1 9 14 30.5t28 47.5q18 27 36.5 56t31.5 54l-1 145q0 56 -14 88.5t-42 40.5z
" />
    <glyph glyph-name="delta" unicode="&#x3b4;" horiz-adv-x="950" 
d="M532 247q0 18 -4 39t-12 39q-11 16 -26 27.5t-42 11.5q-30 0 -53.5 -24.5t-39.5 -57.5q-17 -34 -24 -71t-7 -67q0 -18 3.5 -40t13.5 -42q10 -18 26.5 -29t40.5 -11q33 0 55 25t39 60t23.5 73.5t6.5 66.5zM555 422q54 -56 76.5 -110.5t22.5 -102.5q0 -45 -16.5 -93
t-45.5 -91q-29 -41 -71.5 -66t-94.5 -25q-54 0 -94.5 20t-66.5 52q-30 35 -45.5 78.5t-15.5 90.5q0 45 15 87.5t41 82.5q27 38 64 64.5t79 38.5q-16 26 -28.5 55t-12.5 63q0 23 8 46.5t25 41.5q16 15 37 27t46 12q43 0 84 -22.5t77 -55.5q33 -33 54.5 -72.5t21.5 -76.5
q0 -11 -6.5 -21.5t-14.5 -18.5q-9 -10 -20 -15t-24 -5q-12 0 -23.5 7t-21.5 19q-7 11 -15 23.5t-14 28.5q-9 16 -18 34t-20 34q-12 15 -24.5 25.5t-29.5 10.5q-7 0 -17 -3t-10 -20q0 -19 9.5 -38.5t23.5 -36.5q14 -20 31 -36z" />
    <glyph glyph-name="epsilon" unicode="&#x3b5;" horiz-adv-x="950" 
d="M535 364q-2 13 -9 20t-20 11q-12 4 -26.5 5t-31.5 1q-30 0 -52.5 -17.5t-22.5 -46.5q0 -21 11.5 -33t27.5 -19q17 -8 37 -10t37 -2h30t25 -6q11 -3 17.5 -11.5t6.5 -28.5q0 -26 -18.5 -34t-46.5 -8q-18 0 -24 1.5t-11 1.5q-52 1 -79 -21.5t-27 -57.5q0 -38 30.5 -59.5
t86.5 -21.5q27 0 49 12.5t24 43.5q2 33 22 56q10 11 23.5 17t33.5 3q28 -5 42.5 -31t6.5 -54q-10 -32 -30 -55.5t-48 -41.5q-29 -17 -62 -26.5t-67 -9.5q-39 0 -80.5 8.5t-73.5 28.5q-34 19 -56 50t-22 76q0 41 19.5 72t55.5 54q-26 18 -43.5 45t-17.5 63q0 39 19 65.5
t49 44.5q28 17 62.5 26.5t65.5 9.5q30 0 65 -3.5t67 -16.5q30 -13 53 -35.5t30 -60.5q7 -27 -8.5 -46.5t-38.5 -27.5q-37 -6 -56 14.5t-25 54.5z" />
    <glyph glyph-name="zeta" unicode="&#x3b6;" horiz-adv-x="950" 
d="M468 698q13 -16 14.5 -28t-5.5 -23t-19.5 -22.5t-25.5 -22.5q-17 -14 -29 -28t-12 -25q0 -3 2 -6.5t8 -4.5q12 -4 25.5 0t25.5 10q15 8 27 17.5t23 18.5q14 13 27 24.5t29 22.5q15 10 31.5 16.5t37.5 6.5q41 0 54 -33q10 -21 0.5 -43t-30.5 -41q-18 -21 -41 -36.5
t-37 -22.5q-29 -17 -62.5 -31t-67.5 -19q-18 -22 -37.5 -50.5t-37.5 -57.5q-16 -31 -27.5 -62.5t-11.5 -61.5q0 -41 27.5 -67t75.5 -26q64 -1 101.5 -27t47.5 -84q6 -38 -9.5 -67t-44.5 -50q-28 -23 -62 -34.5t-67 -11.5q-13 0 -35 1t-41 7q-20 7 -35 19.5t-15 35.5t22.5 41
t68.5 16q18 0 35.5 -4t40.5 -4q12 0 24 2t14 11q1 6 -5.5 13t-19.5 8q-40 5 -79.5 15t-69.5 31q-32 22 -51.5 54.5t-19.5 82.5q0 41 10 80.5t29 76.5q15 38 36 73.5t42 66.5q-25 16 -39.5 43t-14.5 62q0 30 17 60.5t48 56.5q8 8 22 17t29 15q16 6 30 3.5t27 -14.5z" />
    <glyph glyph-name="eta" unicode="&#x3b7;" horiz-adv-x="950" 
d="M323 335q-1 15 -7.5 24.5t-20.5 6.5q-18 -5 -34 -2t-25 13q-9 9 -10.5 22.5t6.5 30.5q11 22 35 31t54 5q30 -3 52 -18t38 -41q26 24 58 42t65 18q39 0 69.5 -13t48.5 -37q41 -49 41 -120q0 -25 -7 -63t-18 -80l-28 -86t-31 -81q-14 -38 -27.5 -67.5t-23.5 -42.5
q-19 -26 -38.5 -36t-46.5 3q-36 18 -36 49q0 20 8.5 44t23.5 50q14 25 27.5 50.5t22.5 49.5q8 25 19 54.5t23 58.5q8 30 14 60.5t6 59.5q0 19 -11 38t-40 19q-17 0 -34.5 -15t-33.5 -33q-17 -24 -27.5 -46.5t-17.5 -40.5q-13 -41 -21 -83t-24 -85q-19 -62 -47.5 -93.5
t-56.5 -19.5q-36 15 -36 59q0 17 10 47t31 61q12 22 23 48t17 55q8 25 10.5 52t-0.5 52z" />
    <glyph glyph-name="theta" unicode="&#x3b8;" horiz-adv-x="950" 
d="M547 693q44 -10 72 -36t49 -61q17 -37 24 -80t7 -89q0 -48 -7 -93t-16 -80q-18 -48 -41 -103.5t-56 -103.5t-76 -78.5t-101 -30.5q-54 0 -89 24t-58 67q-22 41 -30.5 91t-8.5 102q0 90 18 154q7 30 22 68t35 76q22 38 49 73t59 61q32 25 69 36t79 3zM531 602
q-21 6 -40 -4.5t-37 -31.5q-15 -22 -30.5 -49t-25.5 -54q-11 -28 -20 -52.5t-13 -39.5h203q4 25 5.5 51t1.5 48q0 16 -2 37.5t-7 39.5q-4 21 -13 37t-22 18zM343 285q-4 -21 -9 -59t-4 -80q1 -41 11.5 -74t37.5 -42q22 -8 42.5 0.5t35.5 30.5q18 20 32.5 49t27.5 61
q11 30 19 60t12 54h-205z" />
    <glyph glyph-name="iota" unicode="&#x3b9;" horiz-adv-x="950" 
d="M505 417q25 -6 37 -26t5 -45q-9 -35 -21.5 -70.5t-29.5 -70.5q-17 -42 -32 -85t-24 -96q-5 -18 22 -24q7 -2 15 -1t19 9q18 13 29 22t20 9q20 0 34 -31q8 -19 -2 -40.5t-40 -45.5q-24 -23 -52 -29.5t-52 -4.5q-30 3 -50 18t-32 36q-13 22 -16 49.5t0 54.5q10 51 22 97
t27 93l24 90q6 18 13 36.5t18 31.5q9 13 25.5 20.5t40.5 2.5z" />
    <glyph glyph-name="kappa" unicode="&#x3ba;" horiz-adv-x="950" 
d="M393 403q25 -6 38.5 -18t13.5 -38q0 -22 -10.5 -46t-21.5 -47q-4 -10 -8.5 -20.5t-8.5 -22.5q17 1 29.5 10t20.5 22q9 13 16 27t13 24q13 27 31 48.5t36 37.5q21 15 41.5 22t44.5 4q30 -5 53 -26.5t22 -64.5q-1 -34 -22.5 -48t-45.5 -14q-16 0 -30 9t-24 22
q-8 -6 -15.5 -17.5t-12.5 -21.5q-12 -26 -26 -50t-41 -44q14 -15 22.5 -34t8.5 -37q0 -39 0.5 -60t6.5 -23q10 -4 18 4.5t13 18.5q16 32 33.5 45.5t44.5 3.5q12 -7 17.5 -18t5.5 -23t-4 -23.5t-7 -22.5q-23 -42 -54.5 -71t-79.5 -29q-33 0 -53.5 10.5t-32.5 33.5
q-15 21 -18.5 51t-3.5 67v21.5t-1 19.5q-1 10 -3 16t-6 6q-6 0 -12.5 0.5t-12.5 1.5q-6 -25 -13 -51t-9 -46q-7 -29 -13 -53t-16 -44q-9 -19 -27.5 -25.5t-44.5 3.5q-28 11 -31.5 39.5t8.5 57.5q6 13 13.5 39.5t16.5 60.5q12 32 22 68t19 74q11 33 19 65t12 53q11 63 69 53z
" />
    <glyph glyph-name="lambda" unicode="&#x3bb;" horiz-adv-x="950" 
d="M377 570q0 27 14 40t35 17q19 3 41 -2.5t40 -17.5q52 -39 70 -91.5t18 -112.5q0 -6 -0.5 -12.5t-0.5 -19.5t-0.5 -33.5t-0.5 -51.5q0 -61 5.5 -117t35.5 -111l30 -65q8 -16 12 -30t4 -21q0 -10 -4 -21.5t-13 -20.5t-18.5 -15t-24.5 -6q-20 0 -36 18t-28 41
q-14 23 -22.5 47t-10.5 39q-15 44 -19 88.5t-5 100.5q-31 -52 -62 -106t-49 -121q-7 -26 -17.5 -47.5t-24.5 -38.5q-15 -16 -29.5 -23t-31.5 -1q-19 6 -33.5 21t-14.5 36t15.5 54t38.5 71q25 40 54 83t58 84q29 40 54.5 77t39.5 63q2 8 3 19t2 27q1 31 -16 51.5t-46 36.5
q-22 12 -34 21.5t-19 18.5q-6 8 -8 15.5t-2 15.5z" />
    <glyph glyph-name="uni03BC" unicode="&#x3bc;" horiz-adv-x="950" 
d="M229 -80q10 19 21.5 46.5t20.5 57.5q10 32 16 62.5t10 51.5q3 22 10 50t16 57q8 29 19 57t22 53h-1q18 41 43.5 55t56.5 -3q28 -17 28 -53q0 -29 -12.5 -59t-29.5 -55q-24 -51 -48 -104t-34 -115q7 -12 20.5 -23.5t32.5 -6.5q36 6 56.5 27t29.5 42q27 67 42 135.5
t33 138.5q6 12 13 27t18 25q9 11 23 16t32 1q24 -7 33.5 -23t9.5 -34q0 -19 -5.5 -39t-10.5 -33q-9 -28 -24 -59t-28 -62q-13 -33 -25 -66t-16 -63q-1 -5 2 -10.5t11 -5.5q6 0 12.5 4.5t11.5 7.5q7 9 16.5 15.5t25.5 6.5q17 0 24 -16.5t-1 -42.5q-6 -17 -15.5 -34t-26.5 -29
q-15 -16 -33.5 -20.5t-37.5 1.5q-23 6 -37 17.5t-23 23.5q-30 -23 -57.5 -33.5t-56.5 -10.5q-25 0 -43 4.5t-35 20.5q-4 -11 -5 -24t-2 -28q-2 -26 -10.5 -43t-20.5 -28q-11 -12 -24 -16.5t-25 -1.5q-21 7 -32.5 22t-11.5 37q0 13 4 34t18 45z" />
    <glyph glyph-name="nu" unicode="&#x3bd;" horiz-adv-x="950" 
d="M348 401q49 17 77 -47q10 -22 14.5 -50t4.5 -57q0 -25 -3.5 -52t-9.5 -56q-6 -28 -15.5 -54.5t-18.5 -46.5q34 19 65 47t58 61q24 34 39.5 71.5t16.5 76.5q1 58 19.5 85t42.5 21q32 -13 32 -64q0 -16 -1.5 -38.5t-9.5 -47.5q-10 -55 -31.5 -105t-52.5 -94
q-33 -46 -76 -80.5t-96 -57.5q-32 -16 -59.5 -22.5t-48.5 -6.5q-25 0 -38 13q-20 28 10 83q10 21 21 49.5t22 57.5q9 30 14 60t5 55q0 31 -7 61t-12 65q-1 24 8 44t30 29z" />
    <glyph glyph-name="xi" unicode="&#x3be;" horiz-adv-x="950" 
d="M469 284q-30 3 -55 -7.5t-42 -28.5q-19 -19 -29 -42.5t-10 -46.5q0 -16 5.5 -29t15.5 -26q20 -23 66 -22q28 1 53.5 -6.5t46.5 -21.5q41 -32 45 -79q2 -33 -10.5 -59.5t-32.5 -45.5q-24 -20 -52.5 -31t-59.5 -11q-23 0 -40.5 10.5t-16.5 30.5q0 13 5.5 21.5t13.5 12.5
q8 6 18.5 9t19.5 5q21 4 36 8t10 21q-2 5 -8.5 8.5t-17.5 6.5q-12 4 -25 6.5t-26 5.5q-66 10 -105.5 57.5t-39.5 120.5q1 63 26 106t73 81q-14 16 -24.5 36.5t-10.5 45.5q0 51 23 82t51 49q0 10 1 21t3 21q14 53 58 81t97 28q31 0 46.5 -10t16.5 -35q2 -29 -21 -43t-76 -12
q-12 1 -19.5 -4t-11.5 -12q21 0 43 3t48 3q13 0 36 -3t46 -11q19 -10 33 -25t10 -41q-5 -25 -23.5 -35t-48.5 -10q-18 0 -36 4t-37 8q-17 3 -35.5 5t-38.5 2q-15 0 -28.5 -4t-24.5 -14q-23 -14 -23 -43q1 -31 30 -29q19 0 37.5 2t42.5 2q29 0 59 -3.5t52 -11.5
q25 -10 37.5 -26.5t6.5 -45.5q-6 -27 -25 -37.5t-46 -10.5t-55.5 7.5t-56.5 11.5z" />
    <glyph glyph-name="omicron" unicode="&#x3bf;" horiz-adv-x="950" 
d="M465 418q50 0 91.5 -21t72.5 -56q29 -37 46 -82.5t17 -91.5q0 -50 -17.5 -99.5t-48.5 -91.5q-32 -38 -76.5 -63.5t-99.5 -25.5q-49 0 -90.5 21t-72.5 53q-30 37 -46 81.5t-16 93.5q0 52 16.5 102t48.5 92q32 38 75.5 63t99.5 25zM441 -26q33 0 57.5 24t40.5 59
q15 35 22 74.5t7 66.5q0 24 -3 48t-15 43q-11 17 -29.5 29t-43.5 12q-36 0 -61 -20.5t-42 -52.5q-15 -31 -22 -67.5t-7 -69.5q0 -23 4.5 -48.5t16.5 -48.5q12 -22 30 -35.5t45 -13.5z" />
    <glyph glyph-name="pi" unicode="&#x3c0;" horiz-adv-x="950" 
d="M222 236q-14 10 -18 22t-3 25q6 26 24 51q7 13 22 23t31 18q15 8 34.5 11.5t39.5 4.5q41 4 82 0t89 -4q29 0 59 3t62 12q36 8 55.5 -6t17.5 -58q-5 -28 -16 -44t-31 -18q-30 -2 -54.5 -0.5t-50.5 -0.5q-13 -59 -22 -120t-9 -119q0 -5 1 -11.5t3 -13.5q7 -14 14 -11
q6 4 15.5 7t15.5 3q23 0 32.5 -14.5t4.5 -41.5q-2 -15 -15.5 -29.5t-30.5 -22.5q-19 -9 -38 -12.5t-37 2.5q-21 8 -36 22t-21 28q-8 19 -9.5 39.5t-0.5 41.5q6 65 19.5 126.5t19.5 128.5h-52q-5 -26 -10 -53t-11 -54q-9 -38 -18.5 -78t-21.5 -75q-7 -18 -14.5 -40t-19.5 -40
q-11 -19 -28 -32t-41 -13q-31 0 -42 18t-7 42q4 26 15.5 51t21.5 41q21 29 33 55.5t21 54.5q12 26 18.5 56t12.5 64q-13 -2 -28 -6.5t-20 -13.5q-11 -22 -28 -25t-30 6z" />
    <glyph glyph-name="rho" unicode="&#x3c1;" horiz-adv-x="950" 
d="M591 184q0 20 -5 43t-16 45q-9 20 -26.5 34.5t-42.5 14.5q-31 0 -54 -22t-41 -53q-14 -33 -21.5 -68.5t-7.5 -61.5q0 -20 5 -43.5t14 -42.5q9 -20 25.5 -33.5t41.5 -13.5q35 0 59.5 20t40.5 51q15 29 21.5 64.5t6.5 65.5zM477 -103q-49 0 -87.5 22.5t-68.5 60.5
q0 -27 3 -52.5t3 -52.5q0 -42 -13 -69q-7 -13 -20.5 -22t-34.5 -9q-27 0 -38 20.5t-11 60.5q0 73 11.5 145t27.5 143q11 44 29.5 90.5t48.5 83.5q28 39 68.5 64t94.5 25q48 0 88 -20t68 -53q30 -34 46 -77.5t16 -91.5q0 -45 -15.5 -93t-46.5 -88q-30 -38 -73.5 -62.5
t-95.5 -24.5z" />
    <glyph glyph-name="sigma" unicode="&#x3c3;" horiz-adv-x="950" 
d="M684 344q-5 -14 -14 -18.5t-19 -7.5q-12 -2 -25 -1t-26 1q34 -28 54.5 -69t20.5 -94q0 -33 -8.5 -67t-24.5 -66q-32 -57 -85 -97q-29 -19 -60 -29t-64 -10q-46 0 -82.5 18t-64.5 46q-26 31 -40.5 70.5t-14.5 83.5q0 49 18 101q17 37 42.5 73.5t59.5 67.5q36 30 77.5 49.5
t89.5 27.5q15 1 46.5 -1t61.5 -10q29 -8 48 -24t10 -44zM389 -16q22 -9 43 -2t42 23q18 17 33.5 37.5t24.5 40.5q31 59 30 115q0 32 -20 54t-54 22q-17 0 -33.5 -9t-32.5 -22q-17 -13 -30 -31t-23 -37q-10 -22 -17 -49t-7 -54q0 -26 9 -49.5t35 -38.5z" />
    <glyph glyph-name="tau" unicode="&#x3c4;" horiz-adv-x="950" 
d="M539 288q-9 0 -21 0.5t-22 0.5q-12 -32 -26.5 -66t-24.5 -68q-10 -36 -16.5 -68.5t-6.5 -58.5q0 -16 8.5 -22.5t20.5 -6.5q16 0 30 6.5t32 6.5q45 0 43 -41q-1 -22 -14.5 -36t-31.5 -26q-22 -10 -46 -15.5t-48 -4.5q-54 2 -80.5 30.5t-26.5 76.5t18 97.5t36 100.5
q9 31 18 56.5t12 37.5q-29 1 -55 -2t-40 -21q-15 -21 -30.5 -26.5t-34.5 11.5q-16 12 -13.5 38.5t24.5 61.5q20 27 52 39t76 12q40 0 79.5 -2t90.5 -2q29 0 49.5 3.5t34.5 8.5q34 16 53 -0.5t18 -61.5q-3 -30 -20.5 -42.5t-38.5 -15.5q-26 -4 -52.5 -2.5t-46.5 1.5z" />
    <glyph glyph-name="upsilon" unicode="&#x3c5;" horiz-adv-x="950" 
d="M278 322q0 45 16 66t52 21q37 0 50 -22.5t13 -51.5q0 -28 -7.5 -54t-13.5 -42q-11 -26 -22 -48t-20 -48q-12 -26 -18 -53t-6 -53q0 -23 15.5 -44.5t40.5 -24.5q20 -1 44.5 15.5t51.5 44.5q22 28 43.5 64.5t37.5 77.5q13 40 18 80.5t-5 76.5q-6 24 10 42.5t43 17.5
q20 -1 34.5 -11.5t22.5 -27.5q7 -16 10 -36.5t3 -39.5q0 -25 -3 -40q-7 -32 -21.5 -69.5t-35.5 -76.5q-23 -40 -48.5 -75.5t-57.5 -65.5q-32 -26 -66.5 -43.5t-72.5 -17.5q-83 0 -123.5 44.5t-34.5 121.5q3 34 10 67t17 67t16.5 68t6.5 70z" />
    <glyph glyph-name="phi" unicode="&#x3c6;" horiz-adv-x="950" 
d="M226 137q0 49 19.5 97.5t51.5 87.5q34 38 81.5 60t102.5 16q21 -2 33 -9.5t18 -17.5q2 0 6 0.5t6 0.5q33 0 61 -23t46 -57q21 -34 31.5 -71.5t10.5 -66.5q0 -50 -17 -94.5t-46 -80.5q-31 -37 -77 -59.5t-105 -25.5q-2 -9 -3 -17t-3 -16q-9 -52 -34 -69.5t-57 -5.5
q-21 9 -28 18.5t-7 24.5q0 25 10 46t20 47q-26 16 -48 40t-39 53q-17 28 -25 59t-8 63zM417 234q7 19 15 38t19 37q-30 -14 -56.5 -48t-42.5 -85q-4 -14 -5 -28.5t-1 -33.5q0 -28 4 -52t20 -46q15 55 23.5 108t23.5 110zM467 -14q24 12 43.5 34.5t33.5 51.5q14 27 21.5 57
t7.5 56q0 29 -8.5 55.5t-22.5 50.5q-8 -1 -14 -16.5t-13 -37.5q-8 -23 -12.5 -44.5t-7.5 -36.5z" />
    <glyph glyph-name="chi" unicode="&#x3c7;" horiz-adv-x="950" 
d="M396 151q-4 10 -5 37t-4 55q-3 27 -11 44.5t-19 14.5q-47 -58 -80 -17q-11 14 -8 37t19 45q16 21 41 36.5t55 15.5q45 1 72.5 -30.5t27.5 -85.5v-29v-10v-10q18 22 36.5 46t34.5 48q7 12 14.5 24t17.5 22q9 10 19 16t22 6q11 0 21.5 -5.5t23.5 -14.5q21 -20 21 -45
q0 -21 -19 -42t-40 -39q-35 -32 -69.5 -64t-63.5 -73q4 -19 10 -37.5t11 -38.5q1 -3 5 -14.5t10 -22.5q4 -11 12 -16.5t15 4.5q26 29 44 36t32 -14q13 -23 9.5 -44t-15.5 -44q-20 -24 -41 -38t-40 -17q-12 -2 -26.5 3.5t-32.5 15.5q-15 14 -29.5 29t-22.5 35
q-7 14 -10.5 29.5t-8.5 30.5q-26 -26 -47.5 -55.5t-49.5 -55.5q-18 -20 -43 -25t-46 19q-18 18 -14 40.5t19 40.5z" />
    <glyph glyph-name="psi" unicode="&#x3c8;" horiz-adv-x="950" 
d="M330 142l-10 -32.5t-9 -39.5q-2 -20 0 -39.5t14 -31.5q21 52 33 109t22 116q5 28 9.5 54.5t12.5 51.5q9 34 28 50.5t51 7.5q30 -8 38 -32.5t2 -52.5q-7 -28 -16 -53t-19 -52q-16 -44 -31.5 -90t-28.5 -93l-6 -22q84 48 96 160q5 44 15.5 84.5t31.5 72.5q5 12 15.5 24.5
t22.5 25.5q14 12 29 20t36 10q16 2 27 -3t18 -14q6 -10 6 -20.5t-8 -18.5q-10 -9 -18.5 -13t-17.5 -10q-29 -14 -34 -120q-9 -123 -74 -200q-33 -39 -79 -60.5t-87 -28.5q-2 -13 -6.5 -30.5t-6.5 -26.5q-7 -17 -14.5 -29.5t-19.5 -22.5q-13 -10 -26 -13.5t-34 2.5
q-9 2 -18 9t-17 16q-7 11 -8.5 23.5t4.5 25.5q5 9 11.5 15t12.5 12q6 4 10.5 10.5t8.5 16.5v2q-45 19 -70.5 59.5t-25.5 91.5q0 68 32 143q11 28 18.5 51t7.5 39q0 9 -5.5 17t-11.5 16q-7 5 -12 13t-5 19q0 19 13 29t48 0q35 -8 52 -34.5t20 -53.5q3 -31 -4.5 -74.5
t-22.5 -85.5z" />
    <glyph glyph-name="omega" unicode="&#x3c9;" horiz-adv-x="950" 
d="M334 369q14 12 33 18.5t35 7.5q16 0 29 -8.5t14 -31.5q0 -18 -16.5 -35t-41.5 -37q-19 -18 -33.5 -42.5t-23.5 -51.5q-8 -29 -12 -59t-3 -54q0 -13 1.5 -27t5.5 -28q3 -16 9 -27t17 -11q17 0 29.5 21t14.5 50q5 44 9 83t14 70q4 14 11.5 34t18.5 39q12 16 28.5 28.5
t40.5 7.5q21 -3 35 -22.5t14 -44.5q0 -34 -9.5 -63t-21.5 -56q-12 -32 -27.5 -67.5t-15.5 -69.5q0 -11 5.5 -19.5t19.5 -8.5q25 0 42.5 27t26.5 65q12 38 15 78.5t3 69.5q0 18 -3 33.5t-6 33.5q-4 16 -7.5 33t-3.5 34q0 13 3.5 24.5t8.5 16.5q27 23 55.5 2t48.5 -91
q18 -49 21 -105t-11 -108q-26 -96 -76 -149.5t-112 -53.5q-34 0 -57 14.5t-40 41.5q-17 -16 -40 -29.5t-56 -13.5q-36 0 -59.5 18.5t-37.5 45.5q-17 29 -23.5 63t-6.5 66q0 42 7 83t25 78q15 38 40 70.5t63 56.5z" />
    <glyph glyph-name="phi1" unicode="&#x3d5;" 
d="M0 -58z" />
    <glyph glyph-name="uni0401" unicode="&#x401;" horiz-adv-x="950" 
d="M173 681h563v-98h-458v-239h440v-100h-440v-270h466v-96h-571v803zM353 858q33 0 53 -21.5t20 -51.5t-20 -52.5t-53 -22.5q-28 0 -49.5 22.5t-21.5 52.5q0 15 5.5 28.5t16.5 23.5q10 10 22.5 15.5t26.5 5.5zM553 855q13 0 26.5 -5.5t22.5 -15.5q10 -10 15.5 -23.5
t5.5 -28.5q0 -33 -21 -51q-10 -12 -23 -17.5t-26 -5.5q-15 0 -27 5.5t-23 17.5q-11 9 -16 22.5t-5 28.5q0 31 21 52t50 21z" />
    <glyph glyph-name="uni0410" unicode="&#x410;" horiz-adv-x="950" 
d="M637 97h-357l-89 -214h-112l335 805h89l336 -805h-112zM322 196h274l-137 328z" />
    <glyph glyph-name="uni0411" unicode="&#x411;" horiz-adv-x="950" 
d="M268 -21h234q67 0 107 38t40 106q0 28 -11 51.5t-32 40.5q-42 36 -101 37h-237v-273zM704 588h-436v-239h225q58 0 106.5 -15.5t85.5 -45.5q37 -32 55.5 -78.5t15.5 -108.5q-5 -100 -78 -159q-37 -28 -88 -44t-114 -16h-315v805h543v-99z" />
    <glyph glyph-name="uni0412" unicode="&#x412;" horiz-adv-x="950" 
d="M161 -117v805h323q47 0 90.5 -13.5t75.5 -37.5q34 -26 54.5 -65t20.5 -91q0 -62 -17.5 -102t-54.5 -73q50 -32 78 -83.5t25 -119.5q-12 -94 -82 -158q-37 -28 -86.5 -45t-109.5 -17h-317zM268 -20h234q67 0 107 38t40 106q0 28 -11 52.5t-32 41.5q-19 16 -45.5 25.5
t-55.5 9.5h-237v-273zM268 350h225q56 0 92.5 28t36.5 88t-34.5 91.5t-93.5 31.5h-226v-239z" />
    <glyph glyph-name="uni0413" unicode="&#x413;" horiz-adv-x="950" 
d="M176 707h563v-99h-456v-725h-107v824z" />
    <glyph glyph-name="uni0414" unicode="&#x414;" horiz-adv-x="950" 
d="M187 61q12 29 22 63.5t21 74.5q9 40 14 80.5t7 79.5q4 49 6 100.5t5 102.5q2 49 2.5 94.5t0.5 83.5h465v-679h75v-291h-106v193h-483v-193h-103v291h74zM626 61v580h-257q0 -48 -2.5 -115.5t-6.5 -158.5q-12 -182 -61 -306h327z" />
    <glyph glyph-name="uni0415" unicode="&#x415;" horiz-adv-x="950" 
d="M173 687h563v-99h-458v-241h440v-97h-440v-271h466v-97h-571v805z" />
    <glyph glyph-name="uni0416" unicode="&#x416;" horiz-adv-x="950" 
d="M408 707h108v-406l276 406h126l-261 -382l320 -442h-131l-255 346l-75 -113v-233h-108v234l-81 116l-254 -350h-130l322 442l-264 382h125l282 -408v408z" />
    <glyph glyph-name="uni0417" unicode="&#x417;" horiz-adv-x="950" 
d="M287 127q5 -85 50.5 -121.5t128.5 -36.5q67 0 113 39q22 20 36 46.5t14 59.5q0 25 -10 47t-25 38q-18 16 -39 27.5t-42 15.5q-24 3 -55.5 3.5t-74.5 0.5v105q49 0 76.5 1t48.5 7q39 12 66 40.5t30 77.5q0 28 -11.5 52t-29.5 41q-42 35 -103 35q-64 0 -101 -31t-42 -98
h-105q2 58 21.5 100.5t53.5 72.5t78 45t100 15q48 0 92 -17.5t80 -46.5q34 -31 54 -73t18 -93q-1 -55 -18.5 -97.5t-60.5 -77.5q48 -32 77 -78t28 -113q-1 -59 -22.5 -105.5t-58.5 -77.5q-36 -32 -85 -48.5t-108 -16.5q-58 0 -108.5 16.5t-87.5 48.5q-39 33 -61.5 81
t-21.5 116h105z" />
    <glyph glyph-name="uni0418" unicode="&#x418;" horiz-adv-x="950" 
d="M155 -117v805h104v-615l402 615h101v-805h-104v616l-403 -616h-100z" />
    <glyph glyph-name="uni0419" unicode="&#x419;" horiz-adv-x="950" 
d="M149 -122v817h118v-599l391 599h111v-817h-118v600l-392 -600h-110zM669 852q-14 -43 -34.5 -78t-48.5 -60t-61 -40t-66 -15q-34 0 -67 15t-61 40q-56 52 -83 138h103q18 -38 46.5 -65.5t61.5 -27.5q17 0 32.5 7.5t30.5 21.5q12 12 23.5 28t18.5 36h105z" />
    <glyph glyph-name="uni041A" unicode="&#x41a;" horiz-adv-x="950" 
d="M220 -118h-104v805h104v-382l371 382h134l-303 -338l380 -467h-134l-324 393l-124 -111v-282z" />
    <glyph glyph-name="uni041B" unicode="&#x41b;" horiz-adv-x="950" 
d="M348 608v-511q0 -46 -8 -86t-27 -70q-21 -29 -57.5 -47.5t-96.5 -21.5v108q26 1 41 6.5t26 15.5q8 12 11.5 27t3.5 38v639h517v-823h-106v725h-304z" />
    <glyph glyph-name="uni041C" unicode="&#x41c;" horiz-adv-x="950" 
d="M716 -118v536l-210 -536h-97l-207 537v-537h-106v805h114l249 -645l249 645h112v-805h-104z" />
    <glyph glyph-name="uni041D" unicode="&#x41d;" horiz-adv-x="950" 
d="M658 254h-399v-372h-104v805h104v-336h399v336h104v-805h-104v372z" />
    <glyph glyph-name="uni041E" unicode="&#x41e;" horiz-adv-x="950" 
d="M459 709q88 0 153.5 -35.5t109.5 -94.5q43 -59 63.5 -135t20.5 -157q0 -83 -20.5 -159t-63.5 -135q-44 -57 -109.5 -92.5t-153.5 -35.5q-90 0 -154.5 35t-108.5 92q-42 59 -63 135t-21 160q0 81 21.5 157.5t65.5 135.5q42 59 106.5 94t153.5 35zM459 605
q-64 0 -108.5 -28t-73.5 -73q-30 -45 -43.5 -102t-13.5 -115t13.5 -114.5t44.5 -101.5q30 -48 74.5 -75.5t106.5 -27.5q63 0 107 27.5t75 75.5q30 46 43 102t13 114t-13 114t-43 102q-31 45 -75 73.5t-107 28.5z" />
    <glyph glyph-name="uni041F" unicode="&#x41f;" horiz-adv-x="950" 
d="M265 607v-725h-106v824h599v-824h-106v725h-387z" />
    <glyph glyph-name="uni0420" unicode="&#x420;" horiz-adv-x="950" 
d="M159 687h327q59 0 108 -18t87 -51q36 -34 56.5 -81.5t20.5 -105.5t-21 -103t-59 -77t-87 -49t-105 -17h-220v-303h-107v805zM266 284h221q36 1 65 9.5t52 27.5q22 17 34 44.5t12 65.5q0 37 -11.5 66.5t-34.5 49.5q-22 19 -51 29.5t-66 11.5h-221v-304z" />
    <glyph glyph-name="uni0421" unicode="&#x421;" horiz-adv-x="950" 
d="M800 156q-19 -63 -46.5 -116t-68.5 -93q-42 -38 -97 -59.5t-125 -21.5q-89 0 -154 35.5t-108 92.5q-43 59 -64 135t-21 159q0 81 21 157.5t64 135.5t107.5 93.5t154.5 34.5q67 0 122 -23t98 -60q42 -40 71 -93t48 -115h-111q-13 39 -33.5 73t-50.5 60q-27 26 -63 40.5
t-81 14.5q-61 0 -106 -28.5t-75 -73.5q-30 -46 -43 -102t-13 -114q0 -62 12.5 -118t42.5 -101q29 -46 73.5 -73t108.5 -27q44 0 79.5 15t62.5 39q30 26 49.5 60.5t30.5 72.5h115z" />
    <glyph glyph-name="uni0422" unicode="&#x422;" horiz-adv-x="950" 
d="M405 598h-255v98h618v-98h-255v-715h-108v715z" />
    <glyph glyph-name="uni0423" unicode="&#x423;" horiz-adv-x="950" 
d="M460 257l171 439h111l-273 -703q-10 -25 -21 -44t-28 -34q-17 -16 -37.5 -24t-52.5 -8h-55v98h61q10 0 18 9.5t12 23.5q10 25 19 48t18 48l-229 586h112z" />
    <glyph glyph-name="uni0424" unicode="&#x424;" horiz-adv-x="950" 
d="M506 58q49 7 91 26t73 52q27 29 45 71t18 96t-18 96t-45 72q-65 60 -164 76v-489zM410 547q-47 -7 -88.5 -26t-72.5 -51q-31 -30 -47.5 -71.5t-16.5 -95.5q0 -55 16.5 -96.5t47.5 -70.5q31 -33 72.5 -51t88.5 -27v489zM410 -45q-71 6 -131.5 34.5t-104.5 72.5
q-45 47 -70 108.5t-25 132.5q0 72 25 133t70 107q44 45 104.5 73.5t131.5 34.5v74h96v-74q72 -6 132 -34.5t106 -73.5q45 -46 70 -107t25 -133q0 -70 -25 -132t-70 -109q-46 -45 -106 -73.5t-132 -33.5v-73h-96v73z" />
    <glyph glyph-name="uni0425" unicode="&#x425;" horiz-adv-x="950" 
d="M459 206l-229 -324h-122l289 414l-272 391h122l210 -305l215 305h122l-273 -391l289 -414h-123z" />
    <glyph glyph-name="uni0426" unicode="&#x426;" horiz-adv-x="950" 
d="M236 -18h370v709h108v-709h74v-212h-107v116h-552v805h107v-709z" />
    <glyph glyph-name="uni0427" unicode="&#x427;" horiz-adv-x="950" 
d="M773 -118h-104v313q-47 -39 -106.5 -58.5t-122.5 -17.5q-47 2 -98.5 18.5t-95.5 47.5q-46 31 -74 78t-28 108v335h105v-296q0 -50 17.5 -83.5t46.5 -54.5q27 -23 64.5 -33t77.5 -13q33 -2 71 11t70 38q31 23 52 54t21 64v313h104v-824z" />
    <glyph glyph-name="uni0428" unicode="&#x428;" horiz-adv-x="950" 
d="M716 -21v727h104v-824h-724v824h106v-727h203v727h108v-727h203z" />
    <glyph glyph-name="uni0429" unicode="&#x429;" horiz-adv-x="950" 
d="M58 -115v824h107v-727h203v727h107v-727h203v727h104v-727h75v-223h-105v126h-694z" />
    <glyph glyph-name="uni042A" unicode="&#x42a;" horiz-adv-x="950" 
d="M371 303v-324h214q35 -2 65 11.5t51 37.5q23 22 35.5 52t12.5 61q0 32 -12.5 61.5t-36.5 51.5q-21 24 -51 37.5t-64 11.5h-214zM267 607h-206v99h310v-305h214q58 0 106.5 -19t86.5 -53q35 -35 56.5 -82.5t21.5 -105.5t-21.5 -106t-56.5 -83q-38 -32 -86.5 -51
t-106.5 -19h-318v725z" />
    <glyph glyph-name="uni042B" unicode="&#x42b;" horiz-adv-x="950" 
d="M193 -20h236q66 0 107 38t41 106q0 28 -12 52.5t-32 41.5q-18 16 -45.5 25.5t-56.5 9.5h-238v-273zM193 350h227q48 0 95 -14.5t84 -43.5q38 -30 61 -72.5t23 -100.5q0 -59 -20.5 -102.5t-57.5 -74.5q-77 -59 -201 -59h-317v805h106v-338zM724 688h106v-805h-106v805z
" />
    <glyph glyph-name="uni042C" unicode="&#x42c;" horiz-adv-x="950" 
d="M268 -20h234q67 0 107 38t40 106q0 28 -11 52.5t-32 41.5q-19 16 -45.5 25.5t-55.5 9.5h-237v-273zM268 350h225q56 0 104 -15t84 -45q36 -32 55.5 -77.5t19.5 -109.5q0 -48 -19.5 -88.5t-55.5 -72.5q-37 -26 -89 -42.5t-115 -16.5h-316v805h107v-338z" />
    <glyph glyph-name="uni042D" unicode="&#x42d;" horiz-adv-x="950" 
d="M289 236v101h401q-4 54 -20.5 102.5t-43.5 85.5q-30 37 -72.5 59t-99.5 22q-73 0 -131 -38q-29 -20 -50 -48t-30 -66h-116q45 127 123.5 192t202.5 65q89 0 154.5 -35t108.5 -93q40 -61 61 -136.5t21 -158.5t-21 -159t-62 -135q-43 -59 -108 -94t-153 -35
q-126 0 -211 63.5t-124 190.5h117q23 -75 81 -112.5t136 -37.5q55 0 97 21.5t70 59.5q28 37 46 84.5t24 101.5h-401z" />
    <glyph glyph-name="uni042E" unicode="&#x42e;" horiz-adv-x="950" 
d="M546 602q-59 0 -98 -29.5t-63 -75.5q-25 -48 -36 -103.5t-11 -109.5q0 -55 11 -111t36 -103q24 -48 63 -76.5t98 -28.5q58 0 97.5 29t64.5 78q25 47 36 102.5t11 109.5q0 55 -10.5 110.5t-35.5 103.5q-25 46 -65 75t-98 29zM161 333h71q2 71 23 138.5t60 118.5
q39 53 97.5 84.5t133.5 31.5q42 0 77.5 -9.5t66.5 -28.5q31 -17 55 -42t44 -55q39 -62 55.5 -136t16.5 -151q0 -78 -16.5 -152t-55.5 -135q-39 -60 -98 -97t-145 -37q-76 0 -134 31t-95 83q-40 52 -61.5 118.5t-23.5 138.5h-71v-352h-105v805h105v-354z" />
    <glyph glyph-name="uni042F" unicode="&#x42f;" horiz-adv-x="950" 
d="M343 215q-33 15 -61.5 37t-46.5 52q-20 29 -31 64.5t-11 74.5q0 53 20 98.5t57 78.5t84 51.5t103 16.5h336v-804h-107v311h-235l-206 -311h-121zM686 294v294h-224q-34 -1 -63.5 -10t-50.5 -25q-22 -18 -34 -45t-12 -65t12.5 -65t34.5 -46q21 -19 50.5 -28t62.5 -10h224z
" />
    <glyph glyph-name="uni0430" unicode="&#x430;" horiz-adv-x="950" 
d="M714 2q0 -11 2 -27t6 -33l6 -30t6 -23h-104q-7 14 -11 28.5t-9 24.5q-40 -28 -90.5 -49.5t-102.5 -23.5q-39 -3 -80 6.5t-73 27.5q-36 22 -58 53.5t-22 75.5q0 62 25 101.5t65 63.5q38 24 86 35.5t96 18.5q20 1 45 4t48 9q22 8 38.5 17.5t16.5 25.5q0 26 -12.5 46
t-32.5 33q-20 14 -45.5 20.5t-48.5 6.5q-29 0 -57 -8t-46 -24q-22 -17 -32.5 -44t-8.5 -63h-107q-3 58 17 103.5t57 75.5q36 32 82.5 47.5t94.5 15.5t92 -14.5t81 -42.5q34 -28 55 -68t21 -92v-297zM604 178q-27 -9 -63.5 -16t-69.5 -11q-27 -3 -59.5 -8t-58.5 -15
q-28 -11 -46 -31.5t-18 -54.5q0 -38 38 -56t97 -15q21 2 53.5 11.5t59.5 27.5q28 17 47.5 40.5t19.5 47.5v80z" />
    <glyph glyph-name="uni0431" unicode="&#x431;" horiz-adv-x="950" 
d="M455 406q-42 0 -72.5 -20.5t-51.5 -51.5q-21 -32 -31.5 -70.5t-10.5 -78.5t10.5 -78t30.5 -69q20 -33 51.5 -51.5t73.5 -18.5t73 19t52 52q20 31 30.5 69t10.5 77q0 40 -10.5 78.5t-30.5 70.5q-21 32 -52 52t-73 20zM299 601q74 62 172 62q24 0 47 -3t46 -1q18 2 35 14.5
t30 43.5h104q-7 -27 -12.5 -49t-17.5 -39q-18 -30 -59 -56q-19 -11 -38 -14.5t-42 -4.5q-22 -3 -45 -2.5t-47 0.5q-41 0 -77 -15t-60 -56q28 13 57.5 19t62.5 6q68 0 117.5 -26t84.5 -72q34 -46 51.5 -103.5t17.5 -119.5q0 -60 -17.5 -118t-51.5 -103q-35 -43 -84.5 -70.5
t-117.5 -27.5q-67 0 -117.5 27.5t-85.5 70.5q-34 46 -50.5 103.5t-16.5 117.5q0 55 2 111.5t13 111.5q12 56 34.5 105t64.5 88z" />
    <glyph glyph-name="uni0432" unicode="&#x432;" horiz-adv-x="950" 
d="M229 -111v617h239q40 0 75.5 -10.5t62.5 -30.5q28 -19 43 -48t15 -62q0 -31 -3.5 -53t-11.5 -38q-7 -16 -17 -27.5t-20 -23.5q37 -21 57.5 -58.5t17.5 -89.5q-2 -40 -19 -72.5t-45 -53.5q-27 -23 -65 -36.5t-83 -13.5h-246zM332 257h117q44 -3 77 17q16 10 26 23t10 33
q0 39 -31 58.5t-82 19.5h-117v-151zM332 -14h117q58 0 95 20q18 12 27.5 28t9.5 40q0 22 -11 38t-31 28q-17 11 -40 15.5t-48 1.5h-119v-171z" />
    <glyph glyph-name="uni0433" unicode="&#x433;" horiz-adv-x="950" 
d="M242 506h434v-98h-329v-519h-105v617z" />
    <glyph glyph-name="uni0434" unicode="&#x434;" horiz-adv-x="950" 
d="M259 141q17 47 27 100t14 110q7 56 8 112.5t1 111.5v47h354v-481h58v-256h-107v158h-311v-158h-107v256h63zM559 141v383h-147q0 -44 -0.5 -93t-5.5 -99q-3 -49 -11 -97.5t-24 -93.5h188z" />
    <glyph glyph-name="uni0435" unicode="&#x435;" horiz-adv-x="950" 
d="M457 525q66 0 115.5 -25.5t85.5 -71.5q36 -42 56 -97.5t20 -117.5q0 -13 -0.5 -22.5t-1.5 -17.5h-442q0 -37 14 -71.5t36 -61.5q23 -28 54 -44t63 -16q63 0 100.5 33.5t51.5 84.5h117q-19 -51 -43.5 -91.5t-56.5 -69.5q-34 -29 -74.5 -44t-94.5 -14q-67 1 -118 28.5
t-86 71.5t-52 102t-17 120t17.5 120t53.5 105q34 44 85 71.5t117 27.5zM620 270q-15 63 -56 108q-23 21 -49.5 33.5t-57.5 12.5q-30 0 -56.5 -13t-48.5 -32q-43 -45 -56 -109h324z" />
    <glyph glyph-name="uni0436" unicode="&#x436;" horiz-adv-x="950" 
d="M404 -112v205l-51 59l-202 -264h-132l266 342l-240 275h138l221 -251v251h108v-253l223 253h136l-239 -275l265 -342h-131l-204 264v-1l-50 -57v-206h-108z" />
    <glyph glyph-name="uni0437" unicode="&#x437;" horiz-adv-x="950" 
d="M344 114q3 -61 31 -98.5t90 -37.5q48 0 76 25.5t31 71.5q0 21 -9 37.5t-25 27.5q-15 11 -36.5 16.5t-47.5 5.5h-62l1 105h56q22 0 39.5 5t32.5 16q28 18 32 64q3 36 -24.5 59t-69.5 23q-48 0 -69.5 -28t-24.5 -83h-102q0 48 13.5 86.5t40.5 67.5q24 27 61 43t84 16
q80 0 138 -51q27 -26 42 -59t14 -74q-1 -47 -14 -78q-5 -17 -15.5 -29t-26.5 -26q35 -25 57 -62t21 -85q-2 -48 -19.5 -84.5t-45.5 -60.5q-31 -25 -69.5 -38t-83.5 -13q-49 0 -90 16.5t-72 48.5q-29 31 -45.5 74.5t-12.5 98.5h104z" />
    <glyph glyph-name="uni0438" unicode="&#x438;" horiz-adv-x="950" 
d="M321 -111h-94v617h103v-412l268 412h93v-617h-104v412z" />
    <glyph glyph-name="uni0439" unicode="&#x439;" horiz-adv-x="950" 
d="M658 656q-24 -83 -79 -132q-26 -26 -57 -39.5t-63 -13.5q-33 0 -63.5 13.5t-57.5 39.5q-54 49 -79 132h98q15 -36 43 -62t59 -26q30 0 58 26t44 62h97zM321 -116h-94v617h103v-413l268 413h93v-617h-104v410z" />
    <glyph glyph-name="uni043A" unicode="&#x43a;" horiz-adv-x="950" 
d="M296 75v-186h-105v617h105v-287l271 287h132l-264 -284l291 -333h-132l-232 254z" />
    <glyph glyph-name="uni043B" unicode="&#x43b;" horiz-adv-x="950" 
d="M399 408v-355q0 -41 -7 -72.5t-27 -52.5q-19 -24 -51 -34t-81 -11v98q37 1 48 15t11 43v467h393v-617h-106v519h-180z" />
    <glyph glyph-name="uni043C" unicode="&#x43c;" horiz-adv-x="950" 
d="M637 506h90v-617h-101v308l-135 -308h-65l-135 309v-309h-100v617h91l177 -432z" />
    <glyph glyph-name="uni043D" unicode="&#x43d;" horiz-adv-x="950" 
d="M581 162h-246v-274h-103v617h103v-245h246v245h105v-617h-105v274z" />
    <glyph glyph-name="uni043E" unicode="&#x43e;" horiz-adv-x="950" 
d="M459 524q66 0 118 -28.5t86 -71.5q34 -47 52 -105.5t18 -119.5t-18 -119t-52 -103q-34 -46 -86 -73t-118 -27q-67 0 -119 27t-87 73q-34 45 -51 102.5t-17 119.5t17 120.5t51 105.5q35 43 87 71t119 28zM459 422q-42 0 -73.5 -20.5t-52.5 -53.5q-20 -32 -31.5 -71
t-11.5 -78q0 -40 11.5 -79t31.5 -71q21 -31 52.5 -51t73.5 -20q41 0 72.5 20.5t53.5 51.5q19 32 30.5 71t11.5 78q0 40 -11.5 79t-30.5 71q-22 33 -53.5 53t-72.5 20z" />
    <glyph glyph-name="uni043F" unicode="&#x43f;" horiz-adv-x="950" 
d="M333 408v-519h-104v617h459v-617h-106v519h-249z" />
    <glyph glyph-name="uni0440" unicode="&#x440;" horiz-adv-x="950" 
d="M465 -107q-48 0 -92 19.5t-77 46.5v-179h-103v741h103v-50q33 32 76.5 51t92.5 19q66 0 115 -28t79 -75q33 -47 49.5 -104.5t16.5 -119.5q0 -58 -16.5 -116t-49.5 -103q-31 -47 -80.5 -74.5t-113.5 -27.5zM456 439q-40 0 -69.5 -21t-50.5 -53q-19 -33 -29.5 -73
t-10.5 -78t10 -77.5t28 -71.5q20 -31 50.5 -51.5t71.5 -20.5q42 0 72.5 20.5t49.5 51.5q20 32 29.5 71.5t9.5 77.5t-9.5 78t-29.5 73q-19 32 -50 53t-72 21z" />
    <glyph glyph-name="uni0441" unicode="&#x441;" horiz-adv-x="950" 
d="M729 107q-29 -106 -95.5 -168t-170.5 -62q-67 0 -119.5 26.5t-85.5 71.5q-34 46 -51.5 104t-17.5 120t17.5 120.5t51.5 105.5q33 43 85.5 71t119.5 28q52 0 95 -19.5t80 -51.5q34 -33 57 -77t31 -95h-108q-10 29 -23 54.5t-31 45.5q-20 19 -45.5 30t-55.5 11
q-43 0 -73.5 -19.5t-54.5 -51.5q-20 -31 -31.5 -71t-11.5 -81t11 -80.5t31 -70.5q24 -31 54.5 -50.5t74.5 -19.5q58 0 97.5 35.5t57.5 93.5h111z" />
    <glyph glyph-name="uni0442" unicode="&#x442;" horiz-adv-x="950" 
d="M404 408h-189v98h485v-98h-188v-519h-108v519z" />
    <glyph glyph-name="uni0443" unicode="&#x443;" horiz-adv-x="950" 
d="M459 139q42 110 86 217.5t87 216.5h112l-274 -693q-9 -23 -20.5 -42t-28.5 -34q-17 -16 -38 -24.5t-53 -9.5h-55v96h62q13 0 22.5 13t17.5 33q9 19 14.5 42.5t10.5 43.5l-229 575h114z" />
    <glyph glyph-name="uni0444" unicode="&#x444;" horiz-adv-x="950" 
d="M268 493q-39 0 -67 -19.5t-44 -49.5q-19 -33 -27 -71t-8 -73q0 -36 8 -73t27 -68q16 -31 43.5 -50t67.5 -19q39 0 65 19t41 50q17 31 23.5 68t6.5 73q0 35 -7 73t-24 71q-15 30 -40.5 49.5t-64.5 19.5zM650 493q-38 0 -63 -19.5t-43 -49.5q-17 -33 -23.5 -71t-6.5 -73
q0 -36 6.5 -73t23.5 -68q18 -31 43 -50t63 -19q40 0 66.5 19t45.5 50q17 31 25.5 68t8.5 73q0 35 -8.5 73t-25.5 71q-19 30 -46 49.5t-66 19.5zM405 807h108v-271q27 27 59.5 40t77.5 13q64 0 109 -26.5t76 -71.5q30 -45 45.5 -100.5t15.5 -110.5t-15.5 -109.5t-45.5 -99.5
q-31 -47 -77 -74t-108 -27q-40 0 -74.5 15t-62.5 42v-258h-108v253q-30 -25 -64 -38.5t-73 -13.5q-59 0 -105 29t-78 76q-31 46 -47.5 100.5t-16.5 104.5q0 58 17 113.5t48 99.5q32 45 77.5 70.5t104.5 25.5q40 0 74 -13.5t63 -38.5v270z" />
    <glyph glyph-name="uni0445" unicode="&#x445;" horiz-adv-x="950" 
d="M457 112l-167 -223h-129l231 311l-221 296h129l157 -209l158 209h131l-223 -297l232 -310h-133z" />
    <glyph glyph-name="uni0446" unicode="&#x446;" horiz-adv-x="950" 
d="M309 -11h237v520h105v-521h67v-192h-109v94h-409v619h109v-520z" />
    <glyph glyph-name="uni0447" unicode="&#x447;" horiz-adv-x="950" 
d="M698 -111h-105v202q-31 -23 -71.5 -36.5t-93.5 -10.5q-40 1 -77.5 17.5t-66.5 42.5q-31 30 -49 68.5t-18 84.5v249h107v-230q0 -37 10.5 -62t28.5 -39q18 -17 43.5 -24t56.5 -7q21 0 43 9.5t42 26.5q19 16 32 35.5t13 41.5v249h105v-617z" />
    <glyph glyph-name="uni0448" unicode="&#x448;" horiz-adv-x="950" 
d="M626 -16v521h104v-617h-543v617h103v-521h114v521h109v-521h113z" />
    <glyph glyph-name="uni0449" unicode="&#x449;" horiz-adv-x="950" 
d="M159 -110v617h105v-518h112v518h107v-518h114v518h104v-518h57v-190h-107v91h-492z" />
    <glyph glyph-name="uni044A" unicode="&#x44a;" horiz-adv-x="950" 
d="M401 -14h131q30 0 52.5 5.5t43.5 17.5q17 13 28 33t11 53q0 29 -11 49t-29 34q-21 14 -44.5 19t-49.5 5h-132v-216zM293 -111v519h-148v98h256v-205h136q52 0 95 -18t74 -46q31 -30 49 -70t16 -88q-2 -44 -22 -78.5t-52 -58.5q-30 -25 -70 -39t-82 -14h-252z" />
    <glyph glyph-name="uni044B" unicode="&#x44b;" horiz-adv-x="950" 
d="M256 -14h116q65 0 99 32t34 77q0 25 -10.5 44t-28.5 36q-21 13 -44 20t-49 7h-117v-216zM256 506v-205h121q52 0 95 -18t74 -46q32 -30 50 -70t14 -88q-2 -44 -21 -78.5t-50 -58.5q-32 -25 -71.5 -39t-80.5 -14h-234v617h103zM659 506h107v-617h-107v617z" />
    <glyph glyph-name="uni044C" unicode="&#x44c;" horiz-adv-x="950" 
d="M323 -14h138q63 0 97 32t34 77q0 25 -10.5 45t-28.5 35q-20 13 -43.5 20t-47.5 7h-139v-216zM323 506v-205h144q53 0 96 -15.5t76 -45.5q31 -29 46.5 -69.5t12.5 -91.5q-1 -45 -20.5 -80t-49.5 -59q-31 -25 -70.5 -38t-83.5 -13h-258v617h107z" />
    <glyph glyph-name="uni044D" unicode="&#x44d;" horiz-adv-x="950" 
d="M414 155v98h207q-4 36 -16.5 68.5t-32.5 58.5q-20 25 -49 40t-68 15q-27 0 -52 -12t-43 -31q-24 -19 -38.5 -45t-26.5 -56h-110q15 55 41 99.5t62 75.5q34 33 76 50.5t90 17.5q69 0 121.5 -27.5t85.5 -74.5q35 -46 53 -105.5t18 -122.5q0 -64 -18 -123.5t-53 -103.5
q-33 -46 -85.5 -73.5t-121.5 -27.5q-95 0 -166 63.5t-102 177.5h120q11 -64 52.5 -100t94.5 -36q38 0 67 14t51 38q20 23 32.5 54.5t16.5 67.5h-206z" />
    <glyph glyph-name="uni044E" unicode="&#x44e;" horiz-adv-x="950" 
d="M540 418q-43 0 -74.5 -20t-51.5 -52q-22 -33 -32.5 -72t-10.5 -78q0 -41 10.5 -79.5t32.5 -70.5q20 -31 51.5 -51t74.5 -20q41 0 72 20.5t52 51.5q22 32 32.5 71t10.5 78q0 40 -10.5 79t-32.5 71q-21 33 -52 52.5t-72 19.5zM210 252h58q5 54 26 103t56 87q36 36 83 57
t107 21q66 0 117.5 -27.5t86.5 -72.5q34 -46 51.5 -104.5t17.5 -119.5q0 -60 -17.5 -118t-51.5 -105q-35 -45 -86.5 -72t-117.5 -27q-60 0 -107.5 23t-83.5 59q-35 40 -56 90.5t-26 106.5h-57v-264h-105v617h105v-254z" />
    <glyph glyph-name="uni044F" unicode="&#x44f;" horiz-adv-x="950" 
d="M371 143q-48 27 -77.5 70.5t-29.5 101.5q0 45 15.5 79t44.5 60t67 38.5t81 13.5h239v-617h-107v235h-127q-38 -59 -76 -118.5t-75 -116.5h-120zM604 221v187h-111q-60 0 -92.5 -22t-32.5 -72q0 -27 10.5 -44.5t26.5 -28.5q17 -10 40.5 -14.5t47.5 -5.5h111z" />
    <glyph glyph-name="uni0451" unicode="&#x451;" horiz-adv-x="950" 
d="M365 650q12 0 24 -5t21 -15t14.5 -22t5.5 -26q0 -27 -20 -46q-20 -21 -45 -21q-26 0 -45.5 20t-19.5 47q0 28 19.5 48t45.5 20zM551 650q13 0 24.5 -5t21.5 -15q7 -10 13 -22t6 -26q0 -27 -19 -46q-21 -21 -46 -21q-13 0 -24 5.5t-21 15.5q-10 8 -15.5 20t-5.5 26
q0 28 20 48t46 20zM457 505q64 0 112.5 -26.5t81.5 -72.5q34 -47 50 -106.5t13 -125.5h-402q0 -32 10.5 -61.5t30.5 -53.5q18 -22 45.5 -36.5t58.5 -14.5q56 0 89 32.5t48 77.5h113q-16 -47 -38.5 -87t-51.5 -68q-31 -27 -70.5 -43.5t-89.5 -15.5q-60 2 -107 27t-79 69
q-34 41 -51.5 95t-17.5 110t17.5 109.5t51.5 97.5q31 42 78.5 67.5t107.5 25.5zM600 273q-6 26 -19 49.5t-31 41.5q-19 18 -42.5 28t-50.5 10q-24 0 -47 -10.5t-42 -28.5q-40 -36 -51 -90h283z" />
    <glyph glyph-name="endash" unicode="&#x2013;" 
d="M0 -58z" />
    <glyph glyph-name="emdash" unicode="&#x2014;" 
d="M0 -58z" />
    <glyph glyph-name="uni2015" unicode="&#x2015;" horiz-adv-x="950" 
d="M910 388v-88h-903v88h903z" />
    <glyph glyph-name="uni2016" unicode="&#x2016;" 
d="M0 -58z" />
    <glyph glyph-name="quoteleft" unicode="&#x2018;" horiz-adv-x="240" 
d="M168 762q-18 -11 -29.5 -21.5t-16.5 -26.5q33 3 52 -16.5t19 -57.5q0 -33 -20 -50t-53 -19q-14 -1 -29 5t-27 19q-12 10 -19.5 29t-7.5 43q0 47 32.5 92.5t98.5 82.5v-80z" />
    <glyph glyph-name="quoteright" unicode="&#x2019;" horiz-adv-x="240" 
d="M63 633q17 10 29 21t17 27q-32 -2 -52 17t-20 57q0 33 21 49.5t53 18.5q13 1 29 -4.5t27 -17.5q10 -13 18 -31.5t8 -41.5q0 -47 -32 -93t-98 -82v80z" />
    <glyph glyph-name="quotereversed" unicode="&#x201b;" horiz-adv-x="267" 
d="M0 -58z" />
    <glyph glyph-name="quotedblleft" unicode="&#x201c;" horiz-adv-x="330" 
d="M121 762q-38 -20 -44 -48q31 3 50.5 -16.5t19.5 -57.5q0 -33 -20.5 -50t-52.5 -19q-16 -1 -31 5t-26 19q-12 10 -18 29t-6 43q0 47 30.5 92.5t97.5 82.5v-80zM302 762q-37 -20 -46 -48q31 3 51 -16.5t20 -57.5q0 -33 -21 -50t-54 -19q-13 -1 -28.5 5t-26.5 19
q-11 10 -19 29t-8 43q0 47 32 92.5t100 82.5v-80z" />
    <glyph glyph-name="quotedblright" unicode="&#x201d;" horiz-adv-x="330" 
d="M15 633q38 20 46 48q-31 -2 -49.5 17t-18.5 57q0 33 19.5 49.5t51.5 18.5q14 1 30 -4.5t26 -17.5q11 -13 19 -31.5t8 -41.5q0 -47 -32.5 -93t-99.5 -82v80zM195 633q38 20 46 48q-31 -2 -51 17t-20 57q0 33 21 49.5t52 18.5q15 1 30.5 -4.5t25.5 -17.5q13 -13 20.5 -31.5
t7.5 -41.5q0 -47 -31.5 -93t-100.5 -82v80z" />
    <glyph glyph-name="uni201F" unicode="&#x201f;" horiz-adv-x="400" 
d="M0 -58z" />
    <glyph glyph-name="dagger" unicode="&#x2020;" horiz-adv-x="950" 
d="M521 654q0 -26 -8 -61l-10 -48q7 1 12.5 2t11.5 4q23 5 46 8.5t47 1.5q56 -8 56 -62q0 -25 -14.5 -41t-38.5 -21q-23 -5 -43.5 -1t-42.5 10q-9 2 -14.5 3.5t-16.5 3.5q6 -21 18.5 -44.5t37.5 -34.5q-23 -22 -34 -50t-17 -60q-7 -31 -8 -63.5t-1 -63.5v-40
q-1 -18 -1 -46.5v-70.5v-51t-1 -27q-3 -30 -15 -47.5t-26 -17.5q-19 0 -29.5 17.5t-12.5 48.5q-1 18 -1 46v63v125q0 31 -1 66t-7 69q-5 32 -19 57.5t-39 36.5q29 21 43.5 43.5t19.5 44.5q-7 -2 -12.5 -3.5t-11.5 -3.5q-22 -5 -45.5 -10t-51.5 0q-50 9 -50 62q0 54 52 62
q24 2 45 -1t42 -8l33 -8l-10 48q-1 12 -4 27t-3 31q0 12 2.5 29t8.5 30t18.5 23t32.5 10q19 0 30.5 -8t18.5 -20q8 -13 10.5 -29.5t2.5 -30.5z" />
    <glyph glyph-name="daggerdbl" unicode="&#x2021;" horiz-adv-x="950" 
d="M298 443q5 1 9 1h8l-18 2q-51 12 -51 61q0 54 52 61q30 4 56.5 -1.5t57.5 -13.5q-2 12 -5 25.5t-4 26.5q-2 17 -5 37t1 41q12 59 60 59q51 0 60 -59q4 -22 2 -41.5t-7 -38.5q-4 -14 -6.5 -26t-4.5 -24q28 4 55 10.5t59 4.5q55 -10 55 -61t-52 -61q-24 -4 -47 -0.5
t-46 9.5l-25 6v-34q11 0 23 6q21 5 43 9t49 1q28 -3 41.5 -19.5t13.5 -40.5q0 -53 -52 -62q-23 -6 -45.5 -1.5t-46.5 10.5q-6 1 -10.5 3t-14.5 4q5 -23 18.5 -44t25.5 -32q-32 -48 -39.5 -99.5t-7.5 -103.5v-155q0 -66 -41 -66q-16 0 -29 17.5t-13 48.5v39q-1 19 -1 46.5
v69.5q0 24 -0.5 50t-4.5 51q-5 25 -14.5 51t-28.5 50q18 15 29 35t16 41q-5 -2 -13 -3.5t-13 -2.5q-21 -6 -43 -10.5t-47 1.5q-23 6 -37 21t-14 41q0 52 52 60zM415 463l-27 -8q-27 -10 -57 -11q18 -2 35 -6t33 -7l16 -4v36z" />
    <glyph glyph-name="bullet" unicode="&#x2022;" 
d="M0 -58z" />
    <glyph glyph-name="twodotenleader" unicode="&#x2025;" horiz-adv-x="950" 
d="M751 412v-135h-134v135h134zM300 412v-135h-133v135h133z" />
    <glyph glyph-name="ellipsis" unicode="&#x2026;" horiz-adv-x="950" 
d="M802 412v-135h-131v135h131zM525 412v-135h-132v135h132zM247 412v-135h-131v135h131z" />
    <glyph glyph-name="perthousand" unicode="&#x2030;" horiz-adv-x="950" 
d="M571 657h95l-526 -741h-93zM283 649q46 0 75 -31t28 -86q0 -33 -13.5 -69.5t-39.5 -67.5q-23 -31 -56 -50.5t-71 -19.5q-49 0 -75 30.5t-26 86.5q0 33 14 69t40 69q24 29 56 49t68 20zM307 534q0 12 -4 25.5t-15 13.5q-18 0 -36 -14t-32 -34q-14 -21 -23.5 -44.5
t-12.5 -41.5q0 -12 4 -25t12 -13q22 0 40.5 13.5t33.5 34.5q14 19 23.5 43t9.5 42zM481 253q45 0 73 -31t27 -86q0 -34 -13.5 -70.5t-37.5 -66.5q-24 -31 -56.5 -50.5t-70.5 -19.5q-50 0 -76.5 30.5t-26.5 85.5q0 33 14.5 70t40.5 68q24 30 56.5 50t69.5 20zM502 138
q0 12 -3 25.5t-15 13.5q-18 0 -35.5 -14t-31.5 -34q-14 -21 -23.5 -44.5t-13.5 -41.5q0 -10 4 -24.5t14 -14.5q20 0 38.5 14.5t34.5 34.5q13 21 22 44t9 41zM767 253q46 0 74.5 -31t27.5 -86q0 -34 -14 -70.5t-39 -66.5q-23 -31 -56 -50.5t-72 -19.5q-49 0 -75 30.5
t-26 85.5q0 33 15 70t40 68q25 30 57 50t68 20zM785 138q0 12 -3 25.5t-15 13.5q-19 0 -36 -14t-33 -34q-13 -21 -22.5 -44.5t-14.5 -41.5q0 -10 5 -24.5t14 -14.5q19 0 38 14.5t35 34.5q14 21 23 44t9 41z" />
    <glyph glyph-name="minute" unicode="&#x2032;" horiz-adv-x="950" 
d="M578 823l-189 -295l-50 19l95 276h144z" />
    <glyph glyph-name="second" unicode="&#x2033;" horiz-adv-x="950" 
d="M484 823l-191 -294l-50 18l95 276h146zM675 823l-191 -295l-49 19l93 276h147z" />
    <glyph glyph-name="uni2034" unicode="&#x2034;" horiz-adv-x="488" 
d="M0 -58z" />
    <glyph glyph-name="uni2035" unicode="&#x2035;" horiz-adv-x="400" 
d="M0 -58z" />
    <glyph glyph-name="uni2036" unicode="&#x2036;" horiz-adv-x="400" 
d="M0 -58z" />
    <glyph glyph-name="guilsinglleft" unicode="&#x2039;" 
d="M0 -58z" />
    <glyph glyph-name="guilsinglright" unicode="&#x203a;" 
d="M0 -58z" />
    <glyph glyph-name="uni203B" unicode="&#x203b;" horiz-adv-x="950" 
d="M672 368q26 0 47 -20t21 -52t-20 -51.5t-48 -19.5q-15 0 -27 5.5t-22 15.5q-9 9 -15 22t-6 27q0 29 19 51t51 22zM246 368q28 0 49 -20t21 -52t-19 -51.5t-51 -19.5q-13 0 -25.5 5.5t-22.5 15.5q-9 9 -15.5 22t-6.5 27q0 15 6 28t15 23t22 16t27 6zM459 590q13 0 25 -5
t23 -16q11 -10 16 -23t5 -27q0 -31 -19.5 -52t-49.5 -21q-14 0 -26 6t-22 14q-22 21 -22 53q0 28 19.5 49.5t50.5 21.5zM459 144q13 0 25 -5t23 -15t16 -22.5t5 -26.5q0 -32 -19.5 -53t-49.5 -21q-26 0 -48 20.5t-22 52.5q0 27 19.5 48.5t50.5 21.5zM750 535l-226 -238
q55 -58 112.5 -119t113.5 -120l-65 -67l-226 236l-112 -117q-28 -29 -59.5 -60.5t-54.5 -57.5l-65 66l226 238q-20 19 -40 40.5t-38 43.5l-148 155l65 66l226 -237l166 175l60 63z" />
    <glyph glyph-name="exclamdbl" unicode="&#x203c;" 
d="M0 -58z" />
    <glyph glyph-name="uni203E" unicode="&#x203e;" 
d="M0 -58z" />
    <glyph glyph-name="uni2042" unicode="&#x2042;" 
d="M0 -58z" />
    <glyph glyph-name="uni2047" unicode="&#x2047;" 
d="M0 -58z" />
    <glyph glyph-name="uni2049" unicode="&#x2049;" 
d="M0 -58z" />
    <glyph glyph-name="uni204C" unicode="&#x204c;" horiz-adv-x="400" 
d="M0 -58z" />
    <glyph glyph-name="uni204D" unicode="&#x204d;" horiz-adv-x="400" 
d="M0 -58z" />
    <glyph glyph-name="uni204E" unicode="&#x204e;" 
d="M0 -58z" />
    <glyph glyph-name="uni2051" unicode="&#x2051;" horiz-adv-x="267" 
d="M0 -58z" />
    <glyph glyph-name="uni2074" unicode="&#x2074;" horiz-adv-x="950" 
d="M329 544v73l143 197h74v-185h42v-85h-42v-49h-72v49h-145zM473 681l-41 -55h41v55z" />
    <glyph glyph-name="uni207A" unicode="&#x207a;" horiz-adv-x="400" 
d="M0 -58z" />
    <glyph glyph-name="uni207B" unicode="&#x207b;" horiz-adv-x="400" 
d="M0 -58z" />
    <glyph glyph-name="uni207C" unicode="&#x207c;" horiz-adv-x="400" 
d="M0 -58z" />
    <glyph glyph-name="uni207D" unicode="&#x207d;" horiz-adv-x="400" 
d="M0 -58z" />
    <glyph glyph-name="uni207E" unicode="&#x207e;" horiz-adv-x="400" 
d="M0 -58z" />
    <glyph glyph-name="uni207F" unicode="&#x207f;" horiz-adv-x="969" 
d="M340 819h82v-16q15 11 33.5 15t36.5 2q44 -5 73 -36q14 -17 22.5 -37.5t8.5 -41.5v-209h-82v190q0 23 -8.5 38.5t-33.5 15.5q-21 0 -34 -17t-13 -41v-186h-85v323z" />
    <glyph glyph-name="uni2081" unicode="&#x2081;" horiz-adv-x="950" 
d="M444 -96v191h-57v82q27 0 44 8t22 39h78v-320h-87z" />
    <glyph glyph-name="uni2082" unicode="&#x2082;" horiz-adv-x="950" 
d="M577 123q0 -26 -9.5 -45.5t-25.5 -34.5q-16 -14 -35 -27t-36 -25h108v-87h-240q-1 35 7 59t22 42q13 19 30.5 34t36.5 29q6 4 15 9.5t18 13.5q8 6 13 14.5t5 17.5q0 21 -21 21q-16 0 -21 -16.5t-6 -36.5h-91q1 59 31 98q15 19 37 30.5t50 11.5t49.5 -9t35.5 -24t20.5 -35
t6.5 -40z" />
    <glyph glyph-name="uni2083" unicode="&#x2083;" horiz-adv-x="950" 
d="M345 107q1 61 34 94t80 33q23 0 43.5 -8t34.5 -22q16 -14 25 -32t9 -37q0 -21 -4.5 -35.5t-14.5 -24.5q12 -15 19.5 -31t7.5 -35q0 -46 -31.5 -76.5t-87.5 -30.5q-26 0 -48.5 11t-39.5 29q-35 37 -35 95h81q0 -19 9 -34t27 -15t25.5 8.5t7.5 23.5q0 9 -3.5 14t-9.5 7
q-8 2 -21 2.5t-27 0.5v55h26.5t15.5 2q13 3 13 26q0 9 -7.5 15.5t-22.5 6.5q-14 0 -20 -12.5t-7 -29.5h-79z" />
    <glyph glyph-name="uni2084" unicode="&#x2084;" horiz-adv-x="950" 
d="M329 -46v73l143 197h74v-185h42v-85h-42v-50h-74v50h-143zM472 92l-42 -63h42v63z" />
    <glyph glyph-name="uni20A9" unicode="&#x20a9;" 
d="M0 -58z" />
    <glyph glyph-name="uni2103" unicode="&#x2103;" horiz-adv-x="950" 
d="M890 133q-16 -68 -46.5 -122.5t-71.5 -92.5q-43 -39 -96 -61t-113 -22q-83 0 -146.5 32.5t-104.5 86.5q-42 55 -64 128t-22 153q0 77 21 149.5t63 128.5q41 56 105 90t148 34q65 0 117.5 -21.5t94.5 -59.5q39 -38 69 -89.5t46 -111.5h-114q-27 78 -81 125.5t-137 47.5
q-58 0 -99.5 -24.5t-67.5 -65.5q-27 -42 -40 -94.5t-13 -108.5q0 -55 12.5 -108t39.5 -94q26 -42 67.5 -66.5t100.5 -24.5q38 0 73.5 14t63.5 40q30 26 50.5 61t27.5 76h117zM163 760q29 0 53.5 -11.5t43.5 -31.5q19 -19 29.5 -44.5t10.5 -52.5q0 -26 -10 -51.5t-28 -44.5
q-20 -21 -44.5 -33t-54.5 -12q-29 0 -54 11.5t-41 30.5q-20 20 -30 45.5t-10 53.5q0 27 9 52.5t28 44.5q16 20 41.5 31.5t56.5 11.5zM163 664q-17 0 -28.5 -12t-11.5 -32q0 -19 11.5 -30.5t28.5 -11.5q20 0 31 11.5t11 30.5q0 20 -11 32t-31 12z" />
    <glyph glyph-name="uni2109" unicode="&#x2109;" horiz-adv-x="950" 
d="M352 623h516v-102h-403v-229h355v-99h-355v-330h-113v760zM186 758q27 0 52.5 -11t43.5 -31t29.5 -45.5t11.5 -52.5q0 -28 -10.5 -53t-29.5 -45q-17 -19 -43 -31t-54 -12q-29 0 -53.5 11.5t-43.5 30.5q-17 20 -28.5 45t-11.5 54q0 27 10.5 52.5t26.5 44.5q19 20 44 31.5
t56 11.5zM186 662q-18 0 -29 -12t-11 -32q0 -19 11 -30.5t29 -11.5q19 0 30.5 11.5t11.5 30.5q0 20 -11.5 32t-30.5 12z" />
    <glyph glyph-name="uni2113" unicode="&#x2113;" horiz-adv-x="950" 
d="M482 644q-17 0 -30 -18.5t-24 -46.5q-11 -31 -17.5 -65.5t-9.5 -70.5q-4 -37 -6 -67t-2 -48q5 -149 29 -243q26 34 45.5 78t33.5 93q14 48 18.5 98t4.5 93v16.5v26.5q-1 14 -2 31.5t-3 34.5t-5.5 32.5t-8.5 28.5q-5 12 -11.5 19.5t-11.5 7.5zM486 757q36 0 58.5 -19.5
t38.5 -49.5q17 -31 25.5 -68.5t12.5 -75.5q6 -38 7 -69.5t1 -50.5q0 -52 -10 -112.5t-28 -121.5q-20 -61 -49 -115.5t-70 -93.5q12 -20 22 -27t22 -7t26.5 14t26.5 35q11 20 21 43t15 45l27 -27q13 -13 28 -27t33 -31q-57 -134 -155 -154q-91 -19 -162 87q-13 -4 -26.5 -6.5
t-27.5 -3.5q-13 -2 -30.5 -3.5t-40.5 -2.5l-27 105h24.5t28.5 1q13 0 28 1.5t25 5.5q-20 67 -31.5 134.5t-11.5 138.5q0 37 3.5 84t13.5 99q8 51 22.5 99.5t37.5 87.5q22 37 51.5 61t70.5 24z" />
    <glyph glyph-name="uni2116" unicode="&#x2116;" horiz-adv-x="950" 
d="M317 -55l-219 486v-486h-78v683h76l219 -487v487h79v-683h-77zM615 427q45 0 79.5 -22t58.5 -58q22 -35 33 -78.5t11 -87.5t-11 -87t-33 -77q-24 -36 -58.5 -57t-79.5 -21q-47 0 -81.5 21t-55.5 57q-24 33 -34.5 76.5t-10.5 87.5t10 88t35 79q21 36 55.5 57.5t81.5 21.5z
M615 340q-27 0 -46.5 -15t-31.5 -38q-13 -24 -18 -52t-5 -54t5 -54.5t18 -50.5q12 -24 31.5 -39t46.5 -15t46 15.5t31 39.5q11 21 18 49.5t7 54.5q0 27 -6.5 55t-17.5 52q-12 22 -31.5 37t-46.5 15zM836 58q11 0 23 -6t20 -14q18 -19 18 -44q0 -24 -19.5 -42.5t-41.5 -18.5
q-24 0 -43 18.5t-19 42.5q0 11 5 23t15 21q8 8 19 14t23 6z" />
    <glyph glyph-name="uni2121" unicode="&#x2121;" horiz-adv-x="950" 
d="M235 538h-193v85h473v-85h-191v-593h-89v593zM554 427q49 0 88 -23t65 -61q26 -39 39 -90.5t10 -108.5h-309q5 -47 37 -82q12 -17 30.5 -27.5t39.5 -10.5q38 0 62.5 26.5t34.5 62.5h104q-15 -43 -33 -77t-41 -57q-25 -24 -55.5 -36.5t-71.5 -12.5q-50 1 -86.5 21.5
t-62.5 54.5q-26 35 -39.5 80t-13.5 92t13.5 91t39.5 79q27 36 64 57.5t85 21.5zM658 239q-5 18 -14.5 35t-24.5 30q-15 12 -31.5 19.5t-33.5 7.5q-19 0 -35.5 -7.5t-30.5 -19.5q-12 -13 -23 -30t-15 -35h208zM781 624h93v-678h-93v678z" />
    <glyph glyph-name="trademark" unicode="&#x2122;" horiz-adv-x="950" 
d="M600 713h102v-376h-77v119l-25 -119h-73l-24 119v-119h-83v291h-33v-286h-104v286h-69v85h310l39 -135z" />
    <glyph glyph-name="Omega" unicode="&#x2126;" horiz-adv-x="950" 
d="M475 38q0 31 12.5 44t30.5 17q39 11 67.5 36t47.5 60q16 36 25 76.5t9 84.5q0 49 -14 96t-40 84q-27 36 -66.5 59t-90.5 23q-50 0 -88.5 -24t-63.5 -61q-26 -38 -40 -85t-14 -94q0 -44 8.5 -85.5t25.5 -74.5q19 -35 49 -59.5t72 -35.5q7 -1 15 -4t15 -10t10.5 -19.5
t3.5 -29.5v-99q0 -28 -11.5 -49t-48.5 -21h-163v100h123v36q-55 18 -93.5 54t-62.5 83q-25 46 -36.5 101.5t-11.5 111.5q0 67 22 132.5t63 117.5t98.5 83.5t127.5 31.5q74 0 132.5 -30t99.5 -81t62.5 -115.5t21.5 -135.5q0 -55 -12.5 -109t-37.5 -102q-26 -47 -63 -82.5
t-85 -54.5v-41h123v-100h-160q-18 0 -31.5 5t-20.5 13q-5 10 -7.5 23t-2.5 27v103z" />
    <glyph glyph-name="uni212B" unicode="&#x212b;" horiz-adv-x="950" 
d="M457 674q-12 0 -21 -9.5t-9 -24.5q0 -16 9 -25.5t21 -9.5q15 0 23.5 9.5t8.5 25.5q0 15 -8.5 24.5t-23.5 9.5zM457 762q26 0 46.5 -10t37.5 -27q16 -17 24.5 -39t8.5 -46t-8.5 -46t-24.5 -38q-16 -17 -36.5 -27.5t-47.5 -10.5q-24 0 -45.5 10.5t-37.5 27.5
q-14 16 -23.5 38t-9.5 46q0 50 34 85q16 17 37 27t45 10zM581 71h-244q-15 -39 -31.5 -78.5t-31.5 -76.5h-101l252 583h69l250 -583h-99zM372 161h170l-83 190z" />
    <glyph glyph-name="onethird" unicode="&#x2153;" horiz-adv-x="950" 
d="M392 -35q0 -17 3 -31t10 -27q8 -11 21 -17.5t31 -6.5q29 0 46.5 15t17.5 38q0 10 -8 18.5t-20 13.5q-10 5 -25 7t-26 2h-40l1 82h37q10 0 23 1.5t21 8.5q10 5 16.5 13.5t6.5 20.5q0 18 -12.5 29t-39.5 11q-52 0 -52 -72h-95q0 38 11 68t32 50q20 19 48 28.5t58 9.5
q27 0 54.5 -8t50.5 -24q19 -16 31.5 -39t12.5 -54q0 -46 -33 -79q47 -34 47 -87q0 -61 -44.5 -98t-116.5 -37q-34 0 -63.5 9t-54.5 31q-46 41 -46 124h97zM126 318h666v-73h-666v73zM424 347v238h-84v90q28 2 49.5 4.5t29.5 7.5q7 5 11.5 18t4.5 36h85v-394h-96z" />
    <glyph glyph-name="twothirds" unicode="&#x2154;" horiz-adv-x="950" 
d="M126 318h666v-73h-666v73zM392 -35q0 -17 3 -31t10 -27q8 -11 21 -17.5t31 -6.5q29 0 46.5 15t17.5 38q0 10 -8 18.5t-20 13.5q-10 5 -25 7t-26 2h-40l1 82h37q10 0 23 1.5t21 8.5q10 5 16.5 13.5t6.5 20.5q0 18 -12.5 29t-39.5 11q-52 0 -52 -72h-95q0 38 11 68t32 50
q20 19 48 28.5t58 9.5q27 0 54.5 -8t50.5 -24q19 -16 31.5 -39t12.5 -54q0 -46 -33 -79q47 -34 47 -87q0 -61 -44.5 -98t-116.5 -37q-34 0 -63.5 9t-54.5 31q-46 41 -46 124h97zM615 637q0 -48 -22.5 -76.5t-52.5 -51.5l-32 -18t-29 -20q-16 -9 -28.5 -19.5t-21.5 -24.5h186
v-85h-323q1 37 10 65.5t22 49.5q8 13 18 25t24 23q12 11 30 23t44 25q11 7 25.5 15.5t24.5 18.5q12 10 20 22t8 29q0 21 -15 34.5t-41 13.5q-36 0 -49 -23t-14 -61h-95q2 37 11 68t29 54q19 24 48.5 37t70.5 13q38 0 67 -11.5t48 -28.5q37 -40 37 -97z" />
    <glyph glyph-name="oneeighth" unicode="&#x215b;" horiz-adv-x="950" 
d="M619 101q0 -20 -9 -40.5t-24 -37.5q22 -17 35 -39.5t13 -54.5t-14 -57.5t-37 -42.5q-47 -34 -123 -34q-36 0 -67.5 9t-56.5 26q-22 17 -35.5 42.5t-13.5 56.5q0 60 47 93q-15 17 -24.5 38t-9.5 41q0 61 43.5 93.5t116.5 32.5q34 0 63.5 -8.5t50.5 -24.5t33 -39t12 -54z
M460 -20q-34 0 -53.5 -15t-19.5 -36t19.5 -35t53.5 -14q35 0 54 14t19 35t-19 36t-54 15zM460 141q-31 0 -45 -11t-14 -28q0 -16 14 -28t45 -12q29 0 45 12t16 28q0 17 -16 28t-45 11zM126 318h666v-73h-666v73zM424 347v238h-84v90q28 2 49.5 4.5t29.5 7.5q7 5 11.5 18
t4.5 36h85v-394h-96z" />
    <glyph glyph-name="threeeighths" unicode="&#x215c;" horiz-adv-x="950" 
d="M619 101q0 -20 -9 -40.5t-24 -37.5q22 -17 35 -39.5t13 -54.5t-14 -57.5t-37 -42.5q-47 -34 -123 -34q-36 0 -67.5 9t-56.5 26q-22 17 -35.5 42.5t-13.5 56.5q0 60 47 93q-15 17 -24.5 38t-9.5 41q0 61 43.5 93.5t116.5 32.5q34 0 63.5 -8.5t50.5 -24.5t33 -39t12 -54z
M460 -20q-34 0 -53.5 -15t-19.5 -36t19.5 -35t53.5 -14q35 0 54 14t19 35t-19 36t-54 15zM460 141q-31 0 -45 -11t-14 -28q0 -16 14 -28t45 -12q29 0 45 12t16 28q0 17 -16 28t-45 11zM126 318h666v-73h-666v73zM392 513q0 -16 3 -31.5t10 -26.5q8 -11 21 -18t31 -7
q29 0 46.5 15t17.5 39q0 11 -8 19t-20 13q-10 5 -25 7t-26 2h-40l1 83h37q10 0 23 2t21 7q10 4 16.5 13.5t6.5 22.5q0 15 -12.5 27.5t-39.5 12.5q-52 0 -52 -74h-95q0 39 11 68.5t32 49.5q20 19 48 28.5t58 9.5q27 0 54.5 -8t50.5 -23q19 -16 31.5 -39.5t12.5 -53.5
q0 -47 -33 -79q47 -34 47 -88q0 -61 -44.5 -99.5t-116.5 -38.5q-34 0 -63.5 10t-54.5 32q-46 40 -46 125h97z" />
    <glyph glyph-name="fiveeighths" unicode="&#x215d;" horiz-adv-x="950" 
d="M292 527l22 120q7 40 12 75t8 49h260v-86h-179l-9 -41q16 4 32 5.5t31 1.5q27 0 52.5 -11.5t44.5 -31.5q20 -20 30.5 -47t10.5 -58q0 -35 -12.5 -62.5t-32.5 -47.5q-23 -20 -51.5 -32t-62.5 -12q-67 0 -111 39t-55 112h105q3 -27 20 -47t43 -20q29 0 46 17.5t17 47.5
q0 28 -15.5 47t-45.5 19q-19 0 -36 -10t-29 -26zM619 101q0 -20 -9 -40.5t-24 -37.5q22 -17 35 -39.5t13 -54.5t-14 -57.5t-37 -42.5q-47 -34 -123 -34q-36 0 -67.5 9t-56.5 26q-22 17 -35.5 42.5t-13.5 56.5q0 60 47 93q-15 17 -24.5 38t-9.5 41q0 61 43.5 93.5t116.5 32.5
q34 0 63.5 -8.5t50.5 -24.5t33 -39t12 -54zM460 -20q-34 0 -53.5 -15t-19.5 -36t19.5 -35t53.5 -14q35 0 54 14t19 35t-19 36t-54 15zM460 141q-31 0 -45 -11t-14 -28q0 -16 14 -28t45 -12q29 0 45 12t16 28q0 17 -16 28t-45 11zM126 318h666v-73h-666v73z" />
    <glyph glyph-name="seveneighths" unicode="&#x215e;" horiz-adv-x="950" 
d="M302 754h317v-68q-29 -36 -55 -73t-44 -78q-21 -41 -32 -85.5t-12 -97.5h-100q0 36 10.5 78.5t26.5 85.5q17 44 38.5 83.5t42.5 68.5h-192v86zM619 101q0 -20 -9 -40.5t-24 -37.5q22 -17 35 -39.5t13 -54.5t-14 -57.5t-37 -42.5q-47 -34 -123 -34q-36 0 -67.5 9t-56.5 26
q-22 17 -35.5 42.5t-13.5 56.5q0 60 47 93q-15 17 -24.5 38t-9.5 41q0 61 43.5 93.5t116.5 32.5q34 0 63.5 -8.5t50.5 -24.5t33 -39t12 -54zM460 -20q-34 0 -53.5 -15t-19.5 -36t19.5 -35t53.5 -14q35 0 54 14t19 35t-19 36t-54 15zM460 141q-31 0 -45 -11t-14 -28
q0 -16 14 -28t45 -12q29 0 45 12t16 28q0 17 -16 28t-45 11zM126 324h666v-74h-666v74z" />
    <glyph glyph-name="uni2160" unicode="&#x2160;" horiz-adv-x="950" 
d="M403 728h112v-843h-112v843z" />
    <glyph glyph-name="uni2161" unicode="&#x2161;" horiz-adv-x="950" 
d="M278 728h109v-843h-109v843zM531 728h109v-843h-109v843z" />
    <glyph glyph-name="uni2162" unicode="&#x2162;" horiz-adv-x="950" 
d="M228 728h111v-843h-111v843zM578 728h112v-843h-112v843zM404 728h113v-843h-113v843z" />
    <glyph glyph-name="uni2163" unicode="&#x2163;" horiz-adv-x="950" 
d="M555 -115h-98l-242 792v-792h-109v843h212l188 -636l188 636h118z" />
    <glyph glyph-name="uni2164" unicode="&#x2164;" horiz-adv-x="950" 
d="M506 -115h-93l-320 843h118l249 -670l251 670h113z" />
    <glyph glyph-name="uni2165" unicode="&#x2165;" horiz-adv-x="950" 
d="M363 -115l-258 843h118l186 -637l191 637h212v-843h-112v792l-241 -792h-96z" />
    <glyph glyph-name="uni2166" unicode="&#x2166;" horiz-adv-x="950" 
d="M284 -115l-224 843h115l158 -630l160 630h211v-843h-110v783l-209 -783h-101zM856 728v-843h-109v843h109z" />
    <glyph glyph-name="uni2167" unicode="&#x2167;" horiz-adv-x="950" 
d="M229 -115l-216 843h114l152 -621l149 621h203v-843h-110v755l-194 -755h-98zM769 728v-843h-112v843h112zM904 728v-843h-110v843h110z" />
    <glyph glyph-name="uni2168" unicode="&#x2168;" horiz-adv-x="950" 
d="M75 728h221l204 -316l202 316h124l-264 -410l282 -433h-124l-220 338l-219 -338h-206v843zM186 708v-775l252 385z" />
    <glyph glyph-name="uni2169" unicode="&#x2169;" horiz-adv-x="950" 
d="M521 318l282 -433h-124l-220 338l-220 -338h-123l281 433l-266 410h125l203 -317l202 317h126z" />
    <glyph glyph-name="uni2170" unicode="&#x2170;" horiz-adv-x="950" 
d="M517 -114h-113v635h113v-635zM520 608h-122v124h122v-124z" />
    <glyph glyph-name="uni2171" unicode="&#x2171;" horiz-adv-x="950" 
d="M386 -114h-110v635h110v-635zM390 608h-118v123h118v-123zM641 -114h-110v635h110v-635zM645 608h-119v123h119v-123z" />
    <glyph glyph-name="uni2172" unicode="&#x2172;" horiz-adv-x="950" 
d="M338 -114h-111v635h111v-635zM341 608h-118v123h118v-123zM690 -114h-112v635h112v-635zM694 608h-119v123h119v-123zM516 -114h-113v635h113v-635zM520 608h-121v123h121v-123z" />
    <glyph glyph-name="uni2173" unicode="&#x2173;" horiz-adv-x="950" 
d="M555 -114h-90l-251 599v-599h-109v635h216l189 -451l187 451h121zM219 608h-121v124h121v-124z" />
    <glyph glyph-name="uni2174" unicode="&#x2174;" horiz-adv-x="950" 
d="M504 -108h-91l-263 635h121l188 -451l187 451h122z" />
    <glyph glyph-name="uni2175" unicode="&#x2175;" horiz-adv-x="950" 
d="M818 -114h-111v620l-259 -620h-89l-264 635h120l189 -451l188 451h226v-635zM822 608h-121v124h121v-124z" />
    <glyph glyph-name="uni2176" unicode="&#x2176;" horiz-adv-x="950" 
d="M712 -114h-112v593l-217 -593h-93l-232 635h118l159 -444l159 444h218v-635zM857 -114h-110v635h110v-635zM717 608h-118v123h118v-123zM859 608h-117v123h117v-123z" />
    <glyph glyph-name="uni2177" unicode="&#x2177;" horiz-adv-x="950" 
d="M626 -114h-104v573l-201 -573h-93l-222 635h119l149 -442l148 442h204v-635zM767 -114h-107v635h107v-635zM906 -114h-103v635h103v-635zM770 608h-112v123h112v-123zM911 608h-111v123h111v-123zM630 608h-111v123h111v-123z" />
    <glyph glyph-name="uni2178" unicode="&#x2178;" horiz-adv-x="950" 
d="M493 118l-173 -232h-204v635h214l164 -220l162 220h138l-230 -311l242 -324h-138zM228 477v-532l198 266zM231 608h-119v124h119v-124z" />
    <glyph glyph-name="uni2179" unicode="&#x2179;" horiz-adv-x="950" 
d="M457 125l-174 -233h-135l241 324l-232 311h136l164 -221l165 221h135l-233 -311l246 -324h-139z" />
    <glyph glyph-name="arrowleft" unicode="&#x2190;" horiz-adv-x="950" 
d="M906 242h-566q9 -8 19.5 -17t18.5 -15l-26 -40l-341 117l339 115l26 -42l-32 -29h562v-89z" />
    <glyph glyph-name="arrowup" unicode="&#x2191;" horiz-adv-x="950" 
d="M414 -184v569q-6 -8 -13 -17t-12 -17l-45 25l113 369l116 -367l-43 -28l-29 36v-570h-87z" />
    <glyph glyph-name="arrowright" unicode="&#x2192;" horiz-adv-x="950" 
d="M5 331h571q-6 5 -14.5 13t-17.5 18l23 42l344 -117l-343 -118l-23 41l36 32h-576v89z" />
    <glyph glyph-name="arrowdown" unicode="&#x2193;" horiz-adv-x="950" 
d="M530 196l44 -26l-117 -363l-114 364l46 23l25 -33v580h87v-582z" />
    <glyph glyph-name="arrowboth" unicode="&#x2194;" horiz-adv-x="950" 
d="M350 205l-22 -45l-335 126l336 126l24 -46l-37 -35h291l-40 35l24 46l338 -125l-336 -127l-23 45l38 37h-297z" />
    <glyph glyph-name="arrowupdn" unicode="&#x2195;" horiz-adv-x="950" 
d="M383 388l-44 26l118 355l119 -355l-43 -26l-32 38v-281l33 40l43 -26l-118 -354l-120 353l45 26l30 -38v281z" />
    <glyph glyph-name="uni2196" unicode="&#x2196;" horiz-adv-x="950" 
d="M843 -169l-637 668v-91l-48 -8l-143 363l343 -153l-9 -49h-79l631 -665z" />
    <glyph glyph-name="uni2197" unicode="&#x2197;" horiz-adv-x="950" 
d="M14 -115l636 670h-88l-8 50l349 151l-146 -359l-50 8v81l-631 -664z" />
    <glyph glyph-name="uni2198" unicode="&#x2198;" horiz-adv-x="950" 
d="M75 748l636 -669v90l48 8l143 -363l-341 154l6 50h80l-632 665z" />
    <glyph glyph-name="uni2199" unicode="&#x2199;" horiz-adv-x="950" 
d="M902 679l-635 -671h88l8 -50l-349 -149l146 358l50 -9v-80l632 664z" />
    <glyph glyph-name="uni219C" unicode="&#x219c;" 
d="M0 -58z" />
    <glyph glyph-name="uni219D" unicode="&#x219d;" 
d="M0 -58z" />
    <glyph glyph-name="uni21B0" unicode="&#x21b0;" 
d="M0 -58z" />
    <glyph glyph-name="uni21B1" unicode="&#x21b1;" 
d="M0 -58z" />
    <glyph glyph-name="uni21B2" unicode="&#x21b2;" 
d="M0 -58z" />
    <glyph glyph-name="uni21B3" unicode="&#x21b3;" 
d="M0 -58z" />
    <glyph glyph-name="uni21B4" unicode="&#x21b4;" 
d="M0 -58z" />
    <glyph glyph-name="uni21B6" unicode="&#x21b6;" 
d="M0 -58z" />
    <glyph glyph-name="uni21B7" unicode="&#x21b7;" 
d="M0 -58z" />
    <glyph glyph-name="uni21BC" unicode="&#x21bc;" 
d="M0 -58z" />
    <glyph glyph-name="uni21C0" unicode="&#x21c0;" 
d="M0 -58z" />
    <glyph glyph-name="uni21C4" unicode="&#x21c4;" 
d="M0 -58z" />
    <glyph glyph-name="uni21C5" unicode="&#x21c5;" 
d="M0 -58z" />
    <glyph glyph-name="uni21CD" unicode="&#x21cd;" 
d="M0 -58z" />
    <glyph glyph-name="uni21CF" unicode="&#x21cf;" 
d="M0 -58z" />
    <glyph glyph-name="arrowdblleft" unicode="&#x21d0;" 
d="M0 -58z" />
    <glyph glyph-name="arrowdblup" unicode="&#x21d1;" 
d="M0 -58z" />
    <glyph glyph-name="arrowdblright" unicode="&#x21d2;" horiz-adv-x="950" 
d="M582 402q-18 15 -40.5 32t-41.5 30l56 72l344 -250l-346 -251l-53 75l82 61h-566v88h690q12 7 17.5 12t17.5 15q-10 7 -18.5 13t-21.5 14h-685v89h565z" />
    <glyph glyph-name="arrowdbldown" unicode="&#x21d3;" 
d="M0 -58z" />
    <glyph glyph-name="arrowdblboth" unicode="&#x21d4;" horiz-adv-x="950" 
d="M593 403l-85 61l57 73l345 -250l-346 -251l-54 74l83 62h-271q22 -17 44.5 -32.5t41.5 -29.5l-56 -72l-345 249l350 253l51 -76l-82 -61h267zM715 259l39 27l-37 27h-517l-36 -25l36 -29h515z" />
    <glyph glyph-name="uni21E0" unicode="&#x21e0;" 
d="M0 -58z" />
    <glyph glyph-name="uni21E1" unicode="&#x21e1;" 
d="M0 -58z" />
    <glyph glyph-name="uni21E2" unicode="&#x21e2;" 
d="M0 -58z" />
    <glyph glyph-name="uni21E3" unicode="&#x21e3;" 
d="M0 -58z" />
    <glyph glyph-name="uni21E6" unicode="&#x21e6;" 
d="M0 -58z" />
    <glyph glyph-name="uni21E7" unicode="&#x21e7;" 
d="M0 -58z" />
    <glyph glyph-name="uni21E8" unicode="&#x21e8;" 
d="M0 -58z" />
    <glyph glyph-name="uni21E9" unicode="&#x21e9;" 
d="M0 -58z" />
    <glyph glyph-name="uni21F0" unicode="&#x21f0;" 
d="M0 -58z" />
    <glyph glyph-name="universal" unicode="&#x2200;" horiz-adv-x="950" 
d="M297 457h322l83 197h102l-305 -731h-81l-303 731h99zM581 368h-247l123 -299z" />
    <glyph glyph-name="partialdiff" unicode="&#x2202;" horiz-adv-x="950" 
d="M412 134q40 16 65.5 48t43.5 76q-23 -3 -48 -10.5t-47 -24.5q-16 -11 -24.5 -25t-13.5 -28q-4 -15 2 -28q7 -15 22 -8zM447 405q-17 -3 -30.5 -11t-20.5 -16q-23 -26 -39 -33t-29 11q-9 13 -4 32t19 31q26 27 61 48t83 20q34 -1 59.5 -16t44.5 -38q17 -25 28 -54.5
t11 -60.5q0 -42 -10 -74q-12 -34 -32.5 -68.5t-49.5 -61.5q-30 -27 -66 -44t-77 -17q-44 0 -71 23.5t-34 65.5q-6 30 5.5 58.5t32.5 52.5q21 25 50.5 43.5t62.5 27.5q22 5 47 7t42 2q-3 36 -22 56.5t-61 15.5z" />
    <glyph glyph-name="existential" unicode="&#x2203;" horiz-adv-x="950" 
d="M719 653v-731h-520v87h424v246h-399v90h399v218h-416v90h512z" />
    <glyph glyph-name="Delta" unicode="&#x2206;" 
d="M0 -58z" />
    <glyph glyph-name="gradient" unicode="&#x2207;" horiz-adv-x="950" 
d="M459 -64l-368 656h735zM243 503l217 -381l209 381h-426z" />
    <glyph glyph-name="element" unicode="&#x2208;" horiz-adv-x="950" 
d="M220 242q11 -69 58.5 -105t123.5 -39h390v-88h-381q-61 0 -112.5 19t-88.5 55q-39 35 -61.5 86.5t-22.5 116.5q0 63 21 113t59 86q76 72 205 76h381v-87h-390q-76 0 -124.5 -36.5t-57.5 -107.5h571v-89h-571z" />
    <glyph glyph-name="notelement" unicode="&#x2209;" 
d="M0 -58z" />
    <glyph glyph-name="suchthat" unicode="&#x220b;" horiz-adv-x="950" 
d="M127 242v89h570q-8 71 -56.5 107.5t-123.5 36.5h-391v87h379q64 -1 117 -20.5t90 -55.5q38 -36 59 -86t21 -113q0 -65 -22.5 -116.5t-60.5 -86.5q-38 -36 -90.5 -55t-113.5 -19h-379v88h391q75 3 122.5 39t57.5 105h-570z" />
    <glyph glyph-name="uni220C" unicode="&#x220c;" 
d="M0 -58z" />
    <glyph glyph-name="product" unicode="&#x220f;" horiz-adv-x="950" 
d="M774 617v-89h-153v-572h-88v572h-148v-572h-90v572h-151v89h630z" />
    <glyph glyph-name="summation" unicode="&#x2211;" horiz-adv-x="950" 
d="M734 617v-257h-89v168h-331l222 -241l-222 -242h338v168h89v-257h-516q-19 0 -34.5 10t-16.5 32q0 14 11.5 32t21.5 28l207 229l-220 241v89h540z" />
    <glyph glyph-name="uni2213" unicode="&#x2213;" 
d="M0 -58z" />
    <glyph glyph-name="radical" unicode="&#x221a;" horiz-adv-x="950" 
d="M90 167l119 86l57 -112q16 106 35 215t34 213h491v-89h-415l-88 -519q-1 -10 -12.5 -16.5t-21.5 -6.5q-20 0 -31 17l-83 163l-44 -34z" />
    <glyph glyph-name="proportional" unicode="&#x221d;" horiz-adv-x="950" 
d="M758 377q-25 20 -43 26t-39 6q-30 0 -50.5 -10.5t-34.5 -27.5q-17 -18 -28.5 -40t-20.5 -45q7 -23 18 -44.5t27 -39.5q15 -18 36.5 -28.5t52.5 -10.5q39 0 82 33l52 -74q-37 -25 -67.5 -37t-66.5 -12q-37 0 -66.5 8.5t-52.5 22.5q-24 16 -41 35t-28 41q-27 -46 -70 -76.5
t-106 -30.5q-43 0 -81 17t-66 47t-42.5 68t-14.5 82q0 43 14.5 81.5t43.5 68.5q27 28 65 46t81 18q68 0 110.5 -31.5t69.5 -83.5q31 51 72 83t112 32q68 0 133 -51zM195 287q0 -25 9 -47t25 -39q14 -17 35.5 -27.5t47.5 -10.5t47 10.5t37 27.5q14 18 26 39.5t21 45.5
q-8 21 -20.5 43.5t-27.5 39.5q-16 18 -37 29t-46 11t-46.5 -10.5t-35.5 -25.5q-17 -17 -26 -40t-9 -46z" />
    <glyph glyph-name="infinity" unicode="&#x221e;" horiz-adv-x="950" 
d="M302 475q43 0 79 -21t75 -78q27 43 63 71t97 28q36 0 69.5 -15.5t57.5 -42.5q25 -26 39.5 -59.5t14.5 -70.5t-14.5 -71t-39.5 -61q-24 -25 -57.5 -41t-69.5 -16q-53 0 -89.5 22.5t-66.5 73.5q-25 -44 -65 -70t-93 -26q-37 0 -70.5 15.5t-57.5 41.5q-25 26 -39.5 60
t-14.5 72t14.5 71.5t39.5 59.5q24 27 57.5 42t70.5 15zM704 287q0 18 -6.5 35.5t-17.5 30.5t-27.5 21.5t-36.5 8.5q-18 0 -35 -10t-29 -25q-14 -14 -22.5 -31t-13.5 -31q6 -15 15 -32t23 -30q12 -15 28 -24t34 -9q20 0 36.5 8t27.5 22q11 12 17.5 29t6.5 37zM213 287
q0 -20 7.5 -36.5t18.5 -29.5q11 -14 27 -22t36 -8t35.5 8t27.5 22q11 13 20.5 29.5t17.5 35.5q-8 17 -17.5 34.5t-20.5 31.5q-12 14 -27.5 22.5t-35.5 8.5t-36 -8.5t-27 -22.5q-11 -13 -18.5 -30t-7.5 -35z" />
    <glyph glyph-name="orthogonal" unicode="&#x221f;" 
d="M0 -58z" />
    <glyph glyph-name="angle" unicode="&#x2220;" horiz-adv-x="950" 
d="M287 62h500v-87h-613q-13 0 -25 7t-17 23q-5 15 5 28.5t19 23.5l526 557l65 -66z" />
    <glyph glyph-name="uni2222" unicode="&#x2222;" 
d="M0 -58z" />
    <glyph glyph-name="uni2225" unicode="&#x2225;" horiz-adv-x="950" 
d="M338 742h88v-910h-88v910zM490 742h88v-910h-88v910z" />
    <glyph glyph-name="uni2226" unicode="&#x2226;" 
d="M0 -58z" />
    <glyph glyph-name="logicaland" unicode="&#x2227;" horiz-adv-x="950" 
d="M700 -54l-241 519l-242 -519l-74 46l275 594q6 10 17.5 21t23.5 11q16 0 25 -10t16 -24l275 -594z" />
    <glyph glyph-name="logicalor" unicode="&#x2228;" horiz-adv-x="950" 
d="M775 585l-275 -594q-7 -13 -16 -23.5t-25 -10.5q-12 0 -23.5 11.5t-17.5 20.5l-275 594l74 45l242 -518l241 518z" />
    <glyph glyph-name="intersection" unicode="&#x2229;" horiz-adv-x="950" 
d="M465 553q-39 0 -71.5 -13t-58.5 -38q-24 -26 -38.5 -62.5t-14.5 -83.5v-408h-88v398q0 61 19 115t55 95q32 41 81 64.5t110 23.5q64 0 112.5 -23.5t82.5 -64.5t52 -95t18 -115v-398h-88v408q0 39 -11.5 74.5t-32.5 63.5q-23 27 -55 43t-72 16z" />
    <glyph glyph-name="union" unicode="&#x222a;" horiz-adv-x="950" 
d="M465 20q40 0 72 16t55 43q44 56 44 137v408h88v-397q0 -60 -18 -114.5t-52 -94.5q-34 -41 -82.5 -64.5t-112.5 -23.5q-61 0 -110 23.5t-81 64.5q-36 40 -55 94.5t-19 114.5v397h88v-408q0 -45 14.5 -82t38.5 -61q26 -27 58.5 -40t71.5 -13z" />
    <glyph glyph-name="integral" unicode="&#x222b;" horiz-adv-x="950" 
d="M413 402q6 56 18.5 104t30.5 84q18 37 40 60.5t49 32.5q21 7 39 0.5t30 -22.5q12 -15 13.5 -34.5t-12.5 -37.5q-27 -35 -58 -22q-5 2 -11.5 5t-12.5 4q-5 1 -8.5 -20.5t-6.5 -52.5q-1 -32 -3.5 -67t-3.5 -62q-2 -49 -6 -99t-9 -102q-12 -114 -48 -191q-17 -37 -40 -60.5
t-50 -29.5q-18 -3 -36 2.5t-33 22.5q-10 13 -11.5 30.5t5.5 31.5q4 9 13.5 16t19.5 12q8 4 18 5.5t17 -2.5q18 -8 25.5 5t10.5 42q8 86 9 170t11 175z" />
    <glyph glyph-name="uni222C" unicode="&#x222c;" horiz-adv-x="950" 
d="M299 402q15 114 49 188q18 37 40.5 60.5t49.5 32.5q21 7 39 0.5t30 -22.5q12 -15 13.5 -34.5t-12.5 -37.5q-27 -35 -60 -22l-10 5t-12 4q-5 1 -9 -20.5t-7 -52.5q-4 -32 -5.5 -67t-1.5 -62q-2 -49 -5.5 -99t-8.5 -102q-12 -114 -48 -191q-18 -37 -40.5 -60.5t-50.5 -29.5
q-18 -3 -36 2.5t-31 22.5q-11 13 -12.5 30.5t4.5 31.5q6 9 14.5 16t18.5 12q9 4 19 5.5t15 -2.5q21 -8 28 5t10 42q3 43 5 85t4 85q1 45 3 87.5t7 87.5zM526 402q14 114 49 188q18 37 41 60.5t48 32.5q21 7 40 0.5t30 -22.5q10 -15 12 -34.5t-11 -37.5q-28 -35 -58 -22
q-5 2 -12 5t-13 4q-5 1 -8.5 -20.5t-5.5 -52.5q-3 -32 -5 -67t-3 -62q-2 -49 -6 -99t-8 -102q-12 -114 -48 -191q-18 -37 -41 -60.5t-49 -29.5q-19 -3 -36.5 2.5t-32.5 22.5q-10 13 -11.5 30.5t5.5 31.5q3 9 13 16t19 12q9 4 19.5 5.5t15.5 -2.5q18 -8 25.5 5t10.5 42
q5 43 7 85t4 85q1 45 3.5 87.5t5.5 87.5z" />
    <glyph glyph-name="uni222E" unicode="&#x222e;" horiz-adv-x="950" 
d="M341 48q10 23 16.5 46.5t13.5 50.5q-26 23 -42 54t-16 66q0 30 10.5 57.5t30.5 50.5q19 21 45.5 34t54.5 12q13 36 24.5 61.5t19.5 40.5q23 38 54 58t61 15q55 -12 63 -57q2 -23 -6.5 -38.5t-21.5 -25.5q-15 -11 -35 -5t-35 22q-5 -10 -13 -33.5t-23 -68.5q28 -22 45 -55
t17 -68q0 -27 -11.5 -54t-29.5 -48q-21 -21 -47 -33.5t-54 -12.5q-13 -38 -24.5 -66t-25.5 -51q-23 -41 -52 -54t-56 -8q-28 4 -44.5 21.5t-18.5 33.5q-5 42 33 64q12 6 33 4.5t34 -13.5zM438 346q-23 -11 -35 -28t-16 -34q-3 -20 -0.5 -35.5t9.5 -25.5zM484 193
q5 2 17.5 11t21.5 23q7 15 9 35.5t-9 44.5z" />
    <glyph glyph-name="therefore" unicode="&#x2234;" horiz-adv-x="950" 
d="M679 132q12 0 25 -6t22 -16q10 -10 16 -22t6 -28q0 -14 -6 -26.5t-16 -22.5q-9 -10 -22 -15.5t-25 -5.5q-13 0 -25.5 5.5t-20.5 15.5q-11 10 -16 22.5t-5 26.5q0 16 5 28t16 22q8 10 20.5 16t25.5 6zM237 132q12 0 25 -6t22 -16q8 -10 15 -22t7 -28q0 -14 -7 -26.5
t-15 -22.5q-9 -10 -22 -15.5t-25 -5.5q-13 0 -25.5 5.5t-21.5 15.5q-11 10 -16 22.5t-5 26.5q0 16 5 28t16 22q9 10 21.5 16t25.5 6zM459 571q13 0 25 -5.5t22 -16.5q11 -8 16 -21t5 -27q0 -15 -5 -27.5t-16 -22.5q-10 -9 -22 -15t-25 -6q-14 0 -26 6t-22 15q-9 10 -15 22.5
t-6 27.5q0 14 6 27t15 21q10 11 22 16.5t26 5.5z" />
    <glyph glyph-name="uni2235" unicode="&#x2235;" horiz-adv-x="950" 
d="M679 441q-13 0 -25.5 5.5t-20.5 15.5q-11 9 -16 22t-5 27q0 15 5 27.5t16 22.5q8 9 20.5 15t25.5 6q12 0 25 -6t22 -15q10 -10 16 -22.5t6 -27.5q0 -14 -6 -27t-16 -22q-9 -10 -22 -15.5t-25 -5.5zM237 441q-13 0 -25.5 5.5t-21.5 15.5q-11 9 -16 22t-5 27q0 15 5 27.5
t16 22.5q9 9 21.5 15t25.5 6q12 0 25 -6t22 -15q8 -10 15 -22.5t7 -27.5q0 -14 -7 -27t-15 -22q-9 -10 -22 -15.5t-25 -5.5zM459 0q-14 0 -26 6t-22 16q-9 10 -15 22.5t-6 27.5q0 14 6 26.5t15 22.5q10 10 22 15.5t26 5.5q13 0 25 -5.5t22 -15.5q11 -10 16 -22.5t5 -26.5
q0 -15 -5 -27.5t-16 -22.5q-10 -10 -22 -16t-25 -6z" />
    <glyph glyph-name="uni2237" unicode="&#x2237;" 
d="M0 -58z" />
    <glyph glyph-name="similar" unicode="&#x223c;" horiz-adv-x="950" 
d="M92 213q3 51 20 98.5t48 83.5q30 36 71.5 55.5t96.5 14.5q56 -4 92 -33t64 -79q43 -75 113 -80q32 -1 55 11.5t38 36.5q16 22 26 52.5t18 62.5h90q-11 -50 -26.5 -95t-41.5 -80t-63 -56t-88 -22q-60 -2 -108 30t-79 85q-21 35 -47 57.5t-53 24.5q-35 2 -58 -10t-38 -34
q-17 -23 -26 -53.5t-15 -69.5h-89z" />
    <glyph glyph-name="uni223D" unicode="&#x223d;" horiz-adv-x="950" 
d="M650 515q45 -1 81 -17.5t63 -46.5q24 -28 37.5 -68t12.5 -85q-1 -41 -16 -77t-40 -63q-27 -26 -62 -42.5t-79 -16.5q-31 0 -68 10.5t-65 34.5l34 77q24 -13 51.5 -21.5t52.5 -8.5q42 0 72 31q28 30 30 71q1 53 -28 91q-14 17 -34 28.5t-46 13.5q-27 1 -50.5 -12.5
t-40.5 -34.5q-19 -22 -33 -48t-25 -48q-14 -33 -37 -67t-54 -61q-29 -27 -64 -42.5t-77 -11.5q-48 4 -82.5 22.5t-59.5 47.5q-50 56 -48 146q1 39 15.5 75t39.5 65q27 28 62 44t79 16q13 0 31.5 -4.5t35.5 -9.5q20 -7 36.5 -17.5t29.5 -23.5l-39 -74q-26 19 -50.5 29
t-47.5 10t-41.5 -8.5t-32.5 -21.5q-15 -14 -23 -33.5t-8 -40.5q0 -59 28 -95t81 -39q28 -3 51.5 11t41.5 37q17 21 30.5 45.5t24.5 46.5q18 33 38.5 66t46.5 61q27 28 63 44t83 15z" />
    <glyph glyph-name="uni2243" unicode="&#x2243;" 
d="M0 -58z" />
    <glyph glyph-name="congruent" unicode="&#x2245;" 
d="M0 -58z" />
    <glyph glyph-name="approxequal" unicode="&#x2248;" 
d="M0 -58z" />
    <glyph glyph-name="uni2250" unicode="&#x2250;" 
d="M0 -58z" />
    <glyph glyph-name="uni2251" unicode="&#x2251;" 
d="M0 -58z" />
    <glyph glyph-name="uni2252" unicode="&#x2252;" horiz-adv-x="950" 
d="M126 409h666v-94h-666v94zM126 257h666v-94h-666v94zM280 605q31 0 50.5 -22t19.5 -51t-19.5 -51.5t-50.5 -22.5q-32 0 -51.5 22.5t-19.5 51.5t19.5 51t51.5 22zM637 117q13 0 26.5 -7t22.5 -15q10 -11 16 -24t6 -28q0 -14 -6 -28t-16 -24q-9 -10 -22.5 -15.5t-26.5 -5.5
q-15 0 -27 5.5t-22 15.5q-24 24 -24 52q0 29 24 52q10 8 22 15t27 7z" />
    <glyph glyph-name="uni2253" unicode="&#x2253;" 
d="M0 -58z" />
    <glyph glyph-name="uni225A" unicode="&#x225a;" 
d="M0 -58z" />
    <glyph glyph-name="notequal" unicode="&#x2260;" horiz-adv-x="950" 
d="M437 425l70 218l91 -24l-60 -194h254v-94h-286l-29 -93h315v-95h-347l-74 -212l-92 16l66 196h-219v95h250q0 1 1 3.5t4 11.5q4 9 9.5 27.5t15.5 50.5h-280v94h311z" />
    <glyph glyph-name="equivalence" unicode="&#x2261;" horiz-adv-x="950" 
d="M126 474h666v-88h-666v88zM126 331h666v-89h-666v89zM126 188h666v-89h-666v89z" />
    <glyph glyph-name="uni2262" unicode="&#x2262;" 
d="M0 -58z" />
    <glyph glyph-name="lessequal" unicode="&#x2264;" horiz-adv-x="950" 
d="M118 83h623l-571 252q-11 5 -23.5 18t-12.5 27q0 8 7.5 20t19.5 18l591 262l32 -88l-474 -212l477 -212l-43 -85h55v-95h-681v95z" />
    <glyph glyph-name="greaterequal" unicode="&#x2265;" horiz-adv-x="950" 
d="M799 -12h-681v95h53l-41 86l476 211l-474 212l33 88l590 -262q14 -6 20.5 -18t6.5 -20q0 -14 -12 -27t-23 -18l-573 -252h625v-95z" />
    <glyph glyph-name="uni2266" unicode="&#x2266;" 
d="M0 -58z" />
    <glyph glyph-name="uni2267" unicode="&#x2267;" 
d="M0 -58z" />
    <glyph glyph-name="uni226A" unicode="&#x226a;" horiz-adv-x="950" 
d="M561 647l52 -69l-398 -291l399 -292l-56 -66l-436 319q-10 8 -18.5 16.5t-8.5 22.5q0 13 9.5 22t18.5 18zM767 647l53 -69l-398 -291l399 -292l-58 -65l-434 318q-11 8 -18.5 16.5t-7.5 22.5q0 12 8.5 21.5t17.5 18.5z" />
    <glyph glyph-name="uni226B" unicode="&#x226b;" horiz-adv-x="950" 
d="M794 327q10 -9 18.5 -18t8.5 -22q0 -14 -7.5 -22.5t-19.5 -16.5l-434 -319l-57 66l396 292l-395 291l54 69zM587 327q11 -9 19 -18.5t8 -21.5q0 -14 -7 -22.5t-19 -16.5l-433 -318l-60 65l398 292l-397 291l55 69z" />
    <glyph glyph-name="uni226E" unicode="&#x226e;" 
d="M0 -58z" />
    <glyph glyph-name="uni226F" unicode="&#x226f;" 
d="M0 -58z" />
    <glyph glyph-name="uni2270" unicode="&#x2270;" 
d="M0 -58z" />
    <glyph glyph-name="uni2271" unicode="&#x2271;" 
d="M0 -58z" />
    <glyph glyph-name="uni2272" unicode="&#x2272;" 
d="M0 -58z" />
    <glyph glyph-name="uni2273" unicode="&#x2273;" 
d="M0 -58z" />
    <glyph glyph-name="uni2276" unicode="&#x2276;" 
d="M0 -58z" />
    <glyph glyph-name="uni2277" unicode="&#x2277;" 
d="M0 -58z" />
    <glyph glyph-name="uni2279" unicode="&#x2279;" 
d="M0 -58z" />
    <glyph glyph-name="uni227A" unicode="&#x227a;" 
d="M0 -58z" />
    <glyph glyph-name="uni227B" unicode="&#x227b;" 
d="M0 -58z" />
    <glyph glyph-name="uni2280" unicode="&#x2280;" 
d="M0 -58z" />
    <glyph glyph-name="uni2281" unicode="&#x2281;" 
d="M0 -58z" />
    <glyph glyph-name="propersubset" unicode="&#x2282;" horiz-adv-x="950" 
d="M216 291q0 -41 13.5 -75t39.5 -59q22 -24 57.5 -39.5t75.5 -19.5h390v-88h-381q-61 0 -112.5 19t-88.5 55q-39 35 -61.5 86.5t-22.5 116.5q0 63 21 113t59 86q37 36 89.5 56t115.5 20h381v-87h-390q-39 0 -73 -13.5t-57 -36.5q-26 -26 -40.5 -59.5t-15.5 -74.5z" />
    <glyph glyph-name="propersuperset" unicode="&#x2283;" horiz-adv-x="950" 
d="M700 291q-2 41 -15 74.5t-39 59.5q-25 23 -58 36.5t-71 13.5h-391v87h379q64 0 117 -20t90 -56q38 -36 59 -86t21 -113q0 -65 -22.5 -116.5t-60.5 -86.5q-38 -36 -90.5 -55t-113.5 -19h-379v88h391q40 4 74.5 19.5t57.5 39.5q26 25 38.5 59t12.5 75z" />
    <glyph glyph-name="notsubset" unicode="&#x2284;" 
d="M0 -58z" />
    <glyph glyph-name="uni2285" unicode="&#x2285;" 
d="M0 -58z" />
    <glyph glyph-name="reflexsubset" unicode="&#x2286;" horiz-adv-x="950" 
d="M118 62h681v-87h-681v87zM207 358q0 -35 14 -64.5t39 -49.5q50 -43 133 -38h389v-89h-379q-62 -3 -113.5 12.5t-89.5 48.5q-39 31 -60.5 76.5t-21.5 103.5t21.5 103t60.5 79q38 30 89.5 45.5t113.5 13.5h379v-90h-389q-41 3 -75 -6.5t-58 -29.5q-25 -21 -39 -50t-14 -65z
" />
    <glyph glyph-name="reflexsuperset" unicode="&#x2287;" horiz-adv-x="950" 
d="M799 -25h-681v87h681v-87zM710 358q0 36 -14 65t-39 50q-53 42 -133 36h-390v90h381q60 2 112 -13.5t91 -45.5q37 -34 59 -79t22 -103t-22 -103.5t-59 -76.5q-39 -33 -91 -48.5t-112 -12.5h-381v89h390q80 -4 133 38q25 20 39 49.5t14 64.5z" />
    <glyph glyph-name="uni228A" unicode="&#x228a;" 
d="M0 -58z" />
    <glyph glyph-name="uni228B" unicode="&#x228b;" 
d="M0 -58z" />
    <glyph glyph-name="circleplus" unicode="&#x2295;" 
d="M0 -58z" />
    <glyph glyph-name="uni2296" unicode="&#x2296;" 
d="M0 -58z" />
    <glyph glyph-name="circlemultiply" unicode="&#x2297;" 
d="M0 -58z" />
    <glyph glyph-name="uni2299" unicode="&#x2299;" horiz-adv-x="950" 
d="M460 679q79 0 148 -32t118 -87q50 -56 79 -126t29 -148q0 -79 -29.5 -150t-78.5 -124q-50 -55 -119 -86t-147 -31q-82 0 -150 30.5t-117 85.5q-53 52 -81.5 124t-28.5 151q0 78 29.5 148.5t80.5 126.5q49 53 118 85.5t149 32.5zM460 582q-61 0 -113.5 -23.5t-89.5 -64.5
q-38 -41 -59.5 -94.5t-21.5 -113.5q0 -61 21.5 -114.5t59.5 -93.5q37 -41 89.5 -65t113.5 -24q62 0 112 24.5t87 64.5q38 41 59.5 94.5t21.5 113.5q0 58 -21.5 111.5t-60.5 94.5q-37 41 -87.5 65.5t-110.5 24.5zM460 458q33 0 63.5 -15t53.5 -37q23 -24 36 -56t13 -65
q0 -34 -13 -64.5t-36 -55.5q-22 -24 -52.5 -38t-64.5 -14t-64.5 14t-52.5 38q-22 25 -36 55.5t-14 64.5q0 33 14 65t36 56q22 22 52.5 37t64.5 15z" />
    <glyph glyph-name="uni22A3" unicode="&#x22a3;" 
d="M0 -58z" />
    <glyph glyph-name="uni22A4" unicode="&#x22a4;" 
d="M0 -58z" />
    <glyph glyph-name="perpendicular" unicode="&#x22a5;" horiz-adv-x="950" 
d="M144 62h268v519h93v-519h269v-88h-630v88z" />
    <glyph glyph-name="uni22BB" unicode="&#x22bb;" 
d="M0 -58z" />
    <glyph glyph-name="uni22BC" unicode="&#x22bc;" 
d="M0 -58z" />
    <glyph glyph-name="uni22CE" unicode="&#x22ce;" 
d="M0 -58z" />
    <glyph glyph-name="uni22CF" unicode="&#x22cf;" 
d="M0 -58z" />
    <glyph glyph-name="uni22DA" unicode="&#x22da;" 
d="M0 -58z" />
    <glyph glyph-name="uni22DB" unicode="&#x22db;" 
d="M0 -58z" />
    <glyph glyph-name="uni22EE" unicode="&#x22ee;" 
d="M0 -58z" />
    <glyph glyph-name="uni2306" unicode="&#x2306;" 
d="M0 -58z" />
    <glyph glyph-name="uni2312" unicode="&#x2312;" horiz-adv-x="950" 
d="M122 291q8 69 37.5 129t73.5 104q45 44 102.5 70t121.5 26q66 0 123.5 -26t103.5 -70q44 -44 73.5 -104t36.5 -129h-95q-7 49 -28.5 92.5t-52.5 75.5q-32 32 -73 50.5t-88 18.5q-46 0 -86.5 -18.5t-71.5 -50.5q-30 -32 -52 -75.5t-32 -92.5h-93z" />
    <glyph glyph-name="uni2314" unicode="&#x2314;" 
d="M0 -58z" />
    <glyph glyph-name="uni2460" unicode="&#x2460;" horiz-adv-x="1000" 
d="M36 287q0 92 35 173.5t95 141.5q61 60 142 96t176 36q92 0 173 -36t143 -96q59 -60 94.5 -141.5t35.5 -173.5q0 -93 -35.5 -174.5t-94.5 -142.5q-62 -60 -143 -95t-173 -35q-94 0 -175.5 35t-142.5 96q-60 61 -95 142t-35 174zM116 287q0 -76 28.5 -142.5t79.5 -117.5
q50 -50 116 -78.5t144 -28.5q75 0 141.5 28.5t116.5 78.5q52 51 80.5 117.5t28.5 142.5q0 75 -28.5 142t-80.5 117q-50 51 -116.5 80t-141.5 29q-78 0 -144 -29t-116 -80q-51 -50 -79.5 -117t-28.5 -142zM559 500q0 33 -3.5 50.5t-13.5 27.5q-10 7 -28.5 8.5t-46.5 1.5h-81
q-9 0 -9 -7v-85q0 -8 9 -8h25q30 0 37 -6t7 -36v-462q0 -5 10 -5h86q8 0 8 5v516z" />
    <glyph glyph-name="uni2461" unicode="&#x2461;" horiz-adv-x="1000" 
d="M36 287q0 92 35 173.5t95 141.5q61 60 142 96t176 36q92 0 173 -36t143 -96q59 -60 94.5 -141.5t35.5 -173.5q0 -93 -35.5 -174.5t-94.5 -142.5q-62 -60 -143 -95t-173 -35q-94 0 -175.5 35t-142.5 96q-60 61 -95 142t-35 174zM116 287q0 -76 28.5 -142.5t79.5 -117.5
q50 -50 116 -78.5t144 -28.5q75 0 141.5 28.5t116.5 78.5q52 51 80.5 117.5t28.5 142.5q0 75 -28.5 142t-80.5 117q-50 51 -116.5 80t-141.5 29q-78 0 -144 -29t-116 -80q-51 -50 -79.5 -117t-28.5 -142zM695 -3h-398q-7 0 -11 4t-4 13v147q0 28 8.5 50t24.5 39
q13 16 29 28.5t27 20.5q22 12 56.5 27t66.5 31q33 16 58 33t28 37q6 39 -16 53t-80 14h-184v81q0 10 4.5 12.5t13.5 2.5h175q49 0 86.5 -6t62.5 -24q26 -17 39 -46t14 -74q0 -29 -12.5 -53t-33.5 -43q-19 -20 -43.5 -36t-43.5 -25q-38 -19 -69 -32t-54 -26
q-24 -15 -37 -32.5t-13 -42.5v-47q0 -3 1 -5q2 -4 8 -4h297v-97z" />
    <glyph glyph-name="uni2462" unicode="&#x2462;" horiz-adv-x="1000" 
d="M36 287q0 92 35 173.5t95 141.5q61 60 142 96t176 36q92 0 173 -36t143 -96q59 -60 94.5 -141.5t35.5 -173.5q0 -93 -35.5 -174.5t-94.5 -142.5q-62 -60 -143 -95t-173 -35q-94 0 -175.5 35t-142.5 96q-60 61 -95 142t-35 174zM116 287q0 -76 28.5 -142.5t79.5 -117.5
q50 -50 116 -78.5t144 -28.5q75 0 141.5 28.5t116.5 78.5q52 51 80.5 117.5t28.5 142.5q0 75 -28.5 142t-80.5 117q-50 51 -116.5 80t-141.5 29q-78 0 -144 -29t-116 -80q-51 -50 -79.5 -117t-28.5 -142zM551 -3q42 0 72.5 17t51.5 43q18 26 28.5 58.5t10.5 63.5
q0 12 -2 29.5t-10 37.5q-6 18 -18.5 35t-37.5 28q27 15 42 48t15 78q0 84 -46.5 119.5t-131.5 35.5h-202q-6 0 -6 -6v-80q0 -7 6 -7h199q29 0 49 -15.5t20 -39.5v-23q0 -10 -4 -20.5t-10 -16.5q-8 -9 -19.5 -14.5t-29.5 -5.5h-156v-98h130q19 0 34.5 -4.5t27.5 -12.5
q12 -9 20 -22t8 -30v-25q0 -22 -9.5 -37t-21.5 -24q-15 -10 -30.5 -14t-30.5 -4h-186q-6 0 -6 -8v-80q0 -6 6 -6h237z" />
    <glyph glyph-name="uni2463" unicode="&#x2463;" horiz-adv-x="1000" 
d="M36 287q0 92 35 173.5t95 141.5q61 60 142 96t176 36q92 0 173 -36t143 -96q59 -60 94.5 -141.5t35.5 -173.5q0 -93 -35.5 -174.5t-94.5 -142.5q-62 -60 -143 -95t-173 -35q-94 0 -175.5 35t-142.5 96q-60 61 -95 142t-35 174zM116 287q0 -76 28.5 -142.5t79.5 -117.5
q50 -50 116 -78.5t144 -28.5q75 0 141.5 28.5t116.5 78.5q52 51 80.5 117.5t28.5 142.5q0 75 -28.5 142t-80.5 117q-50 51 -116.5 80t-141.5 29q-78 0 -144 -29t-116 -80q-51 -50 -79.5 -117t-28.5 -142zM520 588q-12 0 -19.5 -3t-16.5 -18l-247 -353v-96q0 -8 7 -8h266
v-116q0 -7 8 -7h83q7 0 7 7v116h77q7 0 7 8v79q0 8 -7 8h-77v339q0 23 -9 33.5t-37 10.5h-42zM348 205l162 234v-234h-162z" />
    <glyph glyph-name="uni2464" unicode="&#x2464;" horiz-adv-x="1000" 
d="M36 287q0 92 35 173.5t95 141.5q61 60 142 96t176 36q92 0 173 -36t143 -96q59 -60 94.5 -141.5t35.5 -173.5q0 -93 -35.5 -174.5t-94.5 -142.5q-62 -60 -143 -95t-173 -35q-94 0 -175.5 35t-142.5 96q-60 61 -95 142t-35 174zM116 287q0 -76 28.5 -142.5t79.5 -117.5
q50 -50 116 -78.5t144 -28.5q75 0 141.5 28.5t116.5 78.5q52 51 80.5 117.5t28.5 142.5q0 75 -28.5 142t-80.5 117q-50 51 -116.5 80t-141.5 29q-78 0 -144 -29t-116 -80q-51 -50 -79.5 -117t-28.5 -142zM302 -9h266q28 0 49 5.5t34 21.5q16 13 23 36.5t7 58.5v106
q0 71 -29 100.5t-99 29.5h-99q-17 0 -29 1.5t-19 7.5q-6 6 -8.5 17t-2.5 29v41q0 28 5.5 37t35.5 9h215q7 0 7 8v80q0 6 -7 6h-299q-20 0 -30.5 -5t-15.5 -14q-8 -8 -10 -18.5t-2 -20.5v-159q0 -42 11 -65t27 -32q18 -12 42 -14t52 -2h94q20 0 32 -1.5t19 -7.5q6 -7 8 -19
t2 -31v-54q0 -22 -3 -33.5t-12 -16.5t-25.5 -6t-42.5 -1h-196q-8 0 -8 -7v-80q0 -7 8 -7z" />
    <glyph glyph-name="uni2465" unicode="&#x2465;" horiz-adv-x="1000" 
d="M36 287q0 92 35 173.5t95 141.5q61 60 142 96t176 36q92 0 173 -36t143 -96q59 -60 94.5 -141.5t35.5 -173.5q0 -93 -35.5 -174.5t-94.5 -142.5q-62 -60 -143 -95t-173 -35q-94 0 -175.5 35t-142.5 96q-60 61 -95 142t-35 174zM116 287q0 -76 28.5 -142.5t79.5 -117.5
q50 -50 116 -78.5t144 -28.5q75 0 141.5 28.5t116.5 78.5q52 51 80.5 117.5t28.5 142.5q0 75 -28.5 142t-80.5 117q-50 51 -116.5 80t-141.5 29q-78 0 -144 -29t-116 -80q-51 -50 -79.5 -117t-28.5 -142zM552 490q13 0 18 -8.5t5 -28.5v-11q0 -8 7 -8h82q9 0 9 8v22
q0 34 -6.5 57t-17.5 38q-11 14 -32 20.5t-52 6.5h-165q-34 0 -56 -5.5t-34 -19.5q-16 -14 -21 -35.5t-5 -52.5v-369q0 -33 7 -56t24 -33q14 -14 39 -18.5t60 -4.5h142q35 0 59.5 5t39.5 20q17 13 23.5 36.5t6.5 58.5v117q0 63 -27.5 88.5t-93.5 25.5h-155q-6 0 -13 -1
t-11 -3v127q0 15 7 19.5t26 4.5h134zM586 134q0 -22 -9.5 -34t-31.5 -12h-119q-23 0 -32 12t-9 34v99q0 7 5 10.5t11 3.5h151q19 0 26.5 -5.5t7.5 -18.5v-89z" />
    <glyph glyph-name="uni2466" unicode="&#x2466;" horiz-adv-x="1000" 
d="M36 287q0 92 35 173.5t95 141.5q61 60 142 96t176 36q92 0 173 -36t143 -96q59 -60 94.5 -141.5t35.5 -173.5q0 -93 -35.5 -174.5t-94.5 -142.5q-62 -60 -143 -95t-173 -35q-94 0 -175.5 35t-142.5 96q-60 61 -95 142t-35 174zM116 287q0 -76 28.5 -142.5t79.5 -117.5
q50 -50 116 -78.5t144 -28.5q75 0 141.5 28.5t116.5 78.5q52 51 80.5 117.5t28.5 142.5q0 75 -28.5 142t-80.5 117q-50 51 -116.5 80t-141.5 29q-78 0 -144 -29t-116 -80q-51 -50 -79.5 -117t-28.5 -142zM430 0q-4 -8 0 -11t8 -3h86q6 0 10 4.5t6 9.5q38 102 68 188
q13 36 25.5 72t23.5 67q11 28 17 49.5t7 29.5q1 7 1.5 18.5t1.5 21.5q1 12 1 24q0 61 -20.5 86t-72.5 25h-204q-50 0 -71 -23.5t-21 -83.5v-68q0 -8 8 -8h83q6 0 6 8v47q0 18 8 25t23 7h120q22 0 28 -7.5t6 -28.5v-16q0 -7 -0.5 -15.5t-2.5 -12.5q-2 -8 -8 -29.5t-18 -50.5
q-11 -31 -23.5 -66.5t-26.5 -72.5q-31 -84 -69 -186z" />
    <glyph glyph-name="uni2467" unicode="&#x2467;" horiz-adv-x="1000" 
d="M36 287q0 92 35 173.5t95 141.5q61 60 142 96t176 36q92 0 173 -36t143 -96q59 -60 94.5 -141.5t35.5 -173.5q0 -93 -35.5 -174.5t-94.5 -142.5q-62 -60 -143 -95t-173 -35q-94 0 -175.5 35t-142.5 96q-60 61 -95 142t-35 174zM116 287q0 -76 28.5 -142.5t79.5 -117.5
q50 -50 116 -78.5t144 -28.5q75 0 141.5 28.5t116.5 78.5q52 51 80.5 117.5t28.5 142.5q0 75 -28.5 142t-80.5 117q-50 51 -116.5 80t-141.5 29q-78 0 -144 -29t-116 -80q-51 -50 -79.5 -117t-28.5 -142zM564 -4q56 0 91.5 36t35.5 102v51q0 27 -6.5 47t-15.5 34
q-11 16 -21.5 25t-20.5 14q9 5 18.5 13.5t18.5 20.5q10 12 15.5 30t5.5 44v35q0 67 -40.5 104t-115.5 37h-90q-76 0 -116 -37t-40 -104v-35q0 -27 6 -46t17 -30q8 -12 17.5 -19.5t17.5 -12.5q-8 -5 -19 -15t-22 -26q-10 -14 -17 -34t-7 -45v-51q0 -66 36 -102t91 -36h161z
M515 260q32 0 54.5 -20.5t22.5 -53.5v-32q0 -22 -5.5 -36t-15.5 -19q-9 -6 -25.5 -7.5t-35.5 -1.5h-51q-22 0 -38 2.5t-25 8.5q-10 7 -15 20t-5 33v32q0 23 8 37t19 23q12 7 26 10.5t23 3.5h63zM507 496q23 0 39 -6t23 -15q9 -10 12.5 -20.5t3.5 -19.5v-20q0 -19 -8.5 -31
t-19.5 -19q-12 -7 -24.5 -9t-22.5 -2h-51q-45 0 -60 15.5t-15 45.5v20q0 32 18 46.5t59 14.5h46z" />
    <glyph glyph-name="uni2468" unicode="&#x2468;" horiz-adv-x="1000" 
d="M36 287q0 92 35 173.5t95 141.5q61 60 142 96t176 36q92 0 173 -36t143 -96q59 -60 94.5 -141.5t35.5 -173.5q0 -93 -35.5 -174.5t-94.5 -142.5q-62 -60 -143 -95t-173 -35q-94 0 -175.5 35t-142.5 96q-60 61 -95 142t-35 174zM116 287q0 -76 28.5 -142.5t79.5 -117.5
q50 -50 116 -78.5t144 -28.5q75 0 141.5 28.5t116.5 78.5q52 51 80.5 117.5t28.5 142.5q0 75 -28.5 142t-80.5 117q-50 51 -116.5 80t-141.5 29q-78 0 -144 -29t-116 -80q-51 -50 -79.5 -117t-28.5 -142zM550 86h-223q-6 0 -6 -8v-79q0 -7 6 -7h241q33 0 55 5.5t35 20.5
q16 13 21 34.5t5 51.5v369q0 33 -7 56t-24 35q-14 13 -39 17.5t-60 4.5h-142q-35 0 -59.5 -5t-39.5 -19q-17 -15 -24 -37.5t-7 -59.5v-116q0 -63 28 -88.5t94 -25.5h155q6 0 13 1t11 3v-128q0 -14 -7 -19.5t-26 -5.5zM383 445q0 20 9 32.5t32 12.5h118q23 0 32 -12.5
t9 -32.5v-99q0 -8 -5 -11.5t-11 -3.5h-151q-19 0 -26 5.5t-7 18.5v90z" />
    <glyph glyph-name="uni2469" unicode="&#x2469;" horiz-adv-x="1000" 
d="M757 362q0 54 -10.5 91.5t-30.5 60.5q-24 24 -57 34.5t-79 10.5q-93 0 -135.5 -46t-42.5 -151v-162q0 -55 9 -91.5t32 -60.5q22 -24 55 -34.5t82 -10.5q48 0 81.5 10t55.5 34q20 24 30 60.5t10 92.5v162zM580 97q-32 0 -49.5 8t-27.5 25q-9 15 -11 40t-2 60v103
q0 33 2 58t11 42q10 16 27.5 24t49.5 8q27 0 44.5 -7.5t26.5 -22.5q8 -17 12 -42t4 -60v-103q0 -36 -4 -61.5t-12 -39.5q-9 -17 -26.5 -24.5t-44.5 -7.5zM368 16q0 -8 -6 -8h-80q-6 0 -6 8v424q0 19 -10 22.5t-26 3.5q-7 0 -7 9v74q0 8 7 8h44q27 0 43.5 -1.5t25.5 -8.5
q10 -7 12.5 -24t2.5 -45v-462zM36 287q0 92 35 173.5t95 141.5q61 60 142 96t176 36q92 0 173 -36t143 -96q59 -60 94.5 -141.5t35.5 -173.5q0 -93 -35.5 -174.5t-94.5 -142.5q-62 -60 -143 -95t-173 -35q-94 0 -175.5 35t-142.5 96q-60 61 -95 142t-35 174zM116 287
q0 -76 28.5 -142.5t79.5 -117.5q50 -50 116 -78.5t144 -28.5q75 0 141.5 28.5t116.5 78.5q52 51 80.5 117.5t28.5 142.5q0 75 -28.5 142t-80.5 117q-50 51 -116.5 80t-141.5 29q-78 0 -144 -29t-116 -80q-51 -50 -79.5 -117t-28.5 -142z" />
    <glyph glyph-name="uni246A" unicode="&#x246a;" horiz-adv-x="1000" 
d="M36 287q0 92 35 173.5t95 141.5q61 60 142 96t176 36q92 0 173 -36t143 -96q59 -60 94.5 -141.5t35.5 -173.5q0 -93 -35.5 -174.5t-94.5 -142.5q-62 -60 -143 -95t-173 -35q-94 0 -175.5 35t-142.5 96q-60 61 -95 142t-35 174zM116 287q0 -76 28.5 -142.5t79.5 -117.5
q50 -50 116 -78.5t144 -28.5q75 0 141.5 28.5t116.5 78.5q52 51 80.5 117.5t28.5 142.5q0 75 -28.5 142t-80.5 117q-50 51 -116.5 80t-141.5 29q-78 0 -144 -29t-116 -80q-51 -50 -79.5 -117t-28.5 -142zM416 478q0 28 -3 45t-11 24q-10 7 -26 8.5t-44 1.5h-73q-8 0 -8 -8
v-74q0 -9 8 -9h24q27 0 33.5 -5t6.5 -31v-414q0 -8 6 -8h79q8 0 8 8v462zM687 478q0 28 -2.5 45t-10.5 24q-11 7 -27 8.5t-43 1.5h-74q-6 0 -6 -8v-74q0 -9 6 -9h25q26 0 33 -5t7 -31v-414q0 -8 6 -8h79q7 0 7 8v462z" />
    <glyph glyph-name="uni246B" unicode="&#x246b;" horiz-adv-x="1000" 
d="M36 287q0 92 35 173.5t95 141.5q61 60 142 96t176 36q92 0 173 -36t143 -96q59 -60 94.5 -141.5t35.5 -173.5q0 -93 -35.5 -174.5t-94.5 -142.5q-62 -60 -143 -95t-173 -35q-94 0 -175.5 35t-142.5 96q-60 61 -95 142t-35 174zM116 287q0 -76 28.5 -142.5t79.5 -117.5
q50 -50 116 -78.5t144 -28.5q69 0 132 25t112 69h-303q-7 0 -12 3.5t-5 10.5v133q0 24 9 44t22 36q10 14 25 25.5t25 18.5q21 11 45.5 24.5t46.5 27.5t39 30t19 32q5 37 -15 49t-72 12h-126v73q0 10 3.5 12t12.5 2h120q42 0 76 -6t56 -21q24 -16 35.5 -42t12.5 -67
q1 -49 -22 -86t-61 -54q-31 -17 -59.5 -28.5t-48.5 -24.5q-22 -14 -34 -29t-12 -38v-42q0 -4 1 -6q2 -3 8 -3h248v-53q42 50 65.5 110.5t23.5 129.5q0 75 -28.5 142t-80.5 117q-50 51 -116.5 80t-141.5 29q-78 0 -144 -29t-116 -80q-51 -50 -79.5 -117t-28.5 -142zM368 16
q0 -8 -6 -8h-80q-6 0 -6 8v424q0 19 -10 22.5t-26 3.5q-7 0 -7 9v74q0 8 7 8h44q27 0 43.5 -1.5t25.5 -8.5q10 -7 12.5 -24t2.5 -45v-462z" />
    <glyph glyph-name="uni246C" unicode="&#x246c;" horiz-adv-x="1000" 
d="M615 12q37 0 65 15t46 40q16 23 25 52t9 57q0 10 -1.5 26.5t-6.5 33.5q-6 16 -18 32t-34 24q24 13 38.5 43.5t14.5 70.5q0 77 -41.5 108.5t-119.5 31.5h-152q-6 0 -6 -5v-74q0 -5 6 -5h148q27 0 44.5 -13.5t17.5 -36.5v-20q0 -8 -2.5 -17t-8.5 -17q-7 -8 -18.5 -12.5
t-25.5 -4.5h-141v-89h118q31 0 55.5 -15t24.5 -46v-23q0 -20 -7.5 -33.5t-21.5 -21.5q-13 -10 -27 -13t-26 -3h-139q-5 0 -5 -7v-71q0 -7 4 -7h185zM368 16q0 -8 -6 -8h-80q-6 0 -6 8v424q0 19 -10 22.5t-26 3.5q-7 0 -7 9v74q0 8 7 8h44q27 0 43.5 -1.5t25.5 -8.5
q10 -7 12.5 -24t2.5 -45v-462zM36 287q0 92 35 173.5t95 141.5q61 60 142 96t176 36q92 0 173 -36t143 -96q59 -60 94.5 -141.5t35.5 -173.5q0 -93 -35.5 -174.5t-94.5 -142.5q-62 -60 -143 -95t-173 -35q-94 0 -175.5 35t-142.5 96q-60 61 -95 142t-35 174zM116 287
q0 -76 28.5 -142.5t79.5 -117.5q50 -50 116 -78.5t144 -28.5q75 0 141.5 28.5t116.5 78.5q52 51 80.5 117.5t28.5 142.5q0 75 -28.5 142t-80.5 117q-50 51 -116.5 80t-141.5 29q-78 0 -144 -29t-116 -80q-51 -50 -79.5 -117t-28.5 -142z" />
    <glyph glyph-name="uni246D" unicode="&#x246d;" horiz-adv-x="1000" 
d="M368 16q0 -8 -6 -8h-80q-6 0 -6 8v424q0 19 -10 22.5t-26 3.5q-7 0 -7 9v74q0 8 7 8h44q27 0 43.5 -1.5t25.5 -8.5q10 -7 12.5 -24t2.5 -45v-462zM36 287q0 92 35 173.5t95 141.5q61 60 142 96t176 36q92 0 173 -36t143 -96q59 -60 94.5 -141.5t35.5 -173.5
q0 -93 -35.5 -174.5t-94.5 -142.5q-62 -60 -143 -95t-173 -35q-94 0 -175.5 35t-142.5 96q-60 61 -95 142t-35 174zM116 287q0 -76 28.5 -142.5t79.5 -117.5q50 -50 116 -78.5t144 -28.5q75 0 141.5 28.5t116.5 78.5q52 51 80.5 117.5t28.5 142.5q0 75 -28.5 142t-80.5 117
q-50 51 -116.5 80t-141.5 29q-78 0 -144 -29t-116 -80q-51 -50 -79.5 -117t-28.5 -142zM609 548q-8 0 -14.5 -2.5t-16.5 -15.5l-173 -317v-87q0 -8 7 -8h189v-104q0 -7 7 -7h77q6 0 6 7v104h69q7 0 7 8v70q0 8 -7 8h-69v304q0 22 -8 31t-36 9h-38zM505 204l96 209v-209h-96z
" />
    <glyph glyph-name="uni246E" unicode="&#x246e;" horiz-adv-x="1000" 
d="M368 16q0 -8 -6 -8h-80q-6 0 -6 8v424q0 19 -10 22.5t-26 3.5q-7 0 -7 9v74q0 8 7 8h44q27 0 43.5 -1.5t25.5 -8.5q10 -7 12.5 -24t2.5 -45v-462zM36 287q0 92 35 173.5t95 141.5q61 60 142 96t176 36q92 0 173 -36t143 -96q59 -60 94.5 -141.5t35.5 -173.5
q0 -93 -35.5 -174.5t-94.5 -142.5q-62 -60 -143 -95t-173 -35q-94 0 -175.5 35t-142.5 96q-60 61 -95 142t-35 174zM116 287q0 -76 28.5 -142.5t79.5 -117.5q50 -50 116 -78.5t144 -28.5q75 0 141.5 28.5t116.5 78.5q52 51 80.5 117.5t28.5 142.5q0 75 -28.5 142t-80.5 117
q-50 51 -116.5 80t-141.5 29q-78 0 -144 -29t-116 -80q-51 -50 -79.5 -117t-28.5 -142zM417 11h222q47 0 73 23.5t26 86.5v94q0 65 -25.5 92t-89.5 27h-68q-17 0 -27 1.5t-16 6.5q-7 4 -9 14t-2 27v36q0 26 5.5 34t30.5 8h177q6 0 6 5v74q0 5 -6 5h-251q-18 0 -27.5 -4.5
t-15.5 -11.5q-6 -8 -7.5 -17t-1.5 -19v-143q0 -38 9.5 -58t24.5 -31q16 -9 37 -10.5t46 -1.5h66q18 0 29.5 -1.5t16.5 -7.5t6.5 -16.5t1.5 -28.5v-49q0 -18 -2 -29.5t-9 -15.5q-9 -4 -23.5 -4.5t-38.5 -0.5h-158q-6 0 -6 -7v-71q0 -7 6 -7z" />
    <glyph glyph-name="uni246F" unicode="&#x246f;" 
d="M0 -58z" />
    <glyph glyph-name="uni2470" unicode="&#x2470;" 
d="M0 -58z" />
    <glyph glyph-name="uni2471" unicode="&#x2471;" 
d="M0 -58z" />
    <glyph glyph-name="uni2472" unicode="&#x2472;" 
d="M0 -58z" />
    <glyph glyph-name="uni2473" unicode="&#x2473;" 
d="M0 -58z" />
    <glyph glyph-name="uni2474" unicode="&#x2474;" horiz-adv-x="1000" 
d="M161 -110q-52 89 -88 187.5t-36 209.5q0 110 36 209t88 188h82q-23 -45 -44 -94t-37 -100t-26 -102.5t-10 -100.5q0 -52 10 -103.5t26 -102.5q15 -50 36.5 -98t44.5 -93h-82zM723 -110q23 45 44.5 92.5t37.5 97.5q15 51 25 102.5t10 104.5q0 49 -10 100.5t-26 102.5
t-37 100t-44 94h82q52 -89 88.5 -188t36.5 -209q0 -111 -36.5 -209.5t-88.5 -187.5h-82zM559 500q0 33 -3.5 50.5t-13.5 27.5q-10 7 -28.5 8.5t-46.5 1.5h-81q-9 0 -9 -7v-85q0 -8 9 -8h25q30 0 37 -6t7 -36v-462q0 -5 10 -5h86q8 0 8 5v516z" />
    <glyph glyph-name="uni2475" unicode="&#x2475;" horiz-adv-x="1000" 
d="M161 -110q-52 89 -88 187.5t-36 209.5q0 110 36 209t88 188h82q-23 -45 -44 -94t-37 -100t-26 -102.5t-10 -100.5q0 -52 10 -103.5t26 -102.5q15 -50 36.5 -98t44.5 -93h-82zM723 -110q23 45 44.5 92.5t37.5 97.5q15 51 25 102.5t10 104.5q0 49 -10 100.5t-26 102.5
t-37 100t-44 94h82q52 -89 88.5 -188t36.5 -209q0 -111 -36.5 -209.5t-88.5 -187.5h-82zM695 -3h-398q-7 0 -11 4t-4 13v147q0 28 8.5 50t24.5 39q13 16 29 28.5t27 20.5q22 12 56.5 27t66.5 31q33 16 58 33t28 37q6 39 -16 53t-80 14h-184v81q0 10 4.5 12.5t13.5 2.5h175
q49 0 86.5 -6t62.5 -24q26 -17 39 -46t14 -74q0 -29 -12.5 -53t-33.5 -43q-19 -20 -43.5 -36t-43.5 -25q-38 -19 -69 -32t-54 -26q-24 -15 -37 -32.5t-13 -42.5v-47q0 -3 1 -5q2 -4 8 -4h297v-97z" />
    <glyph glyph-name="uni2476" unicode="&#x2476;" horiz-adv-x="1000" 
d="M161 -110q-52 89 -88 187.5t-36 209.5q0 110 36 209t88 188h82q-23 -45 -44 -94t-37 -100t-26 -102.5t-10 -100.5q0 -52 10 -103.5t26 -102.5q15 -50 36.5 -98t44.5 -93h-82zM723 -110q23 45 44.5 92.5t37.5 97.5q15 51 25 102.5t10 104.5q0 49 -10 100.5t-26 102.5
t-37 100t-44 94h82q52 -89 88.5 -188t36.5 -209q0 -111 -36.5 -209.5t-88.5 -187.5h-82zM541 -3q41 0 72.5 17t50.5 43q20 26 29 58.5t9 63.5q0 12 -1.5 29.5t-7.5 37.5q-7 18 -20.5 35t-34.5 28q23 15 39.5 48t16.5 78q0 84 -46.5 119.5t-130.5 35.5h-203q-6 0 -6 -6v-80
q0 -7 6 -7h198q29 0 49 -15.5t20 -39.5v-23q0 -10 -3.5 -20.5t-10.5 -16.5q-6 -9 -18.5 -14.5t-28.5 -5.5h-157v-98h129q19 0 34.5 -4.5t28.5 -12.5q11 -9 18.5 -22t7.5 -30v-25q0 -22 -8.5 -37t-22.5 -24q-14 -10 -30 -14t-30 -4h-186q-8 0 -8 -8v-80q0 -6 8 -6h237z" />
    <glyph glyph-name="uni2477" unicode="&#x2477;" horiz-adv-x="1000" 
d="M161 -110q-52 89 -88 187.5t-36 209.5q0 110 36 209t88 188h82q-23 -45 -44 -94t-37 -100t-26 -102.5t-10 -100.5q0 -52 10 -103.5t26 -102.5q15 -50 36.5 -98t44.5 -93h-82zM723 -110q23 45 44.5 92.5t37.5 97.5q15 51 25 102.5t10 104.5q0 49 -10 100.5t-26 102.5
t-37 100t-44 94h82q52 -89 88.5 -188t36.5 -209q0 -111 -36.5 -209.5t-88.5 -187.5h-82zM520 588q-12 0 -19.5 -3t-16.5 -18l-247 -353v-96q0 -8 7 -8h266v-116q0 -7 8 -7h83q7 0 7 7v116h87q6 0 6 8v79q0 8 -6 8h-87v339q0 23 -9 33.5t-37 10.5h-42zM348 205l162 234v-234
h-162z" />
    <glyph glyph-name="uni2478" unicode="&#x2478;" horiz-adv-x="1000" 
d="M161 -110q-52 89 -88 187.5t-36 209.5q0 110 36 209t88 188h82q-23 -45 -44 -94t-37 -100t-26 -102.5t-10 -100.5q0 -52 10 -103.5t26 -102.5q15 -50 36.5 -98t44.5 -93h-82zM723 -110q23 45 44.5 92.5t37.5 97.5q15 51 25 102.5t10 104.5q0 49 -10 100.5t-26 102.5
t-37 100t-44 94h82q52 -89 88.5 -188t36.5 -209q0 -111 -36.5 -209.5t-88.5 -187.5h-82zM302 -9h266q28 0 49 5.5t34 21.5q16 13 23 36.5t7 58.5v106q0 71 -29 100.5t-99 29.5h-99q-17 0 -29 1.5t-19 7.5q-6 6 -8.5 17t-2.5 29v41q0 28 5.5 37t35.5 9h215q7 0 7 8v80
q0 6 -7 6h-299q-20 0 -30.5 -5t-15.5 -14q-8 -8 -10 -18.5t-2 -20.5v-159q0 -42 11 -65t27 -32q18 -12 42 -14t52 -2h94q20 0 32 -1.5t19 -7.5q6 -7 8 -19t2 -31v-54q0 -22 -3 -33.5t-12 -16.5t-25.5 -6t-42.5 -1h-196q-8 0 -8 -7v-80q0 -7 8 -7z" />
    <glyph glyph-name="uni2479" unicode="&#x2479;" horiz-adv-x="1000" 
d="M161 -110q-52 89 -88 187.5t-36 209.5q0 110 36 209t88 188h82q-23 -45 -44 -94t-37 -100t-26 -102.5t-10 -100.5q0 -52 10 -103.5t26 -102.5q15 -50 36.5 -98t44.5 -93h-82zM723 -110q23 45 44.5 92.5t37.5 97.5q15 51 25 102.5t10 104.5q0 49 -10 100.5t-26 102.5
t-37 100t-44 94h82q52 -89 88.5 -188t36.5 -209q0 -111 -36.5 -209.5t-88.5 -187.5h-82zM552 490q13 0 18 -8.5t5 -28.5v-11q0 -8 7 -8h82q9 0 9 8v22q0 34 -6.5 57t-17.5 38q-11 14 -32 20.5t-52 6.5h-165q-34 0 -56 -5.5t-34 -19.5q-16 -14 -21 -35.5t-5 -52.5v-369
q0 -33 7 -56t24 -33q14 -14 39 -18.5t60 -4.5h142q35 0 59.5 5t39.5 20q17 13 23.5 36.5t6.5 58.5v117q0 63 -27.5 88.5t-93.5 25.5h-155q-6 0 -13 -1t-11 -3v127q0 15 7 19.5t26 4.5h134zM586 134q0 -22 -9.5 -34t-31.5 -12h-119q-23 0 -32 12t-9 34v99q0 7 5 10.5t11 3.5
h151q19 0 26.5 -5.5t7.5 -18.5v-89z" />
    <glyph glyph-name="uni247A" unicode="&#x247a;" horiz-adv-x="1000" 
d="M161 -110q-52 89 -88 187.5t-36 209.5q0 110 36 209t88 188h82q-23 -45 -44 -94t-37 -100t-26 -102.5t-10 -100.5q0 -52 10 -103.5t26 -102.5q15 -50 36.5 -98t44.5 -93h-82zM723 -110q23 45 44.5 92.5t37.5 97.5q15 51 25 102.5t10 104.5q0 49 -10 100.5t-26 102.5
t-37 100t-44 94h82q52 -89 88.5 -188t36.5 -209q0 -111 -36.5 -209.5t-88.5 -187.5h-82zM430 0q-4 -8 0 -11t8 -3h86q6 0 10 4.5t6 9.5q38 102 68 188q13 36 25.5 72t23.5 67q11 28 17 49.5t7 29.5q1 7 1.5 18.5t1.5 21.5q1 12 1 24q0 61 -20.5 86t-72.5 25h-204
q-50 0 -71 -23.5t-21 -83.5v-68q0 -8 8 -8h83q6 0 6 8v47q0 18 8 25t23 7h120q22 0 28 -7.5t6 -28.5v-16q0 -7 -0.5 -15.5t-2.5 -12.5q-2 -8 -8 -29.5t-18 -50.5q-11 -31 -23.5 -66.5t-26.5 -72.5q-31 -84 -69 -186z" />
    <glyph glyph-name="uni247B" unicode="&#x247b;" horiz-adv-x="1000" 
d="M161 -110q-52 89 -88 187.5t-36 209.5q0 110 36 209t88 188h82q-23 -45 -44 -94t-37 -100t-26 -102.5t-10 -100.5q0 -52 10 -103.5t26 -102.5q15 -50 36.5 -98t44.5 -93h-82zM723 -110q23 45 44.5 92.5t37.5 97.5q15 51 25 102.5t10 104.5q0 49 -10 100.5t-26 102.5
t-37 100t-44 94h82q52 -89 88.5 -188t36.5 -209q0 -111 -36.5 -209.5t-88.5 -187.5h-82zM564 -4q56 0 91.5 36t35.5 102v51q0 27 -6.5 47t-15.5 34q-11 16 -21.5 25t-20.5 14q9 5 18.5 13.5t18.5 20.5q10 12 15.5 30t5.5 44v35q0 67 -40.5 104t-115.5 37h-90q-76 0 -116 -37
t-40 -104v-35q0 -27 6 -46t17 -30q8 -12 17.5 -19.5t17.5 -12.5q-8 -5 -19 -15t-22 -26q-10 -14 -17 -34t-7 -45v-51q0 -66 36 -102t91 -36h161zM515 260q32 0 54.5 -20.5t22.5 -53.5v-32q0 -22 -5.5 -36t-15.5 -19q-9 -6 -25.5 -7.5t-35.5 -1.5h-51q-22 0 -38 2.5t-25 8.5
q-10 7 -15 20t-5 33v32q0 23 8 37t19 23q12 7 26 10.5t23 3.5h63zM507 496q23 0 39 -6t23 -15q9 -10 12.5 -20.5t3.5 -19.5v-20q0 -19 -8.5 -31t-19.5 -19q-12 -7 -24.5 -9t-22.5 -2h-51q-45 0 -60 15.5t-15 45.5v20q0 32 18 46.5t59 14.5h46z" />
    <glyph glyph-name="uni247C" unicode="&#x247c;" horiz-adv-x="1000" 
d="M161 -110q-52 89 -88 187.5t-36 209.5q0 110 36 209t88 188h82q-23 -45 -44 -94t-37 -100t-26 -102.5t-10 -100.5q0 -52 10 -103.5t26 -102.5q15 -50 36.5 -98t44.5 -93h-82zM723 -110q23 45 44.5 92.5t37.5 97.5q15 51 25 102.5t10 104.5q0 49 -10 100.5t-26 102.5
t-37 100t-44 94h82q52 -89 88.5 -188t36.5 -209q0 -111 -36.5 -209.5t-88.5 -187.5h-82zM550 86h-223q-6 0 -6 -8v-79q0 -7 6 -7h241q33 0 55 5.5t35 20.5q16 13 21 34.5t5 51.5v369q0 33 -7 56t-24 35q-14 13 -39 17.5t-60 4.5h-142q-35 0 -59.5 -5t-39.5 -19
q-17 -15 -24 -37.5t-7 -59.5v-116q0 -63 28 -88.5t94 -25.5h155q6 0 13 1t11 3v-128q0 -14 -7 -19.5t-26 -5.5zM383 445q0 20 9 32.5t32 12.5h118q23 0 32 -12.5t9 -32.5v-99q0 -8 -5 -11.5t-11 -3.5h-151q-19 0 -26 5.5t-7 18.5v90z" />
    <glyph glyph-name="uni247D" unicode="&#x247d;" horiz-adv-x="1000" 
d="M161 -110q-52 89 -88 187.5t-36 209.5q0 110 36 209t88 188h82q-23 -45 -44 -94t-37 -100t-26 -102.5t-10 -100.5q0 -52 10 -103.5t26 -102.5q15 -50 36.5 -98t44.5 -93h-82zM723 -110q23 45 44.5 92.5t37.5 97.5q15 51 25 102.5t10 104.5q0 49 -10 100.5t-26 102.5
t-37 100t-44 94h82q52 -89 88.5 -188t36.5 -209q0 -111 -36.5 -209.5t-88.5 -187.5h-82zM748 362q0 54 -11 91.5t-33 60.5q-21 24 -54.5 34.5t-79.5 10.5q-91 0 -134.5 -46t-43.5 -151v-162q0 -55 9 -91.5t32 -60.5q20 -24 55 -34.5t82 -10.5q48 0 81.5 10t55.5 34
q21 24 31 60.5t10 92.5v162zM570 97q-32 0 -50 8t-27 25q-9 15 -10 40t-1 60v103q0 33 1 58t10 42q9 16 27 24t50 8q29 0 46 -7.5t26 -22.5q8 -17 11 -42t3 -60v-103q0 -36 -3 -61.5t-11 -39.5q-9 -17 -26 -24.5t-46 -7.5zM360 16q0 -8 -9 -8h-78q-6 0 -6 8v424
q0 19 -10.5 22.5t-25.5 3.5q-7 0 -7 9v74q0 8 7 8h44q25 0 41.5 -1.5t27.5 -8.5q8 -7 12 -24t4 -45v-462z" />
    <glyph glyph-name="uni247E" unicode="&#x247e;" horiz-adv-x="1000" 
d="M161 -110q-52 89 -88 187.5t-36 209.5q0 110 36 209t88 188h82q-23 -45 -44 -94t-37 -100t-26 -102.5t-10 -100.5q0 -52 10 -103.5t26 -102.5q15 -50 36.5 -98t44.5 -93h-82zM723 -110q23 45 44.5 92.5t37.5 97.5q15 51 25 102.5t10 104.5q0 49 -10 100.5t-26 102.5
t-37 100t-44 94h82q52 -89 88.5 -188t36.5 -209q0 -111 -36.5 -209.5t-88.5 -187.5h-82zM416 478q0 28 -3 45t-11 24q-10 7 -26 8.5t-44 1.5h-73q-8 0 -8 -8v-74q0 -9 8 -9h24q27 0 33.5 -5t6.5 -31v-414q0 -8 6 -8h79q8 0 8 8v462zM687 478q0 28 -2.5 45t-10.5 24
q-11 7 -27 8.5t-43 1.5h-74q-6 0 -6 -8v-74q0 -9 6 -9h25q26 0 33 -5t7 -31v-414q0 -8 6 -8h79q7 0 7 8v462z" />
    <glyph glyph-name="uni247F" unicode="&#x247f;" horiz-adv-x="1000" 
d="M161 -110q-52 89 -88 187.5t-36 209.5q0 110 36 209t88 188h82q-23 -45 -44 -94t-37 -100t-26 -102.5t-10 -100.5q0 -52 10 -103.5t26 -102.5q15 -50 36.5 -98t44.5 -93h-82zM723 -110q23 45 44.5 92.5t37.5 97.5q15 51 25 102.5t10 104.5q0 49 -10 100.5t-26 102.5
t-37 100t-44 94h82q52 -89 88.5 -188t36.5 -209q0 -111 -36.5 -209.5t-88.5 -187.5h-82zM742 14h-317q-7 0 -12 3.5t-5 10.5v133q0 24 9 44t22 36q10 14 25 25.5t25 18.5q21 11 45.5 24.5t46.5 27.5t39 30t19 32q5 37 -15 49t-72 12h-126v73q0 10 3.5 12t12.5 2h120
q42 0 76 -6t56 -21q24 -16 35.5 -42t12.5 -67q1 -49 -22 -86t-61 -54q-31 -17 -59.5 -28.5t-48.5 -24.5q-22 -14 -34 -29t-12 -38v-42q0 -4 1 -6q2 -3 8 -3h228v-86zM368 16q0 -8 -6 -8h-80q-6 0 -6 8v424q0 19 -10 22.5t-26 3.5q-7 0 -7 9v74q0 8 7 8h44q27 0 43.5 -1.5
t25.5 -8.5q10 -7 12.5 -24t2.5 -45v-462z" />
    <glyph glyph-name="uni2480" unicode="&#x2480;" horiz-adv-x="1000" 
d="M161 -110q-52 89 -88 187.5t-36 209.5q0 110 36 209t88 188h82q-23 -45 -44 -94t-37 -100t-26 -102.5t-10 -100.5q0 -52 10 -103.5t26 -102.5q15 -50 36.5 -98t44.5 -93h-82zM723 -110q23 45 44.5 92.5t37.5 97.5q15 51 25 102.5t10 104.5q0 49 -10 100.5t-26 102.5
t-37 100t-44 94h82q52 -89 88.5 -188t36.5 -209q0 -111 -36.5 -209.5t-88.5 -187.5h-82zM615 12q37 0 65 15t46 40q16 23 25 52t9 57q0 10 -1.5 26.5t-6.5 33.5q-6 16 -18 32t-34 24q24 13 38.5 43.5t14.5 70.5q0 77 -41.5 108.5t-119.5 31.5h-152q-6 0 -6 -5v-74q0 -5 6 -5
h148q27 0 44.5 -13.5t17.5 -36.5v-20q0 -8 -2.5 -17t-8.5 -17q-7 -8 -18.5 -12.5t-25.5 -4.5h-141v-89h118q31 0 55.5 -15t24.5 -46v-23q0 -20 -7.5 -33.5t-21.5 -21.5q-13 -10 -27 -13t-26 -3h-139q-5 0 -5 -7v-71q0 -7 4 -7h185zM368 16q0 -8 -6 -8h-80q-6 0 -6 8v424
q0 19 -10 22.5t-26 3.5q-7 0 -7 9v74q0 8 7 8h44q27 0 43.5 -1.5t25.5 -8.5q10 -7 12.5 -24t2.5 -45v-462z" />
    <glyph glyph-name="uni2481" unicode="&#x2481;" horiz-adv-x="1000" 
d="M161 -110q-52 89 -88 187.5t-36 209.5q0 110 36 209t88 188h82q-23 -45 -44 -94t-37 -100t-26 -102.5t-10 -100.5q0 -52 10 -103.5t26 -102.5q15 -50 36.5 -98t44.5 -93h-82zM723 -110q23 45 44.5 92.5t37.5 97.5q15 51 25 102.5t10 104.5q0 49 -10 100.5t-26 102.5
t-37 100t-44 94h82q52 -89 88.5 -188t36.5 -209q0 -111 -36.5 -209.5t-88.5 -187.5h-82zM368 16q0 -8 -6 -8h-80q-6 0 -6 8v424q0 19 -10 22.5t-26 3.5q-7 0 -7 9v74q0 8 7 8h44q27 0 43.5 -1.5t25.5 -8.5q10 -7 12.5 -24t2.5 -45v-462zM609 548q-8 0 -14.5 -2.5
t-16.5 -15.5l-173 -317v-87q0 -8 7 -8h189v-104q0 -7 7 -7h77q6 0 6 7v104h69q7 0 7 8v70q0 8 -7 8h-69v304q0 22 -8 31t-36 9h-38zM505 204l96 209v-209h-96z" />
    <glyph glyph-name="uni2482" unicode="&#x2482;" horiz-adv-x="1000" 
d="M161 -110q-52 89 -88 187.5t-36 209.5q0 110 36 209t88 188h82q-23 -45 -44 -94t-37 -100t-26 -102.5t-10 -100.5q0 -52 10 -103.5t26 -102.5q15 -50 36.5 -98t44.5 -93h-82zM723 -110q23 45 44.5 92.5t37.5 97.5q15 51 25 102.5t10 104.5q0 49 -10 100.5t-26 102.5
t-37 100t-44 94h82q52 -89 88.5 -188t36.5 -209q0 -111 -36.5 -209.5t-88.5 -187.5h-82zM368 16q0 -8 -6 -8h-80q-6 0 -6 8v424q0 19 -10 22.5t-26 3.5q-7 0 -7 9v74q0 8 7 8h44q27 0 43.5 -1.5t25.5 -8.5q10 -7 12.5 -24t2.5 -45v-462zM417 11h222q47 0 73 23.5t26 86.5v94
q0 65 -25.5 92t-89.5 27h-68q-17 0 -27 1.5t-16 6.5q-7 4 -9 14t-2 27v36q0 26 5.5 34t30.5 8h177q6 0 6 5v74q0 5 -6 5h-251q-18 0 -27.5 -4.5t-15.5 -11.5q-6 -8 -7.5 -17t-1.5 -19v-143q0 -38 9.5 -58t24.5 -31q16 -9 37 -10.5t46 -1.5h66q18 0 29.5 -1.5t16.5 -7.5
t6.5 -16.5t1.5 -28.5v-49q0 -18 -2 -29.5t-9 -15.5q-9 -4 -23.5 -4.5t-38.5 -0.5h-158q-6 0 -6 -7v-71q0 -7 6 -7z" />
    <glyph glyph-name="uni2483" unicode="&#x2483;" 
d="M0 -58z" />
    <glyph glyph-name="uni2484" unicode="&#x2484;" 
d="M0 -58z" />
    <glyph glyph-name="uni2485" unicode="&#x2485;" 
d="M0 -58z" />
    <glyph glyph-name="uni2486" unicode="&#x2486;" 
d="M0 -58z" />
    <glyph glyph-name="uni2487" unicode="&#x2487;" 
d="M0 -58z" />
    <glyph glyph-name="uni249C" unicode="&#x249c;" horiz-adv-x="1000" 
d="M161 -110q-52 89 -88 187.5t-36 209.5q0 110 36 209t88 188h82q-23 -45 -44 -94t-37 -100t-26 -102.5t-10 -100.5q0 -52 10 -103.5t26 -102.5q15 -50 36.5 -98t44.5 -93h-82zM723 -110q23 45 44.5 92.5t37.5 97.5q15 51 25 102.5t10 104.5q0 49 -10 100.5t-26 102.5
t-37 100t-44 94h82q52 -89 88.5 -188t36.5 -209q0 -111 -36.5 -209.5t-88.5 -187.5h-82zM681 56q-1 2 -1.5 24t-0.5 56q-1 35 -1 76.5v86.5q-1 45 -1.5 87t-0.5 78v96h-225q-110 0 -160.5 -47.5t-53.5 -146.5q0 -17 -0.5 -38.5t-0.5 -40.5v-40.5v-30.5q0 -99 52.5 -146.5
t162.5 -47.5h237q6 0 6 7q0 6 -5.5 13.5t-7.5 13.5zM516 148q-53 0 -83.5 4t-45.5 20q-16 13 -20 42t-4 77q0 49 4 77.5t20 42.5q15 16 45.5 20t83.5 4h42v-287h-42z" />
    <glyph glyph-name="uni249D" unicode="&#x249d;" horiz-adv-x="1000" 
d="M161 -110q-52 89 -88 187.5t-36 209.5q0 110 36 209t88 188h82q-23 -45 -44 -94t-37 -100t-26 -102.5t-10 -100.5q0 -52 10 -103.5t26 -102.5q15 -50 36.5 -98t44.5 -93h-82zM723 -110q23 45 44.5 92.5t37.5 97.5q15 51 25 102.5t10 104.5q0 49 -10 100.5t-26 102.5
t-37 100t-44 94h82q52 -89 88.5 -188t36.5 -209q0 -111 -36.5 -209.5t-88.5 -187.5h-82zM728 281q-2 100 -54 147t-161 47h-101v193h-129v-730h259q96 0 141 50t45 143v150zM447 60h-35v290h35q53 0 84 -4t46 -18q16 -17 19.5 -45.5t3.5 -76.5q0 -49 -3.5 -77.5t-19.5 -43.5
q-15 -15 -46 -20t-84 -5z" />
    <glyph glyph-name="uni249E" unicode="&#x249e;" horiz-adv-x="1000" 
d="M161 -110q-52 89 -88 187.5t-36 209.5q0 110 36 209t88 188h82q-23 -45 -44 -94t-37 -100t-26 -102.5t-10 -100.5q0 -52 10 -103.5t26 -102.5q15 -50 36.5 -98t44.5 -93h-82zM723 -110q23 45 44.5 92.5t37.5 97.5q15 51 25 102.5t10 104.5q0 49 -10 100.5t-26 102.5
t-37 100t-44 94h82q52 -89 88.5 -188t36.5 -209q0 -111 -36.5 -209.5t-88.5 -187.5h-82zM536 148q-52 0 -82 4t-46 20q-15 13 -19 42t-4 77q0 49 4 77.5t19 42.5q16 16 46 20t82 4h132v125h-194q-111 0 -162.5 -47.5t-54.5 -146.5v-38.5v-40.5v-40.5v-30.5q0 -99 53 -146.5
t164 -47.5h210v126h-148z" />
    <glyph glyph-name="uni249F" unicode="&#x249f;" horiz-adv-x="1000" 
d="M161 -110q-52 89 -88 187.5t-36 209.5q0 110 36 209t88 188h82q-23 -45 -44 -94t-37 -100t-26 -102.5t-10 -100.5q0 -52 10 -103.5t26 -102.5q15 -50 36.5 -98t44.5 -93h-82zM723 -110q23 45 44.5 92.5t37.5 97.5q15 51 25 102.5t10 104.5q0 49 -10 100.5t-26 102.5
t-37 100t-44 94h82q52 -89 88.5 -188t36.5 -209q0 -111 -36.5 -209.5t-88.5 -187.5h-82zM556 668v-193h-101q-109 0 -162 -47t-53 -147v-150q0 -100 53 -146.5t162 -46.5h220h10v115v615h-129zM520 62q-53 0 -84 5t-45 19q-16 14 -20 42.5t-4 77.5q0 48 4 76.5t20 44.5
q14 14 45 18t84 4h36v-287h-36z" />
    <glyph glyph-name="uni24A0" unicode="&#x24a0;" horiz-adv-x="1000" 
d="M161 -110q-52 89 -88 187.5t-36 209.5q0 110 36 209t88 188h82q-23 -45 -44 -94t-37 -100t-26 -102.5t-10 -100.5q0 -52 10 -103.5t26 -102.5q15 -50 36.5 -98t44.5 -93h-82zM723 -110q23 45 44.5 92.5t37.5 97.5q15 51 25 102.5t10 104.5q0 49 -10 100.5t-26 102.5
t-37 100t-44 94h82q52 -89 88.5 -188t36.5 -209q0 -111 -36.5 -209.5t-88.5 -187.5h-82zM484 568h-14q-116 0 -167 -51t-51 -159v-133q3 -104 54.5 -153.5t163.5 -49.5h215v127h-153q-43 0 -70 3t-44 11q-17 10 -24.5 26t-10.5 44h314v113q0 58 -10 99.5t-37 69.5
q-25 28 -66.5 40.5t-99.5 12.5zM381 346q2 27 6.5 44.5t15.5 29.5q10 12 27.5 17t46.5 5q26 0 44 -5t29 -17q12 -12 15.5 -29.5t5.5 -44.5h-190z" />
    <glyph glyph-name="uni24A1" unicode="&#x24a1;" horiz-adv-x="1000" 
d="M161 -110q-52 89 -88 187.5t-36 209.5q0 110 36 209t88 188h82q-23 -45 -44 -94t-37 -100t-26 -102.5t-10 -100.5q0 -52 10 -103.5t26 -102.5q15 -50 36.5 -98t44.5 -93h-82zM723 -110q23 45 44.5 92.5t37.5 97.5q15 51 25 102.5t10 104.5q0 49 -10 100.5t-26 102.5
t-37 100t-44 94h82q52 -89 88.5 -188t36.5 -209q0 -111 -36.5 -209.5t-88.5 -187.5h-82zM578 543h55v125h-58q-75 0 -113 -15.5t-56 -46.5q-16 -29 -17.5 -73t-1.5 -99h-79v-114h83v-382h129v382h105v114h-111q0 31 2.5 51.5t7.5 33.5q7 13 20.5 18.5t33.5 5.5z" />
    <glyph glyph-name="uni24A2" unicode="&#x24a2;" horiz-adv-x="1000" 
d="M161 -110q-52 89 -88 187.5t-36 209.5q0 110 36 209t88 188h82q-23 -45 -44 -94t-37 -100t-26 -102.5t-10 -100.5q0 -52 10 -103.5t26 -102.5q15 -50 36.5 -98t44.5 -93h-82zM723 -110q23 45 44.5 92.5t37.5 97.5q15 51 25 102.5t10 104.5q0 49 -10 100.5t-26 102.5
t-37 100t-44 94h82q52 -89 88.5 -188t36.5 -209q0 -111 -36.5 -209.5t-88.5 -187.5h-82zM689 617h-228q-111 0 -164 -46.5t-53 -145.5v-142q0 -100 53 -147t164 -47h101q0 -22 -7.5 -35.5t-24.5 -19.5q-15 -7 -43 -9.5t-69 -2.5h-103v-125q89 -1 159.5 -0.5t118.5 16.5
q47 16 71.5 55t24.5 117v532zM524 214q-52 0 -83 3.5t-45 16.5q-16 13 -20.5 39.5t-4.5 74.5q0 49 4.5 77.5t20.5 41.5q14 17 45 20.5t83 3.5h38v-277h-38z" />
    <glyph glyph-name="uni24A3" unicode="&#x24a3;" horiz-adv-x="1000" 
d="M161 -110q-52 89 -88 187.5t-36 209.5q0 110 36 209t88 188h82q-23 -45 -44 -94t-37 -100t-26 -102.5t-10 -100.5q0 -52 10 -103.5t26 -102.5q15 -50 36.5 -98t44.5 -93h-82zM723 -110q23 45 44.5 92.5t37.5 97.5q15 51 25 102.5t10 104.5q0 49 -10 100.5t-26 102.5
t-37 100t-44 94h82q52 -89 88.5 -188t36.5 -209q0 -111 -36.5 -209.5t-88.5 -187.5h-82zM495 475h-99v193h-128v-730h128v412h36q52 0 82.5 -4.5t47.5 -18.5q14 -17 17.5 -46t3.5 -77v-266h129v326q0 109 -51.5 160t-165.5 51z" />
    <glyph glyph-name="uni24A4" unicode="&#x24a4;" horiz-adv-x="1000" 
d="M161 -110q-52 89 -88 187.5t-36 209.5q0 110 36 209t88 188h82q-23 -45 -44 -94t-37 -100t-26 -102.5t-10 -100.5q0 -52 10 -103.5t26 -102.5q15 -50 36.5 -98t44.5 -93h-82zM723 -110q23 45 44.5 92.5t37.5 97.5q15 51 25 102.5t10 104.5q0 49 -10 100.5t-26 102.5
t-37 100t-44 94h82q52 -89 88.5 -188t36.5 -209q0 -111 -36.5 -209.5t-88.5 -187.5h-82zM564 602q0 -31 -21.5 -52.5t-54.5 -21.5q-31 0 -52.5 21.5t-21.5 52.5q0 16 6 29.5t17 24.5q8 9 22.5 16t28.5 7q16 0 29.5 -7t24.5 -16q10 -11 16 -24.5t6 -29.5zM426 462v-524h127
v524h-127z" />
    <glyph glyph-name="uni24A5" unicode="&#x24a5;" horiz-adv-x="1000" 
d="M161 -110q-52 89 -88 187.5t-36 209.5q0 110 36 209t88 188h82q-23 -45 -44 -94t-37 -100t-26 -102.5t-10 -100.5q0 -52 10 -103.5t26 -102.5q15 -50 36.5 -98t44.5 -93h-82zM723 -110q23 45 44.5 92.5t37.5 97.5q15 51 25 102.5t10 104.5q0 49 -10 100.5t-26 102.5
t-37 100t-44 94h82q52 -89 88.5 -188t36.5 -209q0 -111 -36.5 -209.5t-88.5 -187.5h-82zM454 468v-289q0 -36 -3 -62t-10 -43q-10 -18 -28.5 -26.5t-49.5 -8.5h-35v-124h40q70 0 112.5 13.5t64.5 44.5q22 29 29.5 76.5t7.5 112.5v306h-128zM597 594q0 -32 -22.5 -54
t-52.5 -22q-33 0 -55 22t-22 54q0 30 22 52t55 22q14 0 28 -5.5t25 -15.5q10 -10 16 -24t6 -29z" />
    <glyph glyph-name="uni24A6" unicode="&#x24a6;" horiz-adv-x="1000" 
d="M161 -110q-52 89 -88 187.5t-36 209.5q0 110 36 209t88 188h82q-23 -45 -44 -94t-37 -100t-26 -102.5t-10 -100.5q0 -52 10 -103.5t26 -102.5q15 -50 36.5 -98t44.5 -93h-82zM723 -110q23 45 44.5 92.5t37.5 97.5q15 51 25 102.5t10 104.5q0 49 -10 100.5t-26 102.5
t-37 100t-44 94h82q52 -89 88.5 -188t36.5 -209q0 -111 -36.5 -209.5t-88.5 -187.5h-82zM737 -62l-259 282q71 85 113 134.5t62 75.5q23 25 28.5 31.5t6.5 9.5h-165q-8 -10 -23.5 -28.5t-36.5 -43.5q-20 -24 -43 -51t-45 -54v364q0 10 -9 10h-109q-10 0 -10 -10v-720h128
v161l19 23q24 -26 50 -54.5t48 -52.5q25 -27 43 -48t27 -29h175z" />
    <glyph glyph-name="uni24A7" unicode="&#x24a7;" horiz-adv-x="1000" 
d="M161 -110q-52 89 -88 187.5t-36 209.5q0 110 36 209t88 188h82q-23 -45 -44 -94t-37 -100t-26 -102.5t-10 -100.5q0 -52 10 -103.5t26 -102.5q15 -50 36.5 -98t44.5 -93h-82zM723 -110q23 45 44.5 92.5t37.5 97.5q15 51 25 102.5t10 104.5q0 49 -10 100.5t-26 102.5
t-37 100t-44 94h82q52 -89 88.5 -188t36.5 -209q0 -111 -36.5 -209.5t-88.5 -187.5h-82zM553 668h-128v-730h128v730z" />
    <glyph glyph-name="uni24A8" unicode="&#x24a8;" horiz-adv-x="1000" 
d="M161 -110q-52 89 -88 187.5t-36 209.5q0 110 36 209t88 188h82q-23 -45 -44 -94t-37 -100t-26 -102.5t-10 -100.5q0 -52 10 -103.5t26 -102.5q15 -50 36.5 -98t44.5 -93h-82zM723 -110q23 45 44.5 92.5t37.5 97.5q15 51 25 102.5t10 104.5q0 49 -10 100.5t-26 102.5
t-37 100t-44 94h82q52 -89 88.5 -188t36.5 -209q0 -111 -36.5 -209.5t-88.5 -187.5h-82zM755 335q0 110 -50.5 160t-164.5 50h-330v-537h127v414h81v-414h129v412q34 -2 51.5 -8.5t23.5 -23.5q7 -16 7 -43.5v-69.5v-267h126v327z" />
    <glyph glyph-name="uni24A9" unicode="&#x24a9;" horiz-adv-x="1000" 
d="M161 -110q-52 89 -88 187.5t-36 209.5q0 110 36 209t88 188h82q-23 -45 -44 -94t-37 -100t-26 -102.5t-10 -100.5q0 -52 10 -103.5t26 -102.5q15 -50 36.5 -98t44.5 -93h-82zM723 -110q23 45 44.5 92.5t37.5 97.5q15 51 25 102.5t10 104.5q0 49 -10 100.5t-26 102.5
t-37 100t-44 94h82q52 -89 88.5 -188t36.5 -209q0 -111 -36.5 -209.5t-88.5 -187.5h-82zM495 551h-227v-537h128v413h36q52 0 82.5 -5t47.5 -19q14 -16 17.5 -44.5t3.5 -77.5v-267h129v327q0 108 -51.5 159t-165.5 51z" />
    <glyph glyph-name="uni24AA" unicode="&#x24aa;" horiz-adv-x="1000" 
d="M161 -110q-52 89 -88 187.5t-36 209.5q0 110 36 209t88 188h82q-23 -45 -44 -94t-37 -100t-26 -102.5t-10 -100.5q0 -52 10 -103.5t26 -102.5q15 -50 36.5 -98t44.5 -93h-82zM723 -110q23 45 44.5 92.5t37.5 97.5q15 51 25 102.5t10 104.5q0 49 -10 100.5t-26 102.5
t-37 100t-44 94h82q52 -89 88.5 -188t36.5 -209q0 -111 -36.5 -209.5t-88.5 -187.5h-82zM488 582q-40 0 -82 -14.5t-77 -48.5q-37 -34 -59.5 -90t-22.5 -139q0 -85 23 -141.5t59 -90.5q37 -34 79 -47.5t80 -13.5q41 0 84.5 12.5t77.5 46.5q35 33 57.5 89.5t22.5 144.5
q0 82 -22.5 138t-57.5 90q-34 34 -77 49t-85 15zM488 126q-28 0 -50 14.5t-35 37.5q-15 23 -22 52t-7 60q0 34 6.5 64t20.5 52q13 21 34.5 34t52.5 13q33 0 54.5 -13t34.5 -36q14 -22 20 -52t6 -62q0 -28 -6 -57t-20 -52q-13 -25 -34.5 -40t-54.5 -15z" />
    <glyph glyph-name="uni24AB" unicode="&#x24ab;" horiz-adv-x="1000" 
d="M161 -110q-52 89 -88 187.5t-36 209.5q0 110 36 209t88 188h82q-23 -45 -44 -94t-37 -100t-26 -102.5t-10 -100.5q0 -52 10 -103.5t26 -102.5q15 -50 36.5 -98t44.5 -93h-82zM723 -110q23 45 44.5 92.5t37.5 97.5q15 51 25 102.5t10 104.5q0 49 -10 100.5t-26 102.5
t-37 100t-44 94h82q52 -89 88.5 -188t36.5 -209q0 -111 -36.5 -209.5t-88.5 -187.5h-82zM737 424q-2 100 -53 146.5t-161 46.5h-231v-721h130v182h101v1q110 0 162 47t52 146v152zM457 204h-35v287h35q54 0 84 -4t46 -21q15 -13 18.5 -41.5t3.5 -77.5q0 -48 -3.5 -76
t-18.5 -42q-16 -16 -46 -20.5t-84 -4.5z" />
    <glyph glyph-name="uni24AC" unicode="&#x24ac;" horiz-adv-x="1000" 
d="M161 -110q-52 89 -88 187.5t-36 209.5q0 110 36 209t88 188h82q-23 -45 -44 -94t-37 -100t-26 -102.5t-10 -100.5q0 -52 10 -103.5t26 -102.5q15 -50 36.5 -98t44.5 -93h-82zM723 -110q23 45 44.5 92.5t37.5 97.5q15 51 25 102.5t10 104.5q0 49 -10 100.5t-26 102.5
t-37 100t-44 94h82q52 -89 88.5 -188t36.5 -209q0 -111 -36.5 -209.5t-88.5 -187.5h-82zM244 424v-152q0 -99 53 -146t164 -47v-1h101v-182h127v721h-228q-111 0 -162.5 -46.5t-54.5 -146.5zM524 204q-51 0 -82 4.5t-46 20.5q-16 14 -20 42t-4 76q0 49 4 77.5t20 41.5
q15 17 46 21t82 4h38v-287h-38z" />
    <glyph glyph-name="uni24AD" unicode="&#x24ad;" horiz-adv-x="1000" 
d="M161 -110q-52 89 -88 187.5t-36 209.5q0 110 36 209t88 188h82q-23 -45 -44 -94t-37 -100t-26 -102.5t-10 -100.5q0 -52 10 -103.5t26 -102.5q15 -50 36.5 -98t44.5 -93h-82zM723 -110q23 45 44.5 92.5t37.5 97.5q15 51 25 102.5t10 104.5q0 49 -10 100.5t-26 102.5
t-37 100t-44 94h82q52 -89 88.5 -188t36.5 -209q0 -111 -36.5 -209.5t-88.5 -187.5h-82zM614 549q-43 0 -80.5 -6.5t-65.5 -26.5v35h-129v-533h129v273q0 40 12.5 66t39.5 41q24 15 61 21.5t86 6.5h15v123h-68z" />
    <glyph glyph-name="uni24AE" unicode="&#x24ae;" horiz-adv-x="1000" 
d="M161 -110q-52 89 -88 187.5t-36 209.5q0 110 36 209t88 188h82q-23 -45 -44 -94t-37 -100t-26 -102.5t-10 -100.5q0 -52 10 -103.5t26 -102.5q15 -50 36.5 -98t44.5 -93h-82zM723 -110q23 45 44.5 92.5t37.5 97.5q15 51 25 102.5t10 104.5q0 49 -10 100.5t-26 102.5
t-37 100t-44 94h82q52 -89 88.5 -188t36.5 -209q0 -111 -36.5 -209.5t-88.5 -187.5h-82zM612 312q-13 5 -43.5 11.5t-60.5 17.5q-30 9 -53 23.5t-23 34.5q0 14 11 21t28 10q14 2 31.5 2h26.5h152v126h-132q-46 0 -75.5 -1t-49.5 -4q-23 -5 -40 -11.5t-36 -17.5
q-32 -23 -45 -51.5t-13 -64.5q0 -59 33.5 -101t92.5 -59q33 -11 66.5 -19.5t57.5 -17.5t39.5 -19.5t15.5 -24.5q0 -12 -16.5 -18t-40.5 -8q-21 -3 -45 -2.5t-38 0.5h-173v-125h218q40 0 67.5 1t46.5 5q19 2 32.5 10.5t30.5 21.5q15 16 29 48t14 69q0 20 -5.5 41.5
t-18.5 40.5q-12 19 -33 34.5t-51 26.5z" />
    <glyph glyph-name="uni24AF" unicode="&#x24af;" horiz-adv-x="1000" 
d="M161 -110q-52 89 -88 187.5t-36 209.5q0 110 36 209t88 188h82q-23 -45 -44 -94t-37 -100t-26 -102.5t-10 -100.5q0 -52 10 -103.5t26 -102.5q15 -50 36.5 -98t44.5 -93h-82zM723 -110q23 45 44.5 92.5t37.5 97.5q15 51 25 102.5t10 104.5q0 49 -10 100.5t-26 102.5
t-37 100t-44 94h82q52 -89 88.5 -188t36.5 -209q0 -111 -36.5 -209.5t-88.5 -187.5h-82zM577 62q-37 0 -56.5 5t-27.5 20q-9 15 -9 45.5v82.5v141h128v126h-128v186h-129v-516q0 -57 5 -97.5t21 -67.5q17 -26 49 -37.5t88 -11.5h136v124h-77z" />
    <glyph glyph-name="uni24B0" unicode="&#x24b0;" horiz-adv-x="1000" 
d="M161 -110q-52 89 -88 187.5t-36 209.5q0 110 36 209t88 188h82q-23 -45 -44 -94t-37 -100t-26 -102.5t-10 -100.5q0 -52 10 -103.5t26 -102.5q15 -50 36.5 -98t44.5 -93h-82zM723 -110q23 45 44.5 92.5t37.5 97.5q15 51 25 102.5t10 104.5q0 49 -10 100.5t-26 102.5
t-37 100t-44 94h82q52 -89 88.5 -188t36.5 -209q0 -111 -36.5 -209.5t-88.5 -187.5h-82zM703 547h-128v-411h-37q-53 0 -82.5 4.5t-45.5 20.5q-15 16 -19 45t-4 79v262h-128v-323q0 -108 51.5 -159t165.5 -51h227v533z" />
    <glyph glyph-name="uni24B1" unicode="&#x24b1;" horiz-adv-x="1000" 
d="M161 -110q-52 89 -88 187.5t-36 209.5q0 110 36 209t88 188h82q-23 -45 -44 -94t-37 -100t-26 -102.5t-10 -100.5q0 -52 10 -103.5t26 -102.5q15 -50 36.5 -98t44.5 -93h-82zM723 -110q23 45 44.5 92.5t37.5 97.5q15 51 25 102.5t10 104.5q0 49 -10 100.5t-26 102.5
t-37 100t-44 94h82q52 -89 88.5 -188t36.5 -209q0 -111 -36.5 -209.5t-88.5 -187.5h-82zM731 547h-137q-5 -13 -12.5 -40t-16.5 -61q-8 -36 -18.5 -74.5t-21.5 -77.5q-9 -39 -20.5 -75t-20.5 -64q-9 28 -20.5 63.5t-20.5 74.5q-10 39 -20.5 78t-19.5 75q-8 34 -15.5 61
t-12.5 41h-137q5 -15 18.5 -56t28.5 -94t33 -113t35 -112q15 -55 28.5 -97t20.5 -61h165q7 19 20 61.5t30 97.5q16 52 34 112t34 113q14 52 27.5 92.5z" />
    <glyph glyph-name="uni24B2" unicode="&#x24b2;" horiz-adv-x="1000" 
d="M161 -110q-52 89 -88 187.5t-36 209.5q0 110 36 209t88 188h82q-23 -45 -44 -94t-37 -100t-26 -102.5t-10 -100.5q0 -52 10 -103.5t26 -102.5q15 -50 36.5 -98t44.5 -93h-82zM723 -110q23 45 44.5 92.5t37.5 97.5q15 51 25 102.5t10 104.5q0 49 -10 100.5t-26 102.5
t-37 100t-44 94h82q52 -89 88.5 -188t36.5 -209q0 -111 -36.5 -209.5t-88.5 -187.5h-82zM682 537l-55 -365q-10 31 -20.5 74t-21.5 83q-12 45 -23 93h-135q-13 -48 -25 -94q-11 -40 -24 -84.5t-24 -78.5l-64 372h-119q3 -17 10 -57t15 -93t17 -112.5t18 -112.5
q7 -54 13.5 -97t10.5 -62h163q6 15 13.5 42t16.5 59q11 34 22 71t20 70q10 -33 20 -70t17 -71q9 -32 16 -59t12 -42h162q4 19 10 61.5t14 96.5q9 53 18 112.5t17 112.5t14.5 93.5t10.5 57.5h-119z" />
    <glyph glyph-name="uni24B3" unicode="&#x24b3;" horiz-adv-x="1000" 
d="M161 -110q-52 89 -88 187.5t-36 209.5q0 110 36 209t88 188h82q-23 -45 -44 -94t-37 -100t-26 -102.5t-10 -100.5q0 -52 10 -103.5t26 -102.5q15 -50 36.5 -98t44.5 -93h-82zM723 -110q23 45 44.5 92.5t37.5 97.5q15 51 25 102.5t10 104.5q0 49 -10 100.5t-26 102.5
t-37 100t-44 94h82q52 -89 88.5 -188t36.5 -209q0 -111 -36.5 -209.5t-88.5 -187.5h-82zM563 279q28 38 55.5 80t53.5 80q22 38 40.5 66.5t26.5 40.5h-150q-8 -10 -19 -28.5t-25 -40.5q-14 -24 -29 -48.5t-31 -45.5q-15 21 -30 45.5t-29 48.5q-15 22 -26 40.5t-19 28.5h-150
q8 -12 26.5 -40.5t41.5 -66.5q25 -38 53 -80t57 -80q-31 -42 -60 -85.5t-55 -80.5q-23 -36 -40.5 -63.5t-22.5 -35.5h150q7 8 17.5 26t25.5 40q13 22 29 47t32 48q18 -23 33.5 -48t29.5 -47t23.5 -40t18.5 -26h149q-5 8 -22.5 35.5t-38.5 63.5q-26 37 -55 80.5t-60 85.5z
" />
    <glyph glyph-name="uni24B4" unicode="&#x24b4;" horiz-adv-x="1000" 
d="M161 -110q-52 89 -88 187.5t-36 209.5q0 110 36 209t88 188h82q-23 -45 -44 -94t-37 -100t-26 -102.5t-10 -100.5q0 -52 10 -103.5t26 -102.5q15 -50 36.5 -98t44.5 -93h-82zM723 -110q23 45 44.5 92.5t37.5 97.5q15 51 25 102.5t10 104.5q0 49 -10 100.5t-26 102.5
t-37 100t-44 94h82q52 -89 88.5 -188t36.5 -209q0 -111 -36.5 -209.5t-88.5 -187.5h-82zM576 618v-413h-37q-53 0 -82.5 4t-44.5 21q-15 14 -19 42.5t-4 77.5v267h-129v-326q0 -110 51.5 -160t165.5 -51h100q0 -21 -7 -32t-24 -17q-17 -7 -44 -8t-68 -1h-116v-126h175
q109 0 160 50t51 164v508h-128z" />
    <glyph glyph-name="uni24B5" unicode="&#x24b5;" horiz-adv-x="1000" 
d="M161 -110q-52 89 -88 187.5t-36 209.5q0 110 36 209t88 188h82q-23 -45 -44 -94t-37 -100t-26 -102.5t-10 -100.5q0 -52 10 -103.5t26 -102.5q15 -50 36.5 -98t44.5 -93h-82zM723 -110q23 45 44.5 92.5t37.5 97.5q15 51 25 102.5t10 104.5q0 49 -10 100.5t-26 102.5
t-37 100t-44 94h82q52 -89 88.5 -188t36.5 -209q0 -111 -36.5 -209.5t-88.5 -187.5h-82zM415 137l264 280q6 8 8.5 23t3.5 34v34.5v24.5q0 10 -4 14t-16 4h-404v-124h246l-242 -272q-5 -5 -7 -18t-2 -28q-2 -15 -1 -30.5t1 -21.5t1 -13.5t6 -14.5q3 -7 11.5 -11t26.5 -4h403
v123h-295z" />
    <glyph glyph-name="uni24B6" unicode="&#x24b6;" 
d="M0 -58z" />
    <glyph glyph-name="uni24B7" unicode="&#x24b7;" 
d="M0 -58z" />
    <glyph glyph-name="uni24B8" unicode="&#x24b8;" 
d="M0 -58z" />
    <glyph glyph-name="uni24B9" unicode="&#x24b9;" 
d="M0 -58z" />
    <glyph glyph-name="uni24BA" unicode="&#x24ba;" 
d="M0 -58z" />
    <glyph glyph-name="uni24BB" unicode="&#x24bb;" 
d="M0 -58z" />
    <glyph glyph-name="uni24BC" unicode="&#x24bc;" 
d="M0 -58z" />
    <glyph glyph-name="uni24BD" unicode="&#x24bd;" 
d="M0 -58z" />
    <glyph glyph-name="uni24BE" unicode="&#x24be;" 
d="M0 -58z" />
    <glyph glyph-name="uni24BF" unicode="&#x24bf;" 
d="M0 -58z" />
    <glyph glyph-name="uni24C0" unicode="&#x24c0;" 
d="M0 -58z" />
    <glyph glyph-name="uni24C1" unicode="&#x24c1;" 
d="M0 -58z" />
    <glyph glyph-name="uni24C2" unicode="&#x24c2;" 
d="M0 -58z" />
    <glyph glyph-name="uni24C3" unicode="&#x24c3;" 
d="M0 -58z" />
    <glyph glyph-name="uni24C4" unicode="&#x24c4;" 
d="M0 -58z" />
    <glyph glyph-name="uni24C5" unicode="&#x24c5;" 
d="M0 -58z" />
    <glyph glyph-name="uni24C6" unicode="&#x24c6;" 
d="M0 -58z" />
    <glyph glyph-name="uni24C7" unicode="&#x24c7;" 
d="M0 -58z" />
    <glyph glyph-name="uni24C8" unicode="&#x24c8;" 
d="M0 -58z" />
    <glyph glyph-name="uni24C9" unicode="&#x24c9;" 
d="M0 -58z" />
    <glyph glyph-name="uni24CA" unicode="&#x24ca;" 
d="M0 -58z" />
    <glyph glyph-name="uni24CB" unicode="&#x24cb;" 
d="M0 -58z" />
    <glyph glyph-name="uni24CC" unicode="&#x24cc;" 
d="M0 -58z" />
    <glyph glyph-name="uni24CD" unicode="&#x24cd;" 
d="M0 -58z" />
    <glyph glyph-name="uni24CE" unicode="&#x24ce;" 
d="M0 -58z" />
    <glyph glyph-name="uni24CF" unicode="&#x24cf;" 
d="M0 -58z" />
    <glyph glyph-name="uni24D0" unicode="&#x24d0;" horiz-adv-x="1000" 
d="M36 287q0 92 35 173.5t95 141.5q61 60 142 96t176 36q92 0 173 -36t143 -96q59 -60 94.5 -141.5t35.5 -173.5q0 -93 -35.5 -174.5t-94.5 -142.5q-62 -60 -143 -95t-173 -35q-94 0 -175.5 35t-142.5 96q-60 61 -95 142t-35 174zM116 287q0 -76 28.5 -142.5t79.5 -117.5
q50 -50 116 -78.5t144 -28.5q75 0 141.5 28.5t116.5 78.5q52 51 80.5 117.5t28.5 142.5q0 75 -28.5 142t-80.5 117q-50 51 -116.5 80t-141.5 29q-78 0 -144 -29t-116 -80q-51 -50 -79.5 -117t-28.5 -142zM659 79q2 -4 8 -12t6 -12q0 -5 -5 -5h-215q-99 0 -146 42t-47 133
v25.5v37.5q0 17 1 36.5t1 33.5q2 91 47 133t144 42h201v-87q0 -31 0.5 -69.5t1.5 -78.5q0 -40 0.5 -78t1.5 -68v-50.5t1 -22.5zM549 162v258h-37q-47 0 -75 -4t-41 -16q-15 -14 -18.5 -39.5t-3.5 -69.5q0 -43 3.5 -69t18.5 -38q13 -13 41 -17.5t75 -4.5h37z" />
    <glyph glyph-name="uni24D1" unicode="&#x24d1;" horiz-adv-x="1000" 
d="M36 287q0 92 35 173.5t95 141.5q61 60 142 96t176 36q92 0 173 -36t143 -96q59 -60 94.5 -141.5t35.5 -173.5q0 -93 -35.5 -174.5t-94.5 -142.5q-62 -60 -143 -95t-173 -35q-94 0 -175.5 35t-142.5 96q-60 61 -95 142t-35 174zM116 287q0 -76 28.5 -142.5t79.5 -117.5
q50 -50 116 -78.5t144 -28.5q75 0 141.5 28.5t116.5 78.5q52 51 80.5 117.5t28.5 142.5q0 75 -28.5 142t-80.5 117q-50 51 -116.5 80t-141.5 29q-78 0 -144 -29t-116 -80q-51 -50 -79.5 -117t-28.5 -142zM707 148q0 -86 -41 -130t-126 -44h-232v657h116v-174h89
q99 0 145 -41.5t49 -132.5v-135zM454 85q48 0 75.5 4t40.5 18t17.5 40t4.5 68q0 44 -4.5 69.5t-17.5 40.5q-13 13 -40.5 17t-75.5 4h-30v-261h30z" />
    <glyph glyph-name="uni24D2" unicode="&#x24d2;" horiz-adv-x="1000" 
d="M36 287q0 92 35 173.5t95 141.5q61 60 142 96t176 36q92 0 173 -36t143 -96q59 -60 94.5 -141.5t35.5 -173.5q0 -93 -35.5 -174.5t-94.5 -142.5q-62 -60 -143 -95t-173 -35q-94 0 -175.5 35t-142.5 96q-60 61 -95 142t-35 174zM116 287q0 -76 28.5 -142.5t79.5 -117.5
q50 -50 116 -78.5t144 -28.5q75 0 141.5 28.5t116.5 78.5q52 51 80.5 117.5t28.5 142.5q0 75 -28.5 142t-80.5 117q-50 51 -116.5 80t-141.5 29q-78 0 -144 -29t-116 -80q-51 -50 -79.5 -117t-28.5 -142zM663 162v-112h-188q-101 0 -148 42t-47 133v25.5v37.5v36.5v33.5
q2 91 48 133t147 42h173v-113h-118q-46 0 -73.5 -4t-41.5 -16q-13 -14 -17 -39.5t-4 -69.5q0 -43 4 -69t17 -38q14 -13 41.5 -17.5t73.5 -4.5h133z" />
    <glyph glyph-name="uni24D3" unicode="&#x24d3;" horiz-adv-x="1000" 
d="M36 287q0 92 35 173.5t95 141.5q61 60 142 96t176 36q92 0 173 -36t143 -96q59 -60 94.5 -141.5t35.5 -173.5q0 -93 -35.5 -174.5t-94.5 -142.5q-62 -60 -143 -95t-173 -35q-94 0 -175.5 35t-142.5 96q-60 61 -95 142t-35 174zM116 287q0 -76 28.5 -142.5t79.5 -117.5
q50 -50 116 -78.5t144 -28.5q75 0 141.5 28.5t116.5 78.5q52 51 80.5 117.5t28.5 142.5q0 75 -28.5 142t-80.5 117q-50 51 -116.5 80t-141.5 29q-78 0 -144 -29t-116 -80q-51 -50 -79.5 -117t-28.5 -142zM663 631v-553v-104h-10h-196q-98 0 -145.5 41.5t-47.5 132.5v135
q0 91 47.5 132.5t145.5 41.5h90v174h116zM547 87v258h-32q-47 0 -75 -4t-41 -16q-13 -15 -17.5 -40.5t-4.5 -69.5q0 -42 4.5 -68t17.5 -39t41 -17t75 -4h32z" />
    <glyph glyph-name="uni24D4" unicode="&#x24d4;" horiz-adv-x="1000" 
d="M36 287q0 92 35 173.5t95 141.5q61 60 142 96t176 36q92 0 173 -36t143 -96q59 -60 94.5 -141.5t35.5 -173.5q0 -93 -35.5 -174.5t-94.5 -142.5q-62 -60 -143 -95t-173 -35q-94 0 -175.5 35t-142.5 96q-60 61 -95 142t-35 174zM116 287q0 -76 28.5 -142.5t79.5 -117.5
q50 -50 116 -78.5t144 -28.5q75 0 141.5 28.5t116.5 78.5q52 51 80.5 117.5t28.5 142.5q0 75 -28.5 142t-80.5 117q-50 51 -116.5 80t-141.5 29q-78 0 -144 -29t-116 -80q-51 -50 -79.5 -117t-28.5 -142zM484 542q53 0 89.5 -12.5t61.5 -36.5q21 -27 32 -63.5t11 -87.5v-103
h-285q2 -26 9 -40.5t24 -22.5q14 -7 38.5 -10t62.5 -3h139v-113h-194q-103 0 -148 44t-47 138v120q0 97 45.5 143.5t149.5 46.5h12zM563 342q-1 46 -19.5 65.5t-65.5 19.5q-50 0 -67 -19.5t-19 -65.5h171z" />
    <glyph glyph-name="uni24D5" unicode="&#x24d5;" horiz-adv-x="1000" 
d="M36 287q0 92 35 173.5t95 141.5q61 60 142 96t176 36q92 0 173 -36t143 -96q59 -60 94.5 -141.5t35.5 -173.5q0 -93 -35.5 -174.5t-94.5 -142.5q-62 -60 -143 -95t-173 -35q-94 0 -175.5 35t-142.5 96q-60 61 -95 142t-35 174zM116 287q0 -76 28.5 -142.5t79.5 -117.5
q50 -50 116 -78.5t144 -28.5q75 0 141.5 28.5t116.5 78.5q52 51 80.5 117.5t28.5 142.5q0 75 -28.5 142t-80.5 117q-50 51 -116.5 80t-141.5 29q-78 0 -144 -29t-116 -80q-51 -50 -79.5 -117t-28.5 -142zM568 507q-19 0 -30.5 -4t-16.5 -15q-7 -11 -9 -30t-2 -48h99v-103
h-93v-343h-116v343h-76v103h72q0 51 1.5 90.5t16.5 65.5q15 28 49.5 41.5t101.5 13.5h52v-114h-49z" />
    <glyph glyph-name="uni24D6" unicode="&#x24d6;" horiz-adv-x="1000" 
d="M36 287q0 92 35 173.5t95 141.5q61 60 142 96t176 36q92 0 173 -36t143 -96q59 -60 94.5 -141.5t35.5 -173.5q0 -93 -35.5 -174.5t-94.5 -142.5q-62 -60 -143 -95t-173 -35q-94 0 -175.5 35t-142.5 96q-60 61 -95 142t-35 174zM116 287q0 -76 28.5 -142.5t79.5 -117.5
q50 -50 116 -78.5t144 -28.5q75 0 141.5 28.5t116.5 78.5q52 51 80.5 117.5t28.5 142.5q0 75 -28.5 142t-80.5 117q-50 51 -116.5 80t-141.5 29q-78 0 -144 -29t-116 -80q-51 -50 -79.5 -117t-28.5 -142zM669 111q0 -70 -23 -105.5t-65 -50.5q-43 -13 -106 -13.5t-145 0.5
v113h95q36 0 61 1.5t39 6.5q15 8 21.5 19.5t6.5 31.5h-90q-100 0 -147 42t-47 133v127q0 90 47 131.5t147 41.5h206v-478zM552 227v250h-32q-47 0 -75 -5t-42 -16q-13 -13 -16.5 -38.5t-3.5 -69.5q0 -43 3.5 -67.5t16.5 -35.5q14 -12 42 -15t75 -3h32z" />
    <glyph glyph-name="uni24D7" unicode="&#x24d7;" horiz-adv-x="1000" 
d="M36 287q0 92 35 173.5t95 141.5q61 60 142 96t176 36q92 0 173 -36t143 -96q59 -60 94.5 -141.5t35.5 -173.5q0 -93 -35.5 -174.5t-94.5 -142.5q-62 -60 -143 -95t-173 -35q-94 0 -175.5 35t-142.5 96q-60 61 -95 142t-35 174zM116 287q0 -76 28.5 -142.5t79.5 -117.5
q50 -50 116 -78.5t144 -28.5q75 0 141.5 28.5t116.5 78.5q52 51 80.5 117.5t28.5 142.5q0 75 -28.5 142t-80.5 117q-50 51 -116.5 80t-141.5 29q-78 0 -144 -29t-116 -80q-51 -50 -79.5 -117t-28.5 -142zM495 457q105 0 150 -45.5t45 -144.5v-293h-115v239q0 44 -4 70.5
t-17 41.5q-14 13 -41.5 17t-73.5 4h-33v-372h-116v657h116v-174h89z" />
    <glyph glyph-name="uni24D8" unicode="&#x24d8;" horiz-adv-x="1000" 
d="M36 287q0 92 35 173.5t95 141.5q61 60 142 96t176 36q92 0 173 -36t143 -96q59 -60 94.5 -141.5t35.5 -173.5q0 -93 -35.5 -174.5t-94.5 -142.5q-62 -60 -143 -95t-173 -35q-94 0 -175.5 35t-142.5 96q-60 61 -95 142t-35 174zM116 287q0 -76 28.5 -142.5t79.5 -117.5
q50 -50 116 -78.5t144 -28.5q75 0 141.5 28.5t116.5 78.5q52 51 80.5 117.5t28.5 142.5q0 75 -28.5 142t-80.5 117q-50 51 -116.5 80t-141.5 29q-78 0 -144 -29t-116 -80q-51 -50 -79.5 -117t-28.5 -142zM557 563q0 -27 -19 -47t-49 -20q-27 0 -46 20t-19 47t19 47.5
t46 20.5q30 0 49 -20.5t19 -47.5zM547 437v-473h-114v473h114z" />
    <glyph glyph-name="uni24D9" unicode="&#x24d9;" horiz-adv-x="1000" 
d="M36 287q0 92 35 173.5t95 141.5q61 60 142 96t176 36q92 0 173 -36t143 -96q59 -60 94.5 -141.5t35.5 -173.5q0 -93 -35.5 -174.5t-94.5 -142.5q-62 -60 -143 -95t-173 -35q-94 0 -175.5 35t-142.5 96q-60 61 -95 142t-35 174zM116 287q0 -76 28.5 -142.5t79.5 -117.5
q50 -50 116 -78.5t144 -28.5q75 0 141.5 28.5t116.5 78.5q52 51 80.5 117.5t28.5 142.5q0 75 -28.5 142t-80.5 117q-50 51 -116.5 80t-141.5 29q-78 0 -144 -29t-116 -80q-51 -50 -79.5 -117t-28.5 -142zM572 452v-277q0 -58 -6.5 -100.5t-27.5 -70.5q-20 -26 -58 -39.5
t-101 -13.5h-36v112h29q30 0 46.5 8t24.5 24q8 15 10.5 38.5t2.5 57.5v261h116zM583 563q0 -28 -19.5 -47.5t-46.5 -19.5q-30 0 -49.5 19.5t-19.5 47.5q0 29 19.5 48t49.5 19q27 0 46.5 -19t19.5 -48z" />
    <glyph glyph-name="uni24DA" unicode="&#x24da;" horiz-adv-x="1000" 
d="M36 287q0 92 35 173.5t95 141.5q61 60 142 96t176 36q92 0 173 -36t143 -96q59 -60 94.5 -141.5t35.5 -173.5q0 -93 -35.5 -174.5t-94.5 -142.5q-62 -60 -143 -95t-173 -35q-94 0 -175.5 35t-142.5 96q-60 61 -95 142t-35 174zM116 287q0 -76 28.5 -142.5t79.5 -117.5
q50 -50 116 -78.5t144 -28.5q75 0 141.5 28.5t116.5 78.5q52 51 80.5 117.5t28.5 142.5q0 75 -28.5 142t-80.5 117q-50 51 -116.5 80t-141.5 29q-78 0 -144 -29t-116 -80q-51 -50 -79.5 -117t-28.5 -142zM743 -26l-233 255q63 76 100 120t58 67q18 24 23.5 30.5t6.5 8.5
h-148q-8 -9 -21.5 -27t-33.5 -40q-17 -21 -37.5 -45.5t-40.5 -47.5v326q0 10 -9 10h-97q-9 0 -9 -10v-647h115v146l17 20q20 -23 43.5 -49t45.5 -49q19 -22 36 -41t26 -27h158z" />
    <glyph glyph-name="uni24DB" unicode="&#x24db;" horiz-adv-x="1000" 
d="M36 287q0 92 35 173.5t95 141.5q61 60 142 96t176 36q92 0 173 -36t143 -96q59 -60 94.5 -141.5t35.5 -173.5q0 -93 -35.5 -174.5t-94.5 -142.5q-62 -60 -143 -95t-173 -35q-94 0 -175.5 35t-142.5 96q-60 61 -95 142t-35 174zM116 287q0 -76 28.5 -142.5t79.5 -117.5
q50 -50 116 -78.5t144 -28.5q75 0 141.5 28.5t116.5 78.5q52 51 80.5 117.5t28.5 142.5q0 75 -28.5 142t-80.5 117q-50 51 -116.5 80t-141.5 29q-78 0 -144 -29t-116 -80q-51 -50 -79.5 -117t-28.5 -142zM544 -42h-115v658h115v-658z" />
    <glyph glyph-name="uni24DC" unicode="&#x24dc;" horiz-adv-x="1000" 
d="M36 287q0 92 35 173.5t95 141.5q61 60 142 96t176 36q92 0 173 -36t143 -96q59 -60 94.5 -141.5t35.5 -173.5q0 -93 -35.5 -174.5t-94.5 -142.5q-62 -60 -143 -95t-173 -35q-94 0 -175.5 35t-142.5 96q-60 61 -95 142t-35 174zM116 287q0 -76 28.5 -142.5t79.5 -117.5
q50 -50 116 -78.5t144 -28.5q75 0 141.5 28.5t116.5 78.5q52 51 80.5 117.5t28.5 142.5q0 75 -28.5 142t-80.5 117q-50 51 -116.5 80t-141.5 29q-78 0 -144 -29t-116 -80q-51 -50 -79.5 -117t-28.5 -142zM729 36h-114v239v62t-7 40q-5 14 -20.5 20.5t-46.5 8.5v-370h-115
v371h-73v-371h-115v482h297q104 0 149 -45.5t45 -142.5v-294z" />
    <glyph glyph-name="uni24DD" unicode="&#x24dd;" horiz-adv-x="1000" 
d="M36 287q0 92 35 173.5t95 141.5q61 60 142 96t176 36q92 0 173 -36t143 -96q59 -60 94.5 -141.5t35.5 -173.5q0 -93 -35.5 -174.5t-94.5 -142.5q-62 -60 -143 -95t-173 -35q-94 0 -175.5 35t-142.5 96q-60 61 -95 142t-35 174zM116 287q0 -76 28.5 -142.5t79.5 -117.5
q50 -50 116 -78.5t144 -28.5q75 0 141.5 28.5t116.5 78.5q52 51 80.5 117.5t28.5 142.5q0 75 -28.5 142t-80.5 117q-50 51 -116.5 80t-141.5 29q-78 0 -144 -29t-116 -80q-51 -50 -79.5 -117t-28.5 -142zM495 524q105 0 150 -45.5t45 -143.5v-295h-115v241q0 44 -4 70
t-17 40q-14 14 -41.5 17.5t-73.5 3.5h-33v-372h-116v484h205z" />
    <glyph glyph-name="uni24DE" unicode="&#x24de;" horiz-adv-x="1000" 
d="M36 287q0 92 35 173.5t95 141.5q61 60 142 96t176 36q92 0 173 -36t143 -96q59 -60 94.5 -141.5t35.5 -173.5q0 -93 -35.5 -174.5t-94.5 -142.5q-62 -60 -143 -95t-173 -35q-94 0 -175.5 35t-142.5 96q-60 61 -95 142t-35 174zM116 287q0 -76 28.5 -142.5t79.5 -117.5
q50 -50 116 -78.5t144 -28.5q75 0 141.5 28.5t116.5 78.5q52 51 80.5 117.5t28.5 142.5q0 75 -28.5 142t-80.5 117q-50 51 -116.5 80t-141.5 29q-78 0 -144 -29t-116 -80q-51 -50 -79.5 -117t-28.5 -142zM481 553q38 0 76 -13.5t70 -44.5q30 -31 50 -81.5t20 -123.5
q0 -79 -20 -130t-50 -81q-32 -30 -70.5 -42t-75.5 -12q-36 0 -74.5 13t-70.5 44q-30 30 -51 80.5t-21 127.5q0 75 20 125t51 82q33 30 71 43t75 13zM481 142q27 0 46.5 14.5t33.5 35.5q11 21 16 46.5t5 51.5q0 28 -5.5 55t-15.5 47q-14 20 -34 32.5t-46 12.5q-30 0 -49 -12
t-31 -31q-13 -20 -18.5 -46.5t-5.5 -57.5q0 -28 6.5 -54t19.5 -46q12 -21 31 -34.5t47 -13.5z" />
    </font>
</defs>
</svg>
